%TF.GenerationSoftware,KiCad,Pcbnew,(6.0.4)*%
%TF.CreationDate,2023-01-21T01:53:36+00:00*%
%TF.ProjectId,Diff_probe,44696666-5f70-4726-9f62-652e6b696361,rev?*%
%TF.SameCoordinates,Original*%
%TF.FileFunction,Legend,Top*%
%TF.FilePolarity,Positive*%
%FSLAX46Y46*%
G04 Gerber Fmt 4.6, Leading zero omitted, Abs format (unit mm)*
G04 Created by KiCad (PCBNEW (6.0.4)) date 2023-01-21 01:53:36*
%MOMM*%
%LPD*%
G01*
G04 APERTURE LIST*
%ADD10C,0.200000*%
%ADD11C,0.300000*%
%ADD12C,0.150000*%
%ADD13C,0.120000*%
%ADD14C,0.127000*%
G04 APERTURE END LIST*
D10*
X156147619Y-32595238D02*
X156100000Y-32557142D01*
X156052380Y-32480952D01*
X156052380Y-32290476D01*
X156100000Y-32214285D01*
X156147619Y-32176190D01*
X156242857Y-32138095D01*
X156338095Y-32138095D01*
X156480952Y-32176190D01*
X157052380Y-32633333D01*
X157052380Y-32138095D01*
X156957142Y-31795238D02*
X157004761Y-31757142D01*
X157052380Y-31795238D01*
X157004761Y-31833333D01*
X156957142Y-31795238D01*
X157052380Y-31795238D01*
X156052380Y-31033333D02*
X156052380Y-31414285D01*
X156528571Y-31452380D01*
X156480952Y-31414285D01*
X156433333Y-31338095D01*
X156433333Y-31147619D01*
X156480952Y-31071428D01*
X156528571Y-31033333D01*
X156623809Y-30995238D01*
X156861904Y-30995238D01*
X156957142Y-31033333D01*
X157004761Y-31071428D01*
X157052380Y-31147619D01*
X157052380Y-31338095D01*
X157004761Y-31414285D01*
X156957142Y-31452380D01*
X156052380Y-30766666D02*
X157052380Y-30500000D01*
X156052380Y-30233333D01*
X157052380Y-29357142D02*
X156052380Y-29357142D01*
X156766666Y-29090476D01*
X156052380Y-28823809D01*
X157052380Y-28823809D01*
X157052380Y-28442857D02*
X156052380Y-28442857D01*
X157052380Y-28061904D02*
X156052380Y-28061904D01*
X156052380Y-27871428D01*
X156100000Y-27757142D01*
X156195238Y-27680952D01*
X156290476Y-27642857D01*
X156480952Y-27604761D01*
X156623809Y-27604761D01*
X156814285Y-27642857D01*
X156909523Y-27680952D01*
X157004761Y-27757142D01*
X157052380Y-27871428D01*
X157052380Y-28061904D01*
D11*
X153428571Y-21250000D02*
X153285714Y-21178571D01*
X153071428Y-21178571D01*
X152857142Y-21250000D01*
X152714285Y-21392857D01*
X152642857Y-21535714D01*
X152571428Y-21821428D01*
X152571428Y-22035714D01*
X152642857Y-22321428D01*
X152714285Y-22464285D01*
X152857142Y-22607142D01*
X153071428Y-22678571D01*
X153214285Y-22678571D01*
X153428571Y-22607142D01*
X153500000Y-22535714D01*
X153500000Y-22035714D01*
X153214285Y-22035714D01*
X154142857Y-22678571D02*
X154142857Y-21178571D01*
X155000000Y-22678571D01*
X155000000Y-21178571D01*
X155714285Y-22678571D02*
X155714285Y-21178571D01*
X156071428Y-21178571D01*
X156285714Y-21250000D01*
X156428571Y-21392857D01*
X156500000Y-21535714D01*
X156571428Y-21821428D01*
X156571428Y-22035714D01*
X156500000Y-22321428D01*
X156428571Y-22464285D01*
X156285714Y-22607142D01*
X156071428Y-22678571D01*
X155714285Y-22678571D01*
X159071428Y-21178571D02*
X158357142Y-21178571D01*
X158285714Y-21892857D01*
X158357142Y-21821428D01*
X158500000Y-21750000D01*
X158857142Y-21750000D01*
X159000000Y-21821428D01*
X159071428Y-21892857D01*
X159142857Y-22035714D01*
X159142857Y-22392857D01*
X159071428Y-22535714D01*
X159000000Y-22607142D01*
X158857142Y-22678571D01*
X158500000Y-22678571D01*
X158357142Y-22607142D01*
X158285714Y-22535714D01*
X159571428Y-21178571D02*
X160071428Y-22678571D01*
X160571428Y-21178571D01*
D12*
X120135714Y-43642857D02*
X120802380Y-43642857D01*
X119754761Y-43880952D02*
X120469047Y-44119047D01*
X120469047Y-43500000D01*
X119802380Y-42642857D02*
X119802380Y-43119047D01*
X120278571Y-43166666D01*
X120230952Y-43119047D01*
X120183333Y-43023809D01*
X120183333Y-42785714D01*
X120230952Y-42690476D01*
X120278571Y-42642857D01*
X120373809Y-42595238D01*
X120611904Y-42595238D01*
X120707142Y-42642857D01*
X120754761Y-42690476D01*
X120802380Y-42785714D01*
X120802380Y-43023809D01*
X120754761Y-43119047D01*
X120707142Y-43166666D01*
X120707142Y-42166666D02*
X120754761Y-42119047D01*
X120802380Y-42166666D01*
X120754761Y-42214285D01*
X120707142Y-42166666D01*
X120802380Y-42166666D01*
X119802380Y-41500000D02*
X119802380Y-41404761D01*
X119850000Y-41309523D01*
X119897619Y-41261904D01*
X119992857Y-41214285D01*
X120183333Y-41166666D01*
X120421428Y-41166666D01*
X120611904Y-41214285D01*
X120707142Y-41261904D01*
X120754761Y-41309523D01*
X120802380Y-41404761D01*
X120802380Y-41500000D01*
X120754761Y-41595238D01*
X120707142Y-41642857D01*
X120611904Y-41690476D01*
X120421428Y-41738095D01*
X120183333Y-41738095D01*
X119992857Y-41690476D01*
X119897619Y-41642857D01*
X119850000Y-41595238D01*
X119802380Y-41500000D01*
X119802380Y-40547619D02*
X119802380Y-40452380D01*
X119850000Y-40357142D01*
X119897619Y-40309523D01*
X119992857Y-40261904D01*
X120183333Y-40214285D01*
X120421428Y-40214285D01*
X120611904Y-40261904D01*
X120707142Y-40309523D01*
X120754761Y-40357142D01*
X120802380Y-40452380D01*
X120802380Y-40547619D01*
X120754761Y-40642857D01*
X120707142Y-40690476D01*
X120611904Y-40738095D01*
X120421428Y-40785714D01*
X120183333Y-40785714D01*
X119992857Y-40738095D01*
X119897619Y-40690476D01*
X119850000Y-40642857D01*
X119802380Y-40547619D01*
X119802380Y-39595238D02*
X119802380Y-39500000D01*
X119850000Y-39404761D01*
X119897619Y-39357142D01*
X119992857Y-39309523D01*
X120183333Y-39261904D01*
X120421428Y-39261904D01*
X120611904Y-39309523D01*
X120707142Y-39357142D01*
X120754761Y-39404761D01*
X120802380Y-39500000D01*
X120802380Y-39595238D01*
X120754761Y-39690476D01*
X120707142Y-39738095D01*
X120611904Y-39785714D01*
X120421428Y-39833333D01*
X120183333Y-39833333D01*
X119992857Y-39785714D01*
X119897619Y-39738095D01*
X119850000Y-39690476D01*
X119802380Y-39595238D01*
X119802380Y-38642857D02*
X119802380Y-38547619D01*
X119850000Y-38452380D01*
X119897619Y-38404761D01*
X119992857Y-38357142D01*
X120183333Y-38309523D01*
X120421428Y-38309523D01*
X120611904Y-38357142D01*
X120707142Y-38404761D01*
X120754761Y-38452380D01*
X120802380Y-38547619D01*
X120802380Y-38642857D01*
X120754761Y-38738095D01*
X120707142Y-38785714D01*
X120611904Y-38833333D01*
X120421428Y-38880952D01*
X120183333Y-38880952D01*
X119992857Y-38833333D01*
X119897619Y-38785714D01*
X119850000Y-38738095D01*
X119802380Y-38642857D01*
X120802380Y-37119047D02*
X120135714Y-37119047D01*
X120230952Y-37119047D02*
X120183333Y-37071428D01*
X120135714Y-36976190D01*
X120135714Y-36833333D01*
X120183333Y-36738095D01*
X120278571Y-36690476D01*
X120802380Y-36690476D01*
X120278571Y-36690476D02*
X120183333Y-36642857D01*
X120135714Y-36547619D01*
X120135714Y-36404761D01*
X120183333Y-36309523D01*
X120278571Y-36261904D01*
X120802380Y-36261904D01*
X120802380Y-35785714D02*
X120135714Y-35785714D01*
X120230952Y-35785714D02*
X120183333Y-35738095D01*
X120135714Y-35642857D01*
X120135714Y-35500000D01*
X120183333Y-35404761D01*
X120278571Y-35357142D01*
X120802380Y-35357142D01*
X120278571Y-35357142D02*
X120183333Y-35309523D01*
X120135714Y-35214285D01*
X120135714Y-35071428D01*
X120183333Y-34976190D01*
X120278571Y-34928571D01*
X120802380Y-34928571D01*
X123000000Y-62000000D02*
X120913580Y-62000000D01*
X123000000Y-17000000D02*
X120913580Y-17000000D01*
X121500000Y-62000000D02*
X121500000Y-17000000D01*
X121500000Y-62000000D02*
X121500000Y-17000000D01*
X121500000Y-62000000D02*
X122086421Y-60873496D01*
X121500000Y-62000000D02*
X120913579Y-60873496D01*
X121500000Y-17000000D02*
X120913579Y-18126504D01*
X121500000Y-17000000D02*
X122086421Y-18126504D01*
D11*
X148035714Y-62878571D02*
X147750000Y-62878571D01*
X147607142Y-62950000D01*
X147535714Y-63021428D01*
X147392857Y-63235714D01*
X147321428Y-63521428D01*
X147321428Y-64092857D01*
X147392857Y-64235714D01*
X147464285Y-64307142D01*
X147607142Y-64378571D01*
X147892857Y-64378571D01*
X148035714Y-64307142D01*
X148107142Y-64235714D01*
X148178571Y-64092857D01*
X148178571Y-63735714D01*
X148107142Y-63592857D01*
X148035714Y-63521428D01*
X147892857Y-63450000D01*
X147607142Y-63450000D01*
X147464285Y-63521428D01*
X147392857Y-63592857D01*
X147321428Y-63735714D01*
X149607142Y-64378571D02*
X148750000Y-64378571D01*
X149178571Y-64378571D02*
X149178571Y-62878571D01*
X149035714Y-63092857D01*
X148892857Y-63235714D01*
X148750000Y-63307142D01*
X150250000Y-64235714D02*
X150321428Y-64307142D01*
X150250000Y-64378571D01*
X150178571Y-64307142D01*
X150250000Y-64235714D01*
X150250000Y-64378571D01*
X151678571Y-62878571D02*
X150964285Y-62878571D01*
X150892857Y-63592857D01*
X150964285Y-63521428D01*
X151107142Y-63450000D01*
X151464285Y-63450000D01*
X151607142Y-63521428D01*
X151678571Y-63592857D01*
X151750000Y-63735714D01*
X151750000Y-64092857D01*
X151678571Y-64235714D01*
X151607142Y-64307142D01*
X151464285Y-64378571D01*
X151107142Y-64378571D01*
X150964285Y-64307142D01*
X150892857Y-64235714D01*
X152678571Y-62878571D02*
X152821428Y-62878571D01*
X152964285Y-62950000D01*
X153035714Y-63021428D01*
X153107142Y-63164285D01*
X153178571Y-63450000D01*
X153178571Y-63807142D01*
X153107142Y-64092857D01*
X153035714Y-64235714D01*
X152964285Y-64307142D01*
X152821428Y-64378571D01*
X152678571Y-64378571D01*
X152535714Y-64307142D01*
X152464285Y-64235714D01*
X152392857Y-64092857D01*
X152321428Y-63807142D01*
X152321428Y-63450000D01*
X152392857Y-63164285D01*
X152464285Y-63021428D01*
X152535714Y-62950000D01*
X152678571Y-62878571D01*
X154107142Y-62878571D02*
X154250000Y-62878571D01*
X154392857Y-62950000D01*
X154464285Y-63021428D01*
X154535714Y-63164285D01*
X154607142Y-63450000D01*
X154607142Y-63807142D01*
X154535714Y-64092857D01*
X154464285Y-64235714D01*
X154392857Y-64307142D01*
X154250000Y-64378571D01*
X154107142Y-64378571D01*
X153964285Y-64307142D01*
X153892857Y-64235714D01*
X153821428Y-64092857D01*
X153750000Y-63807142D01*
X153750000Y-63450000D01*
X153821428Y-63164285D01*
X153892857Y-63021428D01*
X153964285Y-62950000D01*
X154107142Y-62878571D01*
X155535714Y-62878571D02*
X155678571Y-62878571D01*
X155821428Y-62950000D01*
X155892857Y-63021428D01*
X155964285Y-63164285D01*
X156035714Y-63450000D01*
X156035714Y-63807142D01*
X155964285Y-64092857D01*
X155892857Y-64235714D01*
X155821428Y-64307142D01*
X155678571Y-64378571D01*
X155535714Y-64378571D01*
X155392857Y-64307142D01*
X155321428Y-64235714D01*
X155250000Y-64092857D01*
X155178571Y-63807142D01*
X155178571Y-63450000D01*
X155250000Y-63164285D01*
X155321428Y-63021428D01*
X155392857Y-62950000D01*
X155535714Y-62878571D01*
X157821428Y-64378571D02*
X157821428Y-63378571D01*
X157821428Y-63521428D02*
X157892857Y-63450000D01*
X158035714Y-63378571D01*
X158250000Y-63378571D01*
X158392857Y-63450000D01*
X158464285Y-63592857D01*
X158464285Y-64378571D01*
X158464285Y-63592857D02*
X158535714Y-63450000D01*
X158678571Y-63378571D01*
X158892857Y-63378571D01*
X159035714Y-63450000D01*
X159107142Y-63592857D01*
X159107142Y-64378571D01*
X159821428Y-64378571D02*
X159821428Y-63378571D01*
X159821428Y-63521428D02*
X159892857Y-63450000D01*
X160035714Y-63378571D01*
X160250000Y-63378571D01*
X160392857Y-63450000D01*
X160464285Y-63592857D01*
X160464285Y-64378571D01*
X160464285Y-63592857D02*
X160535714Y-63450000D01*
X160678571Y-63378571D01*
X160892857Y-63378571D01*
X161035714Y-63450000D01*
X161107142Y-63592857D01*
X161107142Y-64378571D01*
D10*
X123500000Y-62500000D02*
X123500000Y-66086420D01*
X185000000Y-62500000D02*
X185000000Y-66086420D01*
X123500000Y-65500000D02*
X185000000Y-65500000D01*
X123500000Y-65500000D02*
X185000000Y-65500000D01*
X123500000Y-65500000D02*
X124626504Y-66086421D01*
X123500000Y-65500000D02*
X124626504Y-64913579D01*
X185000000Y-65500000D02*
X183873496Y-64913579D01*
X185000000Y-65500000D02*
X183873496Y-66086421D01*
D12*
%TO.C,R42*%
X154357142Y-26852380D02*
X154023809Y-26376190D01*
X153785714Y-26852380D02*
X153785714Y-25852380D01*
X154166666Y-25852380D01*
X154261904Y-25900000D01*
X154309523Y-25947619D01*
X154357142Y-26042857D01*
X154357142Y-26185714D01*
X154309523Y-26280952D01*
X154261904Y-26328571D01*
X154166666Y-26376190D01*
X153785714Y-26376190D01*
X155214285Y-26185714D02*
X155214285Y-26852380D01*
X154976190Y-25804761D02*
X154738095Y-26519047D01*
X155357142Y-26519047D01*
X155690476Y-25947619D02*
X155738095Y-25900000D01*
X155833333Y-25852380D01*
X156071428Y-25852380D01*
X156166666Y-25900000D01*
X156214285Y-25947619D01*
X156261904Y-26042857D01*
X156261904Y-26138095D01*
X156214285Y-26280952D01*
X155642857Y-26852380D01*
X156261904Y-26852380D01*
%TO.C,R41*%
X154357142Y-24852380D02*
X154023809Y-24376190D01*
X153785714Y-24852380D02*
X153785714Y-23852380D01*
X154166666Y-23852380D01*
X154261904Y-23900000D01*
X154309523Y-23947619D01*
X154357142Y-24042857D01*
X154357142Y-24185714D01*
X154309523Y-24280952D01*
X154261904Y-24328571D01*
X154166666Y-24376190D01*
X153785714Y-24376190D01*
X155214285Y-24185714D02*
X155214285Y-24852380D01*
X154976190Y-23804761D02*
X154738095Y-24519047D01*
X155357142Y-24519047D01*
X156261904Y-24852380D02*
X155690476Y-24852380D01*
X155976190Y-24852380D02*
X155976190Y-23852380D01*
X155880952Y-23995238D01*
X155785714Y-24090476D01*
X155690476Y-24138095D01*
%TO.C,JP9*%
X157852380Y-26633333D02*
X158566666Y-26633333D01*
X158709523Y-26680952D01*
X158804761Y-26776190D01*
X158852380Y-26919047D01*
X158852380Y-27014285D01*
X158852380Y-26157142D02*
X157852380Y-26157142D01*
X157852380Y-25776190D01*
X157900000Y-25680952D01*
X157947619Y-25633333D01*
X158042857Y-25585714D01*
X158185714Y-25585714D01*
X158280952Y-25633333D01*
X158328571Y-25680952D01*
X158376190Y-25776190D01*
X158376190Y-26157142D01*
X158852380Y-25109523D02*
X158852380Y-24919047D01*
X158804761Y-24823809D01*
X158757142Y-24776190D01*
X158614285Y-24680952D01*
X158423809Y-24633333D01*
X158042857Y-24633333D01*
X157947619Y-24680952D01*
X157900000Y-24728571D01*
X157852380Y-24823809D01*
X157852380Y-25014285D01*
X157900000Y-25109523D01*
X157947619Y-25157142D01*
X158042857Y-25204761D01*
X158280952Y-25204761D01*
X158376190Y-25157142D01*
X158423809Y-25109523D01*
X158471428Y-25014285D01*
X158471428Y-24823809D01*
X158423809Y-24728571D01*
X158376190Y-24680952D01*
X158280952Y-24633333D01*
%TO.C,R32*%
X177357142Y-35952380D02*
X177023809Y-35476190D01*
X176785714Y-35952380D02*
X176785714Y-34952380D01*
X177166666Y-34952380D01*
X177261904Y-35000000D01*
X177309523Y-35047619D01*
X177357142Y-35142857D01*
X177357142Y-35285714D01*
X177309523Y-35380952D01*
X177261904Y-35428571D01*
X177166666Y-35476190D01*
X176785714Y-35476190D01*
X177690476Y-34952380D02*
X178309523Y-34952380D01*
X177976190Y-35333333D01*
X178119047Y-35333333D01*
X178214285Y-35380952D01*
X178261904Y-35428571D01*
X178309523Y-35523809D01*
X178309523Y-35761904D01*
X178261904Y-35857142D01*
X178214285Y-35904761D01*
X178119047Y-35952380D01*
X177833333Y-35952380D01*
X177738095Y-35904761D01*
X177690476Y-35857142D01*
X178690476Y-35047619D02*
X178738095Y-35000000D01*
X178833333Y-34952380D01*
X179071428Y-34952380D01*
X179166666Y-35000000D01*
X179214285Y-35047619D01*
X179261904Y-35142857D01*
X179261904Y-35238095D01*
X179214285Y-35380952D01*
X178642857Y-35952380D01*
X179261904Y-35952380D01*
%TO.C,C6*%
X139833333Y-26857142D02*
X139785714Y-26904761D01*
X139642857Y-26952380D01*
X139547619Y-26952380D01*
X139404761Y-26904761D01*
X139309523Y-26809523D01*
X139261904Y-26714285D01*
X139214285Y-26523809D01*
X139214285Y-26380952D01*
X139261904Y-26190476D01*
X139309523Y-26095238D01*
X139404761Y-26000000D01*
X139547619Y-25952380D01*
X139642857Y-25952380D01*
X139785714Y-26000000D01*
X139833333Y-26047619D01*
X140690476Y-25952380D02*
X140500000Y-25952380D01*
X140404761Y-26000000D01*
X140357142Y-26047619D01*
X140261904Y-26190476D01*
X140214285Y-26380952D01*
X140214285Y-26761904D01*
X140261904Y-26857142D01*
X140309523Y-26904761D01*
X140404761Y-26952380D01*
X140595238Y-26952380D01*
X140690476Y-26904761D01*
X140738095Y-26857142D01*
X140785714Y-26761904D01*
X140785714Y-26523809D01*
X140738095Y-26428571D01*
X140690476Y-26380952D01*
X140595238Y-26333333D01*
X140404761Y-26333333D01*
X140309523Y-26380952D01*
X140261904Y-26428571D01*
X140214285Y-26523809D01*
%TO.C,TP11*%
X170304380Y-60238095D02*
X170304380Y-59666666D01*
X171304380Y-59952380D02*
X170304380Y-59952380D01*
X171304380Y-59333333D02*
X170304380Y-59333333D01*
X170304380Y-58952380D01*
X170352000Y-58857142D01*
X170399619Y-58809523D01*
X170494857Y-58761904D01*
X170637714Y-58761904D01*
X170732952Y-58809523D01*
X170780571Y-58857142D01*
X170828190Y-58952380D01*
X170828190Y-59333333D01*
X171304380Y-57809523D02*
X171304380Y-58380952D01*
X171304380Y-58095238D02*
X170304380Y-58095238D01*
X170447238Y-58190476D01*
X170542476Y-58285714D01*
X170590095Y-58380952D01*
X171304380Y-56857142D02*
X171304380Y-57428571D01*
X171304380Y-57142857D02*
X170304380Y-57142857D01*
X170447238Y-57238095D01*
X170542476Y-57333333D01*
X170590095Y-57428571D01*
%TO.C,J5*%
X179952380Y-19333333D02*
X180666666Y-19333333D01*
X180809523Y-19380952D01*
X180904761Y-19476190D01*
X180952380Y-19619047D01*
X180952380Y-19714285D01*
X179952380Y-18380952D02*
X179952380Y-18857142D01*
X180428571Y-18904761D01*
X180380952Y-18857142D01*
X180333333Y-18761904D01*
X180333333Y-18523809D01*
X180380952Y-18428571D01*
X180428571Y-18380952D01*
X180523809Y-18333333D01*
X180761904Y-18333333D01*
X180857142Y-18380952D01*
X180904761Y-18428571D01*
X180952380Y-18523809D01*
X180952380Y-18761904D01*
X180904761Y-18857142D01*
X180857142Y-18904761D01*
%TO.C,JP3*%
X145666666Y-36952380D02*
X145666666Y-37666666D01*
X145619047Y-37809523D01*
X145523809Y-37904761D01*
X145380952Y-37952380D01*
X145285714Y-37952380D01*
X146142857Y-37952380D02*
X146142857Y-36952380D01*
X146523809Y-36952380D01*
X146619047Y-37000000D01*
X146666666Y-37047619D01*
X146714285Y-37142857D01*
X146714285Y-37285714D01*
X146666666Y-37380952D01*
X146619047Y-37428571D01*
X146523809Y-37476190D01*
X146142857Y-37476190D01*
X147047619Y-36952380D02*
X147666666Y-36952380D01*
X147333333Y-37333333D01*
X147476190Y-37333333D01*
X147571428Y-37380952D01*
X147619047Y-37428571D01*
X147666666Y-37523809D01*
X147666666Y-37761904D01*
X147619047Y-37857142D01*
X147571428Y-37904761D01*
X147476190Y-37952380D01*
X147190476Y-37952380D01*
X147095238Y-37904761D01*
X147047619Y-37857142D01*
%TO.C,TP13*%
X162261904Y-25452380D02*
X162833333Y-25452380D01*
X162547619Y-26452380D02*
X162547619Y-25452380D01*
X163166666Y-26452380D02*
X163166666Y-25452380D01*
X163547619Y-25452380D01*
X163642857Y-25500000D01*
X163690476Y-25547619D01*
X163738095Y-25642857D01*
X163738095Y-25785714D01*
X163690476Y-25880952D01*
X163642857Y-25928571D01*
X163547619Y-25976190D01*
X163166666Y-25976190D01*
X164690476Y-26452380D02*
X164119047Y-26452380D01*
X164404761Y-26452380D02*
X164404761Y-25452380D01*
X164309523Y-25595238D01*
X164214285Y-25690476D01*
X164119047Y-25738095D01*
X165023809Y-25452380D02*
X165642857Y-25452380D01*
X165309523Y-25833333D01*
X165452380Y-25833333D01*
X165547619Y-25880952D01*
X165595238Y-25928571D01*
X165642857Y-26023809D01*
X165642857Y-26261904D01*
X165595238Y-26357142D01*
X165547619Y-26404761D01*
X165452380Y-26452380D01*
X165166666Y-26452380D01*
X165071428Y-26404761D01*
X165023809Y-26357142D01*
%TO.C,TP4*%
X140304380Y-59761904D02*
X140304380Y-59190476D01*
X141304380Y-59476190D02*
X140304380Y-59476190D01*
X141304380Y-58857142D02*
X140304380Y-58857142D01*
X140304380Y-58476190D01*
X140352000Y-58380952D01*
X140399619Y-58333333D01*
X140494857Y-58285714D01*
X140637714Y-58285714D01*
X140732952Y-58333333D01*
X140780571Y-58380952D01*
X140828190Y-58476190D01*
X140828190Y-58857142D01*
X140637714Y-57428571D02*
X141304380Y-57428571D01*
X140256761Y-57666666D02*
X140971047Y-57904761D01*
X140971047Y-57285714D01*
%TO.C,TP9*%
X155304380Y-59761904D02*
X155304380Y-59190476D01*
X156304380Y-59476190D02*
X155304380Y-59476190D01*
X156304380Y-58857142D02*
X155304380Y-58857142D01*
X155304380Y-58476190D01*
X155352000Y-58380952D01*
X155399619Y-58333333D01*
X155494857Y-58285714D01*
X155637714Y-58285714D01*
X155732952Y-58333333D01*
X155780571Y-58380952D01*
X155828190Y-58476190D01*
X155828190Y-58857142D01*
X156304380Y-57809523D02*
X156304380Y-57619047D01*
X156256761Y-57523809D01*
X156209142Y-57476190D01*
X156066285Y-57380952D01*
X155875809Y-57333333D01*
X155494857Y-57333333D01*
X155399619Y-57380952D01*
X155352000Y-57428571D01*
X155304380Y-57523809D01*
X155304380Y-57714285D01*
X155352000Y-57809523D01*
X155399619Y-57857142D01*
X155494857Y-57904761D01*
X155732952Y-57904761D01*
X155828190Y-57857142D01*
X155875809Y-57809523D01*
X155923428Y-57714285D01*
X155923428Y-57523809D01*
X155875809Y-57428571D01*
X155828190Y-57380952D01*
X155732952Y-57333333D01*
%TO.C,C10*%
X171857142Y-23142857D02*
X171904761Y-23190476D01*
X171952380Y-23333333D01*
X171952380Y-23428571D01*
X171904761Y-23571428D01*
X171809523Y-23666666D01*
X171714285Y-23714285D01*
X171523809Y-23761904D01*
X171380952Y-23761904D01*
X171190476Y-23714285D01*
X171095238Y-23666666D01*
X171000000Y-23571428D01*
X170952380Y-23428571D01*
X170952380Y-23333333D01*
X171000000Y-23190476D01*
X171047619Y-23142857D01*
X171952380Y-22190476D02*
X171952380Y-22761904D01*
X171952380Y-22476190D02*
X170952380Y-22476190D01*
X171095238Y-22571428D01*
X171190476Y-22666666D01*
X171238095Y-22761904D01*
X170952380Y-21571428D02*
X170952380Y-21476190D01*
X171000000Y-21380952D01*
X171047619Y-21333333D01*
X171142857Y-21285714D01*
X171333333Y-21238095D01*
X171571428Y-21238095D01*
X171761904Y-21285714D01*
X171857142Y-21333333D01*
X171904761Y-21380952D01*
X171952380Y-21476190D01*
X171952380Y-21571428D01*
X171904761Y-21666666D01*
X171857142Y-21714285D01*
X171761904Y-21761904D01*
X171571428Y-21809523D01*
X171333333Y-21809523D01*
X171142857Y-21761904D01*
X171047619Y-21714285D01*
X171000000Y-21666666D01*
X170952380Y-21571428D01*
%TO.C,R2*%
X140832380Y-52666666D02*
X140356190Y-53000000D01*
X140832380Y-53238095D02*
X139832380Y-53238095D01*
X139832380Y-52857142D01*
X139880000Y-52761904D01*
X139927619Y-52714285D01*
X140022857Y-52666666D01*
X140165714Y-52666666D01*
X140260952Y-52714285D01*
X140308571Y-52761904D01*
X140356190Y-52857142D01*
X140356190Y-53238095D01*
X139927619Y-52285714D02*
X139880000Y-52238095D01*
X139832380Y-52142857D01*
X139832380Y-51904761D01*
X139880000Y-51809523D01*
X139927619Y-51761904D01*
X140022857Y-51714285D01*
X140118095Y-51714285D01*
X140260952Y-51761904D01*
X140832380Y-52333333D01*
X140832380Y-51714285D01*
%TO.C,J1*%
X137452380Y-22333333D02*
X138166666Y-22333333D01*
X138309523Y-22380952D01*
X138404761Y-22476190D01*
X138452380Y-22619047D01*
X138452380Y-22714285D01*
X138452380Y-21333333D02*
X138452380Y-21904761D01*
X138452380Y-21619047D02*
X137452380Y-21619047D01*
X137595238Y-21714285D01*
X137690476Y-21809523D01*
X137738095Y-21904761D01*
%TO.C,J3*%
X145452380Y-22333333D02*
X146166666Y-22333333D01*
X146309523Y-22380952D01*
X146404761Y-22476190D01*
X146452380Y-22619047D01*
X146452380Y-22714285D01*
X145452380Y-21952380D02*
X145452380Y-21333333D01*
X145833333Y-21666666D01*
X145833333Y-21523809D01*
X145880952Y-21428571D01*
X145928571Y-21380952D01*
X146023809Y-21333333D01*
X146261904Y-21333333D01*
X146357142Y-21380952D01*
X146404761Y-21428571D01*
X146452380Y-21523809D01*
X146452380Y-21809523D01*
X146404761Y-21904761D01*
X146357142Y-21952380D01*
%TO.C,R3*%
X125832380Y-52666666D02*
X125356190Y-53000000D01*
X125832380Y-53238095D02*
X124832380Y-53238095D01*
X124832380Y-52857142D01*
X124880000Y-52761904D01*
X124927619Y-52714285D01*
X125022857Y-52666666D01*
X125165714Y-52666666D01*
X125260952Y-52714285D01*
X125308571Y-52761904D01*
X125356190Y-52857142D01*
X125356190Y-53238095D01*
X124832380Y-52333333D02*
X124832380Y-51714285D01*
X125213333Y-52047619D01*
X125213333Y-51904761D01*
X125260952Y-51809523D01*
X125308571Y-51761904D01*
X125403809Y-51714285D01*
X125641904Y-51714285D01*
X125737142Y-51761904D01*
X125784761Y-51809523D01*
X125832380Y-51904761D01*
X125832380Y-52190476D01*
X125784761Y-52285714D01*
X125737142Y-52333333D01*
%TO.C,R17*%
X146857142Y-32952380D02*
X146523809Y-32476190D01*
X146285714Y-32952380D02*
X146285714Y-31952380D01*
X146666666Y-31952380D01*
X146761904Y-32000000D01*
X146809523Y-32047619D01*
X146857142Y-32142857D01*
X146857142Y-32285714D01*
X146809523Y-32380952D01*
X146761904Y-32428571D01*
X146666666Y-32476190D01*
X146285714Y-32476190D01*
X147809523Y-32952380D02*
X147238095Y-32952380D01*
X147523809Y-32952380D02*
X147523809Y-31952380D01*
X147428571Y-32095238D01*
X147333333Y-32190476D01*
X147238095Y-32238095D01*
X148142857Y-31952380D02*
X148809523Y-31952380D01*
X148380952Y-32952380D01*
%TO.C,R30*%
X170857142Y-37952380D02*
X170523809Y-37476190D01*
X170285714Y-37952380D02*
X170285714Y-36952380D01*
X170666666Y-36952380D01*
X170761904Y-37000000D01*
X170809523Y-37047619D01*
X170857142Y-37142857D01*
X170857142Y-37285714D01*
X170809523Y-37380952D01*
X170761904Y-37428571D01*
X170666666Y-37476190D01*
X170285714Y-37476190D01*
X171190476Y-36952380D02*
X171809523Y-36952380D01*
X171476190Y-37333333D01*
X171619047Y-37333333D01*
X171714285Y-37380952D01*
X171761904Y-37428571D01*
X171809523Y-37523809D01*
X171809523Y-37761904D01*
X171761904Y-37857142D01*
X171714285Y-37904761D01*
X171619047Y-37952380D01*
X171333333Y-37952380D01*
X171238095Y-37904761D01*
X171190476Y-37857142D01*
X172428571Y-36952380D02*
X172523809Y-36952380D01*
X172619047Y-37000000D01*
X172666666Y-37047619D01*
X172714285Y-37142857D01*
X172761904Y-37333333D01*
X172761904Y-37571428D01*
X172714285Y-37761904D01*
X172666666Y-37857142D01*
X172619047Y-37904761D01*
X172523809Y-37952380D01*
X172428571Y-37952380D01*
X172333333Y-37904761D01*
X172285714Y-37857142D01*
X172238095Y-37761904D01*
X172190476Y-37571428D01*
X172190476Y-37333333D01*
X172238095Y-37142857D01*
X172285714Y-37047619D01*
X172333333Y-37000000D01*
X172428571Y-36952380D01*
%TO.C,R18*%
X146857142Y-31452380D02*
X146523809Y-30976190D01*
X146285714Y-31452380D02*
X146285714Y-30452380D01*
X146666666Y-30452380D01*
X146761904Y-30500000D01*
X146809523Y-30547619D01*
X146857142Y-30642857D01*
X146857142Y-30785714D01*
X146809523Y-30880952D01*
X146761904Y-30928571D01*
X146666666Y-30976190D01*
X146285714Y-30976190D01*
X147809523Y-31452380D02*
X147238095Y-31452380D01*
X147523809Y-31452380D02*
X147523809Y-30452380D01*
X147428571Y-30595238D01*
X147333333Y-30690476D01*
X147238095Y-30738095D01*
X148380952Y-30880952D02*
X148285714Y-30833333D01*
X148238095Y-30785714D01*
X148190476Y-30690476D01*
X148190476Y-30642857D01*
X148238095Y-30547619D01*
X148285714Y-30500000D01*
X148380952Y-30452380D01*
X148571428Y-30452380D01*
X148666666Y-30500000D01*
X148714285Y-30547619D01*
X148761904Y-30642857D01*
X148761904Y-30690476D01*
X148714285Y-30785714D01*
X148666666Y-30833333D01*
X148571428Y-30880952D01*
X148380952Y-30880952D01*
X148285714Y-30928571D01*
X148238095Y-30976190D01*
X148190476Y-31071428D01*
X148190476Y-31261904D01*
X148238095Y-31357142D01*
X148285714Y-31404761D01*
X148380952Y-31452380D01*
X148571428Y-31452380D01*
X148666666Y-31404761D01*
X148714285Y-31357142D01*
X148761904Y-31261904D01*
X148761904Y-31071428D01*
X148714285Y-30976190D01*
X148666666Y-30928571D01*
X148571428Y-30880952D01*
%TO.C,R9*%
X130833333Y-30452380D02*
X130500000Y-29976190D01*
X130261904Y-30452380D02*
X130261904Y-29452380D01*
X130642857Y-29452380D01*
X130738095Y-29500000D01*
X130785714Y-29547619D01*
X130833333Y-29642857D01*
X130833333Y-29785714D01*
X130785714Y-29880952D01*
X130738095Y-29928571D01*
X130642857Y-29976190D01*
X130261904Y-29976190D01*
X131309523Y-30452380D02*
X131500000Y-30452380D01*
X131595238Y-30404761D01*
X131642857Y-30357142D01*
X131738095Y-30214285D01*
X131785714Y-30023809D01*
X131785714Y-29642857D01*
X131738095Y-29547619D01*
X131690476Y-29500000D01*
X131595238Y-29452380D01*
X131404761Y-29452380D01*
X131309523Y-29500000D01*
X131261904Y-29547619D01*
X131214285Y-29642857D01*
X131214285Y-29880952D01*
X131261904Y-29976190D01*
X131309523Y-30023809D01*
X131404761Y-30071428D01*
X131595238Y-30071428D01*
X131690476Y-30023809D01*
X131738095Y-29976190D01*
X131785714Y-29880952D01*
%TO.C,JP1*%
X133666666Y-36952380D02*
X133666666Y-37666666D01*
X133619047Y-37809523D01*
X133523809Y-37904761D01*
X133380952Y-37952380D01*
X133285714Y-37952380D01*
X134142857Y-37952380D02*
X134142857Y-36952380D01*
X134523809Y-36952380D01*
X134619047Y-37000000D01*
X134666666Y-37047619D01*
X134714285Y-37142857D01*
X134714285Y-37285714D01*
X134666666Y-37380952D01*
X134619047Y-37428571D01*
X134523809Y-37476190D01*
X134142857Y-37476190D01*
X135666666Y-37952380D02*
X135095238Y-37952380D01*
X135380952Y-37952380D02*
X135380952Y-36952380D01*
X135285714Y-37095238D01*
X135190476Y-37190476D01*
X135095238Y-37238095D01*
%TO.C,JP4*%
X146666666Y-28452380D02*
X146666666Y-29166666D01*
X146619047Y-29309523D01*
X146523809Y-29404761D01*
X146380952Y-29452380D01*
X146285714Y-29452380D01*
X147142857Y-29452380D02*
X147142857Y-28452380D01*
X147523809Y-28452380D01*
X147619047Y-28500000D01*
X147666666Y-28547619D01*
X147714285Y-28642857D01*
X147714285Y-28785714D01*
X147666666Y-28880952D01*
X147619047Y-28928571D01*
X147523809Y-28976190D01*
X147142857Y-28976190D01*
X148571428Y-28785714D02*
X148571428Y-29452380D01*
X148333333Y-28404761D02*
X148095238Y-29119047D01*
X148714285Y-29119047D01*
%TO.C,R29*%
X163857142Y-39952380D02*
X163523809Y-39476190D01*
X163285714Y-39952380D02*
X163285714Y-38952380D01*
X163666666Y-38952380D01*
X163761904Y-39000000D01*
X163809523Y-39047619D01*
X163857142Y-39142857D01*
X163857142Y-39285714D01*
X163809523Y-39380952D01*
X163761904Y-39428571D01*
X163666666Y-39476190D01*
X163285714Y-39476190D01*
X164238095Y-39047619D02*
X164285714Y-39000000D01*
X164380952Y-38952380D01*
X164619047Y-38952380D01*
X164714285Y-39000000D01*
X164761904Y-39047619D01*
X164809523Y-39142857D01*
X164809523Y-39238095D01*
X164761904Y-39380952D01*
X164190476Y-39952380D01*
X164809523Y-39952380D01*
X165285714Y-39952380D02*
X165476190Y-39952380D01*
X165571428Y-39904761D01*
X165619047Y-39857142D01*
X165714285Y-39714285D01*
X165761904Y-39523809D01*
X165761904Y-39142857D01*
X165714285Y-39047619D01*
X165666666Y-39000000D01*
X165571428Y-38952380D01*
X165380952Y-38952380D01*
X165285714Y-39000000D01*
X165238095Y-39047619D01*
X165190476Y-39142857D01*
X165190476Y-39380952D01*
X165238095Y-39476190D01*
X165285714Y-39523809D01*
X165380952Y-39571428D01*
X165571428Y-39571428D01*
X165666666Y-39523809D01*
X165714285Y-39476190D01*
X165761904Y-39380952D01*
%TO.C,R31*%
X177357142Y-39952380D02*
X177023809Y-39476190D01*
X176785714Y-39952380D02*
X176785714Y-38952380D01*
X177166666Y-38952380D01*
X177261904Y-39000000D01*
X177309523Y-39047619D01*
X177357142Y-39142857D01*
X177357142Y-39285714D01*
X177309523Y-39380952D01*
X177261904Y-39428571D01*
X177166666Y-39476190D01*
X176785714Y-39476190D01*
X177690476Y-38952380D02*
X178309523Y-38952380D01*
X177976190Y-39333333D01*
X178119047Y-39333333D01*
X178214285Y-39380952D01*
X178261904Y-39428571D01*
X178309523Y-39523809D01*
X178309523Y-39761904D01*
X178261904Y-39857142D01*
X178214285Y-39904761D01*
X178119047Y-39952380D01*
X177833333Y-39952380D01*
X177738095Y-39904761D01*
X177690476Y-39857142D01*
X179261904Y-39952380D02*
X178690476Y-39952380D01*
X178976190Y-39952380D02*
X178976190Y-38952380D01*
X178880952Y-39095238D01*
X178785714Y-39190476D01*
X178690476Y-39238095D01*
%TO.C,JP5*%
X164666666Y-36952380D02*
X164666666Y-37666666D01*
X164619047Y-37809523D01*
X164523809Y-37904761D01*
X164380952Y-37952380D01*
X164285714Y-37952380D01*
X165142857Y-37952380D02*
X165142857Y-36952380D01*
X165523809Y-36952380D01*
X165619047Y-37000000D01*
X165666666Y-37047619D01*
X165714285Y-37142857D01*
X165714285Y-37285714D01*
X165666666Y-37380952D01*
X165619047Y-37428571D01*
X165523809Y-37476190D01*
X165142857Y-37476190D01*
X166619047Y-36952380D02*
X166142857Y-36952380D01*
X166095238Y-37428571D01*
X166142857Y-37380952D01*
X166238095Y-37333333D01*
X166476190Y-37333333D01*
X166571428Y-37380952D01*
X166619047Y-37428571D01*
X166666666Y-37523809D01*
X166666666Y-37761904D01*
X166619047Y-37857142D01*
X166571428Y-37904761D01*
X166476190Y-37952380D01*
X166238095Y-37952380D01*
X166142857Y-37904761D01*
X166095238Y-37857142D01*
%TO.C,R7*%
X133333333Y-33382380D02*
X133000000Y-32906190D01*
X132761904Y-33382380D02*
X132761904Y-32382380D01*
X133142857Y-32382380D01*
X133238095Y-32430000D01*
X133285714Y-32477619D01*
X133333333Y-32572857D01*
X133333333Y-32715714D01*
X133285714Y-32810952D01*
X133238095Y-32858571D01*
X133142857Y-32906190D01*
X132761904Y-32906190D01*
X133666666Y-32382380D02*
X134333333Y-32382380D01*
X133904761Y-33382380D01*
%TO.C,R13*%
X140832380Y-45232857D02*
X140356190Y-45566190D01*
X140832380Y-45804285D02*
X139832380Y-45804285D01*
X139832380Y-45423333D01*
X139880000Y-45328095D01*
X139927619Y-45280476D01*
X140022857Y-45232857D01*
X140165714Y-45232857D01*
X140260952Y-45280476D01*
X140308571Y-45328095D01*
X140356190Y-45423333D01*
X140356190Y-45804285D01*
X140832380Y-44280476D02*
X140832380Y-44851904D01*
X140832380Y-44566190D02*
X139832380Y-44566190D01*
X139975238Y-44661428D01*
X140070476Y-44756666D01*
X140118095Y-44851904D01*
X139832380Y-43947142D02*
X139832380Y-43328095D01*
X140213333Y-43661428D01*
X140213333Y-43518571D01*
X140260952Y-43423333D01*
X140308571Y-43375714D01*
X140403809Y-43328095D01*
X140641904Y-43328095D01*
X140737142Y-43375714D01*
X140784761Y-43423333D01*
X140832380Y-43518571D01*
X140832380Y-43804285D01*
X140784761Y-43899523D01*
X140737142Y-43947142D01*
%TO.C,FB1*%
X127578571Y-28833333D02*
X127578571Y-29166666D01*
X128102380Y-29166666D02*
X127102380Y-29166666D01*
X127102380Y-28690476D01*
X127578571Y-27976190D02*
X127626190Y-27833333D01*
X127673809Y-27785714D01*
X127769047Y-27738095D01*
X127911904Y-27738095D01*
X128007142Y-27785714D01*
X128054761Y-27833333D01*
X128102380Y-27928571D01*
X128102380Y-28309523D01*
X127102380Y-28309523D01*
X127102380Y-27976190D01*
X127150000Y-27880952D01*
X127197619Y-27833333D01*
X127292857Y-27785714D01*
X127388095Y-27785714D01*
X127483333Y-27833333D01*
X127530952Y-27880952D01*
X127578571Y-27976190D01*
X127578571Y-28309523D01*
X128102380Y-26785714D02*
X128102380Y-27357142D01*
X128102380Y-27071428D02*
X127102380Y-27071428D01*
X127245238Y-27166666D01*
X127340476Y-27261904D01*
X127388095Y-27357142D01*
%TO.C,R27*%
X170832380Y-45142857D02*
X170356190Y-45476190D01*
X170832380Y-45714285D02*
X169832380Y-45714285D01*
X169832380Y-45333333D01*
X169880000Y-45238095D01*
X169927619Y-45190476D01*
X170022857Y-45142857D01*
X170165714Y-45142857D01*
X170260952Y-45190476D01*
X170308571Y-45238095D01*
X170356190Y-45333333D01*
X170356190Y-45714285D01*
X169927619Y-44761904D02*
X169880000Y-44714285D01*
X169832380Y-44619047D01*
X169832380Y-44380952D01*
X169880000Y-44285714D01*
X169927619Y-44238095D01*
X170022857Y-44190476D01*
X170118095Y-44190476D01*
X170260952Y-44238095D01*
X170832380Y-44809523D01*
X170832380Y-44190476D01*
X169832380Y-43857142D02*
X169832380Y-43190476D01*
X170832380Y-43619047D01*
%TO.C,R38*%
X180452380Y-23142857D02*
X179976190Y-23476190D01*
X180452380Y-23714285D02*
X179452380Y-23714285D01*
X179452380Y-23333333D01*
X179500000Y-23238095D01*
X179547619Y-23190476D01*
X179642857Y-23142857D01*
X179785714Y-23142857D01*
X179880952Y-23190476D01*
X179928571Y-23238095D01*
X179976190Y-23333333D01*
X179976190Y-23714285D01*
X179452380Y-22809523D02*
X179452380Y-22190476D01*
X179833333Y-22523809D01*
X179833333Y-22380952D01*
X179880952Y-22285714D01*
X179928571Y-22238095D01*
X180023809Y-22190476D01*
X180261904Y-22190476D01*
X180357142Y-22238095D01*
X180404761Y-22285714D01*
X180452380Y-22380952D01*
X180452380Y-22666666D01*
X180404761Y-22761904D01*
X180357142Y-22809523D01*
X179880952Y-21619047D02*
X179833333Y-21714285D01*
X179785714Y-21761904D01*
X179690476Y-21809523D01*
X179642857Y-21809523D01*
X179547619Y-21761904D01*
X179500000Y-21714285D01*
X179452380Y-21619047D01*
X179452380Y-21428571D01*
X179500000Y-21333333D01*
X179547619Y-21285714D01*
X179642857Y-21238095D01*
X179690476Y-21238095D01*
X179785714Y-21285714D01*
X179833333Y-21333333D01*
X179880952Y-21428571D01*
X179880952Y-21619047D01*
X179928571Y-21714285D01*
X179976190Y-21761904D01*
X180071428Y-21809523D01*
X180261904Y-21809523D01*
X180357142Y-21761904D01*
X180404761Y-21714285D01*
X180452380Y-21619047D01*
X180452380Y-21428571D01*
X180404761Y-21333333D01*
X180357142Y-21285714D01*
X180261904Y-21238095D01*
X180071428Y-21238095D01*
X179976190Y-21285714D01*
X179928571Y-21333333D01*
X179880952Y-21428571D01*
%TO.C,J4*%
X162452380Y-22333333D02*
X163166666Y-22333333D01*
X163309523Y-22380952D01*
X163404761Y-22476190D01*
X163452380Y-22619047D01*
X163452380Y-22714285D01*
X162785714Y-21428571D02*
X163452380Y-21428571D01*
X162404761Y-21666666D02*
X163119047Y-21904761D01*
X163119047Y-21285714D01*
%TO.C,J2*%
X129166666Y-25952380D02*
X129166666Y-26666666D01*
X129119047Y-26809523D01*
X129023809Y-26904761D01*
X128880952Y-26952380D01*
X128785714Y-26952380D01*
X129595238Y-26047619D02*
X129642857Y-26000000D01*
X129738095Y-25952380D01*
X129976190Y-25952380D01*
X130071428Y-26000000D01*
X130119047Y-26047619D01*
X130166666Y-26142857D01*
X130166666Y-26238095D01*
X130119047Y-26380952D01*
X129547619Y-26952380D01*
X130166666Y-26952380D01*
%TO.C,U1*%
X135238095Y-28052380D02*
X135238095Y-28861904D01*
X135285714Y-28957142D01*
X135333333Y-29004761D01*
X135428571Y-29052380D01*
X135619047Y-29052380D01*
X135714285Y-29004761D01*
X135761904Y-28957142D01*
X135809523Y-28861904D01*
X135809523Y-28052380D01*
X136809523Y-29052380D02*
X136238095Y-29052380D01*
X136523809Y-29052380D02*
X136523809Y-28052380D01*
X136428571Y-28195238D01*
X136333333Y-28290476D01*
X136238095Y-28338095D01*
%TO.C,R4*%
X133332380Y-52666666D02*
X132856190Y-53000000D01*
X133332380Y-53238095D02*
X132332380Y-53238095D01*
X132332380Y-52857142D01*
X132380000Y-52761904D01*
X132427619Y-52714285D01*
X132522857Y-52666666D01*
X132665714Y-52666666D01*
X132760952Y-52714285D01*
X132808571Y-52761904D01*
X132856190Y-52857142D01*
X132856190Y-53238095D01*
X132665714Y-51809523D02*
X133332380Y-51809523D01*
X132284761Y-52047619D02*
X132999047Y-52285714D01*
X132999047Y-51666666D01*
%TO.C,TP10*%
X162804380Y-60238095D02*
X162804380Y-59666666D01*
X163804380Y-59952380D02*
X162804380Y-59952380D01*
X163804380Y-59333333D02*
X162804380Y-59333333D01*
X162804380Y-58952380D01*
X162852000Y-58857142D01*
X162899619Y-58809523D01*
X162994857Y-58761904D01*
X163137714Y-58761904D01*
X163232952Y-58809523D01*
X163280571Y-58857142D01*
X163328190Y-58952380D01*
X163328190Y-59333333D01*
X163804380Y-57809523D02*
X163804380Y-58380952D01*
X163804380Y-58095238D02*
X162804380Y-58095238D01*
X162947238Y-58190476D01*
X163042476Y-58285714D01*
X163090095Y-58380952D01*
X162804380Y-57190476D02*
X162804380Y-57095238D01*
X162852000Y-57000000D01*
X162899619Y-56952380D01*
X162994857Y-56904761D01*
X163185333Y-56857142D01*
X163423428Y-56857142D01*
X163613904Y-56904761D01*
X163709142Y-56952380D01*
X163756761Y-57000000D01*
X163804380Y-57095238D01*
X163804380Y-57190476D01*
X163756761Y-57285714D01*
X163709142Y-57333333D01*
X163613904Y-57380952D01*
X163423428Y-57428571D01*
X163185333Y-57428571D01*
X162994857Y-57380952D01*
X162899619Y-57333333D01*
X162852000Y-57285714D01*
X162804380Y-57190476D01*
%TO.C,R15*%
X146357142Y-39952380D02*
X146023809Y-39476190D01*
X145785714Y-39952380D02*
X145785714Y-38952380D01*
X146166666Y-38952380D01*
X146261904Y-39000000D01*
X146309523Y-39047619D01*
X146357142Y-39142857D01*
X146357142Y-39285714D01*
X146309523Y-39380952D01*
X146261904Y-39428571D01*
X146166666Y-39476190D01*
X145785714Y-39476190D01*
X147309523Y-39952380D02*
X146738095Y-39952380D01*
X147023809Y-39952380D02*
X147023809Y-38952380D01*
X146928571Y-39095238D01*
X146833333Y-39190476D01*
X146738095Y-39238095D01*
X148214285Y-38952380D02*
X147738095Y-38952380D01*
X147690476Y-39428571D01*
X147738095Y-39380952D01*
X147833333Y-39333333D01*
X148071428Y-39333333D01*
X148166666Y-39380952D01*
X148214285Y-39428571D01*
X148261904Y-39523809D01*
X148261904Y-39761904D01*
X148214285Y-39857142D01*
X148166666Y-39904761D01*
X148071428Y-39952380D01*
X147833333Y-39952380D01*
X147738095Y-39904761D01*
X147690476Y-39857142D01*
%TO.C,R19*%
X143522380Y-23142857D02*
X143046190Y-23476190D01*
X143522380Y-23714285D02*
X142522380Y-23714285D01*
X142522380Y-23333333D01*
X142570000Y-23238095D01*
X142617619Y-23190476D01*
X142712857Y-23142857D01*
X142855714Y-23142857D01*
X142950952Y-23190476D01*
X142998571Y-23238095D01*
X143046190Y-23333333D01*
X143046190Y-23714285D01*
X143522380Y-22190476D02*
X143522380Y-22761904D01*
X143522380Y-22476190D02*
X142522380Y-22476190D01*
X142665238Y-22571428D01*
X142760476Y-22666666D01*
X142808095Y-22761904D01*
X143522380Y-21714285D02*
X143522380Y-21523809D01*
X143474761Y-21428571D01*
X143427142Y-21380952D01*
X143284285Y-21285714D01*
X143093809Y-21238095D01*
X142712857Y-21238095D01*
X142617619Y-21285714D01*
X142570000Y-21333333D01*
X142522380Y-21428571D01*
X142522380Y-21619047D01*
X142570000Y-21714285D01*
X142617619Y-21761904D01*
X142712857Y-21809523D01*
X142950952Y-21809523D01*
X143046190Y-21761904D01*
X143093809Y-21714285D01*
X143141428Y-21619047D01*
X143141428Y-21428571D01*
X143093809Y-21333333D01*
X143046190Y-21285714D01*
X142950952Y-21238095D01*
%TO.C,R23*%
X170832380Y-53142857D02*
X170356190Y-53476190D01*
X170832380Y-53714285D02*
X169832380Y-53714285D01*
X169832380Y-53333333D01*
X169880000Y-53238095D01*
X169927619Y-53190476D01*
X170022857Y-53142857D01*
X170165714Y-53142857D01*
X170260952Y-53190476D01*
X170308571Y-53238095D01*
X170356190Y-53333333D01*
X170356190Y-53714285D01*
X169927619Y-52761904D02*
X169880000Y-52714285D01*
X169832380Y-52619047D01*
X169832380Y-52380952D01*
X169880000Y-52285714D01*
X169927619Y-52238095D01*
X170022857Y-52190476D01*
X170118095Y-52190476D01*
X170260952Y-52238095D01*
X170832380Y-52809523D01*
X170832380Y-52190476D01*
X169832380Y-51857142D02*
X169832380Y-51238095D01*
X170213333Y-51571428D01*
X170213333Y-51428571D01*
X170260952Y-51333333D01*
X170308571Y-51285714D01*
X170403809Y-51238095D01*
X170641904Y-51238095D01*
X170737142Y-51285714D01*
X170784761Y-51333333D01*
X170832380Y-51428571D01*
X170832380Y-51714285D01*
X170784761Y-51809523D01*
X170737142Y-51857142D01*
%TO.C,JP8*%
X177166666Y-28452380D02*
X177166666Y-29166666D01*
X177119047Y-29309523D01*
X177023809Y-29404761D01*
X176880952Y-29452380D01*
X176785714Y-29452380D01*
X177642857Y-29452380D02*
X177642857Y-28452380D01*
X178023809Y-28452380D01*
X178119047Y-28500000D01*
X178166666Y-28547619D01*
X178214285Y-28642857D01*
X178214285Y-28785714D01*
X178166666Y-28880952D01*
X178119047Y-28928571D01*
X178023809Y-28976190D01*
X177642857Y-28976190D01*
X178785714Y-28880952D02*
X178690476Y-28833333D01*
X178642857Y-28785714D01*
X178595238Y-28690476D01*
X178595238Y-28642857D01*
X178642857Y-28547619D01*
X178690476Y-28500000D01*
X178785714Y-28452380D01*
X178976190Y-28452380D01*
X179071428Y-28500000D01*
X179119047Y-28547619D01*
X179166666Y-28642857D01*
X179166666Y-28690476D01*
X179119047Y-28785714D01*
X179071428Y-28833333D01*
X178976190Y-28880952D01*
X178785714Y-28880952D01*
X178690476Y-28928571D01*
X178642857Y-28976190D01*
X178595238Y-29071428D01*
X178595238Y-29261904D01*
X178642857Y-29357142D01*
X178690476Y-29404761D01*
X178785714Y-29452380D01*
X178976190Y-29452380D01*
X179071428Y-29404761D01*
X179119047Y-29357142D01*
X179166666Y-29261904D01*
X179166666Y-29071428D01*
X179119047Y-28976190D01*
X179071428Y-28928571D01*
X178976190Y-28880952D01*
%TO.C,R25*%
X155832380Y-45142857D02*
X155356190Y-45476190D01*
X155832380Y-45714285D02*
X154832380Y-45714285D01*
X154832380Y-45333333D01*
X154880000Y-45238095D01*
X154927619Y-45190476D01*
X155022857Y-45142857D01*
X155165714Y-45142857D01*
X155260952Y-45190476D01*
X155308571Y-45238095D01*
X155356190Y-45333333D01*
X155356190Y-45714285D01*
X154927619Y-44761904D02*
X154880000Y-44714285D01*
X154832380Y-44619047D01*
X154832380Y-44380952D01*
X154880000Y-44285714D01*
X154927619Y-44238095D01*
X155022857Y-44190476D01*
X155118095Y-44190476D01*
X155260952Y-44238095D01*
X155832380Y-44809523D01*
X155832380Y-44190476D01*
X154832380Y-43285714D02*
X154832380Y-43761904D01*
X155308571Y-43809523D01*
X155260952Y-43761904D01*
X155213333Y-43666666D01*
X155213333Y-43428571D01*
X155260952Y-43333333D01*
X155308571Y-43285714D01*
X155403809Y-43238095D01*
X155641904Y-43238095D01*
X155737142Y-43285714D01*
X155784761Y-43333333D01*
X155832380Y-43428571D01*
X155832380Y-43666666D01*
X155784761Y-43761904D01*
X155737142Y-43809523D01*
%TO.C,R11*%
X139497722Y-25452380D02*
X139164389Y-24976190D01*
X138926294Y-25452380D02*
X138926294Y-24452380D01*
X139307246Y-24452380D01*
X139402484Y-24500000D01*
X139450103Y-24547619D01*
X139497722Y-24642857D01*
X139497722Y-24785714D01*
X139450103Y-24880952D01*
X139402484Y-24928571D01*
X139307246Y-24976190D01*
X138926294Y-24976190D01*
X140450103Y-25452380D02*
X139878675Y-25452380D01*
X140164389Y-25452380D02*
X140164389Y-24452380D01*
X140069151Y-24595238D01*
X139973913Y-24690476D01*
X139878675Y-24738095D01*
X141402484Y-25452380D02*
X140831056Y-25452380D01*
X141116770Y-25452380D02*
X141116770Y-24452380D01*
X141021532Y-24595238D01*
X140926294Y-24690476D01*
X140831056Y-24738095D01*
%TO.C,TP1*%
X125304380Y-59761904D02*
X125304380Y-59190476D01*
X126304380Y-59476190D02*
X125304380Y-59476190D01*
X126304380Y-58857142D02*
X125304380Y-58857142D01*
X125304380Y-58476190D01*
X125352000Y-58380952D01*
X125399619Y-58333333D01*
X125494857Y-58285714D01*
X125637714Y-58285714D01*
X125732952Y-58333333D01*
X125780571Y-58380952D01*
X125828190Y-58476190D01*
X125828190Y-58857142D01*
X126304380Y-57333333D02*
X126304380Y-57904761D01*
X126304380Y-57619047D02*
X125304380Y-57619047D01*
X125447238Y-57714285D01*
X125542476Y-57809523D01*
X125590095Y-57904761D01*
%TO.C,C9*%
X148333333Y-26857142D02*
X148285714Y-26904761D01*
X148142857Y-26952380D01*
X148047619Y-26952380D01*
X147904761Y-26904761D01*
X147809523Y-26809523D01*
X147761904Y-26714285D01*
X147714285Y-26523809D01*
X147714285Y-26380952D01*
X147761904Y-26190476D01*
X147809523Y-26095238D01*
X147904761Y-26000000D01*
X148047619Y-25952380D01*
X148142857Y-25952380D01*
X148285714Y-26000000D01*
X148333333Y-26047619D01*
X148809523Y-26952380D02*
X149000000Y-26952380D01*
X149095238Y-26904761D01*
X149142857Y-26857142D01*
X149238095Y-26714285D01*
X149285714Y-26523809D01*
X149285714Y-26142857D01*
X149238095Y-26047619D01*
X149190476Y-26000000D01*
X149095238Y-25952380D01*
X148904761Y-25952380D01*
X148809523Y-26000000D01*
X148761904Y-26047619D01*
X148714285Y-26142857D01*
X148714285Y-26380952D01*
X148761904Y-26476190D01*
X148809523Y-26523809D01*
X148904761Y-26571428D01*
X149095238Y-26571428D01*
X149190476Y-26523809D01*
X149238095Y-26476190D01*
X149285714Y-26380952D01*
%TO.C,R37*%
X166022380Y-23142857D02*
X165546190Y-23476190D01*
X166022380Y-23714285D02*
X165022380Y-23714285D01*
X165022380Y-23333333D01*
X165070000Y-23238095D01*
X165117619Y-23190476D01*
X165212857Y-23142857D01*
X165355714Y-23142857D01*
X165450952Y-23190476D01*
X165498571Y-23238095D01*
X165546190Y-23333333D01*
X165546190Y-23714285D01*
X165022380Y-22809523D02*
X165022380Y-22190476D01*
X165403333Y-22523809D01*
X165403333Y-22380952D01*
X165450952Y-22285714D01*
X165498571Y-22238095D01*
X165593809Y-22190476D01*
X165831904Y-22190476D01*
X165927142Y-22238095D01*
X165974761Y-22285714D01*
X166022380Y-22380952D01*
X166022380Y-22666666D01*
X165974761Y-22761904D01*
X165927142Y-22809523D01*
X165022380Y-21857142D02*
X165022380Y-21190476D01*
X166022380Y-21619047D01*
%TO.C,R10*%
X135522380Y-23142857D02*
X135046190Y-23476190D01*
X135522380Y-23714285D02*
X134522380Y-23714285D01*
X134522380Y-23333333D01*
X134570000Y-23238095D01*
X134617619Y-23190476D01*
X134712857Y-23142857D01*
X134855714Y-23142857D01*
X134950952Y-23190476D01*
X134998571Y-23238095D01*
X135046190Y-23333333D01*
X135046190Y-23714285D01*
X135522380Y-22190476D02*
X135522380Y-22761904D01*
X135522380Y-22476190D02*
X134522380Y-22476190D01*
X134665238Y-22571428D01*
X134760476Y-22666666D01*
X134808095Y-22761904D01*
X134522380Y-21571428D02*
X134522380Y-21476190D01*
X134570000Y-21380952D01*
X134617619Y-21333333D01*
X134712857Y-21285714D01*
X134903333Y-21238095D01*
X135141428Y-21238095D01*
X135331904Y-21285714D01*
X135427142Y-21333333D01*
X135474761Y-21380952D01*
X135522380Y-21476190D01*
X135522380Y-21571428D01*
X135474761Y-21666666D01*
X135427142Y-21714285D01*
X135331904Y-21761904D01*
X135141428Y-21809523D01*
X134903333Y-21809523D01*
X134712857Y-21761904D01*
X134617619Y-21714285D01*
X134570000Y-21666666D01*
X134522380Y-21571428D01*
%TO.C,TP8*%
X151952380Y-20361904D02*
X151952380Y-19790476D01*
X152952380Y-20076190D02*
X151952380Y-20076190D01*
X152952380Y-19457142D02*
X151952380Y-19457142D01*
X151952380Y-19076190D01*
X152000000Y-18980952D01*
X152047619Y-18933333D01*
X152142857Y-18885714D01*
X152285714Y-18885714D01*
X152380952Y-18933333D01*
X152428571Y-18980952D01*
X152476190Y-19076190D01*
X152476190Y-19457142D01*
X152380952Y-18314285D02*
X152333333Y-18409523D01*
X152285714Y-18457142D01*
X152190476Y-18504761D01*
X152142857Y-18504761D01*
X152047619Y-18457142D01*
X152000000Y-18409523D01*
X151952380Y-18314285D01*
X151952380Y-18123809D01*
X152000000Y-18028571D01*
X152047619Y-17980952D01*
X152142857Y-17933333D01*
X152190476Y-17933333D01*
X152285714Y-17980952D01*
X152333333Y-18028571D01*
X152380952Y-18123809D01*
X152380952Y-18314285D01*
X152428571Y-18409523D01*
X152476190Y-18457142D01*
X152571428Y-18504761D01*
X152761904Y-18504761D01*
X152857142Y-18457142D01*
X152904761Y-18409523D01*
X152952380Y-18314285D01*
X152952380Y-18123809D01*
X152904761Y-18028571D01*
X152857142Y-17980952D01*
X152761904Y-17933333D01*
X152571428Y-17933333D01*
X152476190Y-17980952D01*
X152428571Y-18028571D01*
X152380952Y-18123809D01*
%TO.C,C5*%
X164833333Y-35857142D02*
X164785714Y-35904761D01*
X164642857Y-35952380D01*
X164547619Y-35952380D01*
X164404761Y-35904761D01*
X164309523Y-35809523D01*
X164261904Y-35714285D01*
X164214285Y-35523809D01*
X164214285Y-35380952D01*
X164261904Y-35190476D01*
X164309523Y-35095238D01*
X164404761Y-35000000D01*
X164547619Y-34952380D01*
X164642857Y-34952380D01*
X164785714Y-35000000D01*
X164833333Y-35047619D01*
X165738095Y-34952380D02*
X165261904Y-34952380D01*
X165214285Y-35428571D01*
X165261904Y-35380952D01*
X165357142Y-35333333D01*
X165595238Y-35333333D01*
X165690476Y-35380952D01*
X165738095Y-35428571D01*
X165785714Y-35523809D01*
X165785714Y-35761904D01*
X165738095Y-35857142D01*
X165690476Y-35904761D01*
X165595238Y-35952380D01*
X165357142Y-35952380D01*
X165261904Y-35904761D01*
X165214285Y-35857142D01*
%TO.C,R40*%
X183452380Y-23142857D02*
X182976190Y-23476190D01*
X183452380Y-23714285D02*
X182452380Y-23714285D01*
X182452380Y-23333333D01*
X182500000Y-23238095D01*
X182547619Y-23190476D01*
X182642857Y-23142857D01*
X182785714Y-23142857D01*
X182880952Y-23190476D01*
X182928571Y-23238095D01*
X182976190Y-23333333D01*
X182976190Y-23714285D01*
X182785714Y-22285714D02*
X183452380Y-22285714D01*
X182404761Y-22523809D02*
X183119047Y-22761904D01*
X183119047Y-22142857D01*
X182452380Y-21571428D02*
X182452380Y-21476190D01*
X182500000Y-21380952D01*
X182547619Y-21333333D01*
X182642857Y-21285714D01*
X182833333Y-21238095D01*
X183071428Y-21238095D01*
X183261904Y-21285714D01*
X183357142Y-21333333D01*
X183404761Y-21380952D01*
X183452380Y-21476190D01*
X183452380Y-21571428D01*
X183404761Y-21666666D01*
X183357142Y-21714285D01*
X183261904Y-21761904D01*
X183071428Y-21809523D01*
X182833333Y-21809523D01*
X182642857Y-21761904D01*
X182547619Y-21714285D01*
X182500000Y-21666666D01*
X182452380Y-21571428D01*
%TO.C,R6*%
X138833333Y-39952380D02*
X138500000Y-39476190D01*
X138261904Y-39952380D02*
X138261904Y-38952380D01*
X138642857Y-38952380D01*
X138738095Y-39000000D01*
X138785714Y-39047619D01*
X138833333Y-39142857D01*
X138833333Y-39285714D01*
X138785714Y-39380952D01*
X138738095Y-39428571D01*
X138642857Y-39476190D01*
X138261904Y-39476190D01*
X139690476Y-38952380D02*
X139500000Y-38952380D01*
X139404761Y-39000000D01*
X139357142Y-39047619D01*
X139261904Y-39190476D01*
X139214285Y-39380952D01*
X139214285Y-39761904D01*
X139261904Y-39857142D01*
X139309523Y-39904761D01*
X139404761Y-39952380D01*
X139595238Y-39952380D01*
X139690476Y-39904761D01*
X139738095Y-39857142D01*
X139785714Y-39761904D01*
X139785714Y-39523809D01*
X139738095Y-39428571D01*
X139690476Y-39380952D01*
X139595238Y-39333333D01*
X139404761Y-39333333D01*
X139309523Y-39380952D01*
X139261904Y-39428571D01*
X139214285Y-39523809D01*
%TO.C,R24*%
X178332380Y-53105357D02*
X177856190Y-53438690D01*
X178332380Y-53676785D02*
X177332380Y-53676785D01*
X177332380Y-53295833D01*
X177380000Y-53200595D01*
X177427619Y-53152976D01*
X177522857Y-53105357D01*
X177665714Y-53105357D01*
X177760952Y-53152976D01*
X177808571Y-53200595D01*
X177856190Y-53295833D01*
X177856190Y-53676785D01*
X177427619Y-52724404D02*
X177380000Y-52676785D01*
X177332380Y-52581547D01*
X177332380Y-52343452D01*
X177380000Y-52248214D01*
X177427619Y-52200595D01*
X177522857Y-52152976D01*
X177618095Y-52152976D01*
X177760952Y-52200595D01*
X178332380Y-52772023D01*
X178332380Y-52152976D01*
X177665714Y-51295833D02*
X178332380Y-51295833D01*
X177284761Y-51533928D02*
X177999047Y-51772023D01*
X177999047Y-51152976D01*
%TO.C,R39*%
X173452380Y-23142857D02*
X172976190Y-23476190D01*
X173452380Y-23714285D02*
X172452380Y-23714285D01*
X172452380Y-23333333D01*
X172500000Y-23238095D01*
X172547619Y-23190476D01*
X172642857Y-23142857D01*
X172785714Y-23142857D01*
X172880952Y-23190476D01*
X172928571Y-23238095D01*
X172976190Y-23333333D01*
X172976190Y-23714285D01*
X172452380Y-22809523D02*
X172452380Y-22190476D01*
X172833333Y-22523809D01*
X172833333Y-22380952D01*
X172880952Y-22285714D01*
X172928571Y-22238095D01*
X173023809Y-22190476D01*
X173261904Y-22190476D01*
X173357142Y-22238095D01*
X173404761Y-22285714D01*
X173452380Y-22380952D01*
X173452380Y-22666666D01*
X173404761Y-22761904D01*
X173357142Y-22809523D01*
X173452380Y-21714285D02*
X173452380Y-21523809D01*
X173404761Y-21428571D01*
X173357142Y-21380952D01*
X173214285Y-21285714D01*
X173023809Y-21238095D01*
X172642857Y-21238095D01*
X172547619Y-21285714D01*
X172500000Y-21333333D01*
X172452380Y-21428571D01*
X172452380Y-21619047D01*
X172500000Y-21714285D01*
X172547619Y-21761904D01*
X172642857Y-21809523D01*
X172880952Y-21809523D01*
X172976190Y-21761904D01*
X173023809Y-21714285D01*
X173071428Y-21619047D01*
X173071428Y-21428571D01*
X173023809Y-21333333D01*
X172976190Y-21285714D01*
X172880952Y-21238095D01*
%TO.C,R22*%
X163332380Y-53180357D02*
X162856190Y-53513690D01*
X163332380Y-53751785D02*
X162332380Y-53751785D01*
X162332380Y-53370833D01*
X162380000Y-53275595D01*
X162427619Y-53227976D01*
X162522857Y-53180357D01*
X162665714Y-53180357D01*
X162760952Y-53227976D01*
X162808571Y-53275595D01*
X162856190Y-53370833D01*
X162856190Y-53751785D01*
X162427619Y-52799404D02*
X162380000Y-52751785D01*
X162332380Y-52656547D01*
X162332380Y-52418452D01*
X162380000Y-52323214D01*
X162427619Y-52275595D01*
X162522857Y-52227976D01*
X162618095Y-52227976D01*
X162760952Y-52275595D01*
X163332380Y-52847023D01*
X163332380Y-52227976D01*
X162427619Y-51847023D02*
X162380000Y-51799404D01*
X162332380Y-51704166D01*
X162332380Y-51466071D01*
X162380000Y-51370833D01*
X162427619Y-51323214D01*
X162522857Y-51275595D01*
X162618095Y-51275595D01*
X162760952Y-51323214D01*
X163332380Y-51894642D01*
X163332380Y-51275595D01*
%TO.C,TP6*%
X141804380Y-27261904D02*
X141804380Y-26690476D01*
X142804380Y-26976190D02*
X141804380Y-26976190D01*
X142804380Y-26357142D02*
X141804380Y-26357142D01*
X141804380Y-25976190D01*
X141852000Y-25880952D01*
X141899619Y-25833333D01*
X141994857Y-25785714D01*
X142137714Y-25785714D01*
X142232952Y-25833333D01*
X142280571Y-25880952D01*
X142328190Y-25976190D01*
X142328190Y-26357142D01*
X141804380Y-24928571D02*
X141804380Y-25119047D01*
X141852000Y-25214285D01*
X141899619Y-25261904D01*
X142042476Y-25357142D01*
X142232952Y-25404761D01*
X142613904Y-25404761D01*
X142709142Y-25357142D01*
X142756761Y-25309523D01*
X142804380Y-25214285D01*
X142804380Y-25023809D01*
X142756761Y-24928571D01*
X142709142Y-24880952D01*
X142613904Y-24833333D01*
X142375809Y-24833333D01*
X142280571Y-24880952D01*
X142232952Y-24928571D01*
X142185333Y-25023809D01*
X142185333Y-25214285D01*
X142232952Y-25309523D01*
X142280571Y-25357142D01*
X142375809Y-25404761D01*
%TO.C,R34*%
X177357142Y-32952380D02*
X177023809Y-32476190D01*
X176785714Y-32952380D02*
X176785714Y-31952380D01*
X177166666Y-31952380D01*
X177261904Y-32000000D01*
X177309523Y-32047619D01*
X177357142Y-32142857D01*
X177357142Y-32285714D01*
X177309523Y-32380952D01*
X177261904Y-32428571D01*
X177166666Y-32476190D01*
X176785714Y-32476190D01*
X177690476Y-31952380D02*
X178309523Y-31952380D01*
X177976190Y-32333333D01*
X178119047Y-32333333D01*
X178214285Y-32380952D01*
X178261904Y-32428571D01*
X178309523Y-32523809D01*
X178309523Y-32761904D01*
X178261904Y-32857142D01*
X178214285Y-32904761D01*
X178119047Y-32952380D01*
X177833333Y-32952380D01*
X177738095Y-32904761D01*
X177690476Y-32857142D01*
X179166666Y-32285714D02*
X179166666Y-32952380D01*
X178928571Y-31904761D02*
X178690476Y-32619047D01*
X179309523Y-32619047D01*
%TO.C,R33*%
X160357142Y-31952380D02*
X160023809Y-31476190D01*
X159785714Y-31952380D02*
X159785714Y-30952380D01*
X160166666Y-30952380D01*
X160261904Y-31000000D01*
X160309523Y-31047619D01*
X160357142Y-31142857D01*
X160357142Y-31285714D01*
X160309523Y-31380952D01*
X160261904Y-31428571D01*
X160166666Y-31476190D01*
X159785714Y-31476190D01*
X160690476Y-30952380D02*
X161309523Y-30952380D01*
X160976190Y-31333333D01*
X161119047Y-31333333D01*
X161214285Y-31380952D01*
X161261904Y-31428571D01*
X161309523Y-31523809D01*
X161309523Y-31761904D01*
X161261904Y-31857142D01*
X161214285Y-31904761D01*
X161119047Y-31952380D01*
X160833333Y-31952380D01*
X160738095Y-31904761D01*
X160690476Y-31857142D01*
X161642857Y-30952380D02*
X162261904Y-30952380D01*
X161928571Y-31333333D01*
X162071428Y-31333333D01*
X162166666Y-31380952D01*
X162214285Y-31428571D01*
X162261904Y-31523809D01*
X162261904Y-31761904D01*
X162214285Y-31857142D01*
X162166666Y-31904761D01*
X162071428Y-31952380D01*
X161785714Y-31952380D01*
X161690476Y-31904761D01*
X161642857Y-31857142D01*
%TO.C,R14*%
X148332380Y-45142857D02*
X147856190Y-45476190D01*
X148332380Y-45714285D02*
X147332380Y-45714285D01*
X147332380Y-45333333D01*
X147380000Y-45238095D01*
X147427619Y-45190476D01*
X147522857Y-45142857D01*
X147665714Y-45142857D01*
X147760952Y-45190476D01*
X147808571Y-45238095D01*
X147856190Y-45333333D01*
X147856190Y-45714285D01*
X148332380Y-44190476D02*
X148332380Y-44761904D01*
X148332380Y-44476190D02*
X147332380Y-44476190D01*
X147475238Y-44571428D01*
X147570476Y-44666666D01*
X147618095Y-44761904D01*
X147665714Y-43333333D02*
X148332380Y-43333333D01*
X147284761Y-43571428D02*
X147999047Y-43809523D01*
X147999047Y-43190476D01*
%TO.C,TP14*%
X169761904Y-25452380D02*
X170333333Y-25452380D01*
X170047619Y-26452380D02*
X170047619Y-25452380D01*
X170666666Y-26452380D02*
X170666666Y-25452380D01*
X171047619Y-25452380D01*
X171142857Y-25500000D01*
X171190476Y-25547619D01*
X171238095Y-25642857D01*
X171238095Y-25785714D01*
X171190476Y-25880952D01*
X171142857Y-25928571D01*
X171047619Y-25976190D01*
X170666666Y-25976190D01*
X172190476Y-26452380D02*
X171619047Y-26452380D01*
X171904761Y-26452380D02*
X171904761Y-25452380D01*
X171809523Y-25595238D01*
X171714285Y-25690476D01*
X171619047Y-25738095D01*
X173047619Y-25785714D02*
X173047619Y-26452380D01*
X172809523Y-25404761D02*
X172571428Y-26119047D01*
X173190476Y-26119047D01*
%TO.C,R1*%
X125832380Y-44666666D02*
X125356190Y-45000000D01*
X125832380Y-45238095D02*
X124832380Y-45238095D01*
X124832380Y-44857142D01*
X124880000Y-44761904D01*
X124927619Y-44714285D01*
X125022857Y-44666666D01*
X125165714Y-44666666D01*
X125260952Y-44714285D01*
X125308571Y-44761904D01*
X125356190Y-44857142D01*
X125356190Y-45238095D01*
X125832380Y-43714285D02*
X125832380Y-44285714D01*
X125832380Y-44000000D02*
X124832380Y-44000000D01*
X124975238Y-44095238D01*
X125070476Y-44190476D01*
X125118095Y-44285714D01*
%TO.C,C1*%
X152333333Y-34857142D02*
X152285714Y-34904761D01*
X152142857Y-34952380D01*
X152047619Y-34952380D01*
X151904761Y-34904761D01*
X151809523Y-34809523D01*
X151761904Y-34714285D01*
X151714285Y-34523809D01*
X151714285Y-34380952D01*
X151761904Y-34190476D01*
X151809523Y-34095238D01*
X151904761Y-34000000D01*
X152047619Y-33952380D01*
X152142857Y-33952380D01*
X152285714Y-34000000D01*
X152333333Y-34047619D01*
X153285714Y-34952380D02*
X152714285Y-34952380D01*
X153000000Y-34952380D02*
X153000000Y-33952380D01*
X152904761Y-34095238D01*
X152809523Y-34190476D01*
X152714285Y-34238095D01*
%TO.C,R20*%
X147716562Y-25452380D02*
X147383229Y-24976190D01*
X147145134Y-25452380D02*
X147145134Y-24452380D01*
X147526086Y-24452380D01*
X147621324Y-24500000D01*
X147668943Y-24547619D01*
X147716562Y-24642857D01*
X147716562Y-24785714D01*
X147668943Y-24880952D01*
X147621324Y-24928571D01*
X147526086Y-24976190D01*
X147145134Y-24976190D01*
X148097515Y-24547619D02*
X148145134Y-24500000D01*
X148240372Y-24452380D01*
X148478467Y-24452380D01*
X148573705Y-24500000D01*
X148621324Y-24547619D01*
X148668943Y-24642857D01*
X148668943Y-24738095D01*
X148621324Y-24880952D01*
X148049896Y-25452380D01*
X148668943Y-25452380D01*
X149287991Y-24452380D02*
X149383229Y-24452380D01*
X149478467Y-24500000D01*
X149526086Y-24547619D01*
X149573705Y-24642857D01*
X149621324Y-24833333D01*
X149621324Y-25071428D01*
X149573705Y-25261904D01*
X149526086Y-25357142D01*
X149478467Y-25404761D01*
X149383229Y-25452380D01*
X149287991Y-25452380D01*
X149192753Y-25404761D01*
X149145134Y-25357142D01*
X149097515Y-25261904D01*
X149049896Y-25071428D01*
X149049896Y-24833333D01*
X149097515Y-24642857D01*
X149145134Y-24547619D01*
X149192753Y-24500000D01*
X149287991Y-24452380D01*
%TO.C,C7*%
X170692753Y-27357142D02*
X170645134Y-27404761D01*
X170502277Y-27452380D01*
X170407039Y-27452380D01*
X170264181Y-27404761D01*
X170168943Y-27309523D01*
X170121324Y-27214285D01*
X170073705Y-27023809D01*
X170073705Y-26880952D01*
X170121324Y-26690476D01*
X170168943Y-26595238D01*
X170264181Y-26500000D01*
X170407039Y-26452380D01*
X170502277Y-26452380D01*
X170645134Y-26500000D01*
X170692753Y-26547619D01*
X171026086Y-26452380D02*
X171692753Y-26452380D01*
X171264181Y-27452380D01*
%TO.C,C3*%
X149913392Y-30941666D02*
X149961011Y-30989285D01*
X150008630Y-31132142D01*
X150008630Y-31227380D01*
X149961011Y-31370238D01*
X149865773Y-31465476D01*
X149770535Y-31513095D01*
X149580059Y-31560714D01*
X149437202Y-31560714D01*
X149246726Y-31513095D01*
X149151488Y-31465476D01*
X149056250Y-31370238D01*
X149008630Y-31227380D01*
X149008630Y-31132142D01*
X149056250Y-30989285D01*
X149103869Y-30941666D01*
X149008630Y-30608333D02*
X149008630Y-29989285D01*
X149389583Y-30322619D01*
X149389583Y-30179761D01*
X149437202Y-30084523D01*
X149484821Y-30036904D01*
X149580059Y-29989285D01*
X149818154Y-29989285D01*
X149913392Y-30036904D01*
X149961011Y-30084523D01*
X150008630Y-30179761D01*
X150008630Y-30465476D01*
X149961011Y-30560714D01*
X149913392Y-30608333D01*
%TO.C,C11*%
X181857142Y-23142857D02*
X181904761Y-23190476D01*
X181952380Y-23333333D01*
X181952380Y-23428571D01*
X181904761Y-23571428D01*
X181809523Y-23666666D01*
X181714285Y-23714285D01*
X181523809Y-23761904D01*
X181380952Y-23761904D01*
X181190476Y-23714285D01*
X181095238Y-23666666D01*
X181000000Y-23571428D01*
X180952380Y-23428571D01*
X180952380Y-23333333D01*
X181000000Y-23190476D01*
X181047619Y-23142857D01*
X181952380Y-22190476D02*
X181952380Y-22761904D01*
X181952380Y-22476190D02*
X180952380Y-22476190D01*
X181095238Y-22571428D01*
X181190476Y-22666666D01*
X181238095Y-22761904D01*
X181952380Y-21238095D02*
X181952380Y-21809523D01*
X181952380Y-21523809D02*
X180952380Y-21523809D01*
X181095238Y-21619047D01*
X181190476Y-21714285D01*
X181238095Y-21809523D01*
%TO.C,C4*%
X152333333Y-37357142D02*
X152285714Y-37404761D01*
X152142857Y-37452380D01*
X152047619Y-37452380D01*
X151904761Y-37404761D01*
X151809523Y-37309523D01*
X151761904Y-37214285D01*
X151714285Y-37023809D01*
X151714285Y-36880952D01*
X151761904Y-36690476D01*
X151809523Y-36595238D01*
X151904761Y-36500000D01*
X152047619Y-36452380D01*
X152142857Y-36452380D01*
X152285714Y-36500000D01*
X152333333Y-36547619D01*
X153190476Y-36785714D02*
X153190476Y-37452380D01*
X152952380Y-36404761D02*
X152714285Y-37119047D01*
X153333333Y-37119047D01*
%TO.C,R12*%
X148332380Y-53142857D02*
X147856190Y-53476190D01*
X148332380Y-53714285D02*
X147332380Y-53714285D01*
X147332380Y-53333333D01*
X147380000Y-53238095D01*
X147427619Y-53190476D01*
X147522857Y-53142857D01*
X147665714Y-53142857D01*
X147760952Y-53190476D01*
X147808571Y-53238095D01*
X147856190Y-53333333D01*
X147856190Y-53714285D01*
X148332380Y-52190476D02*
X148332380Y-52761904D01*
X148332380Y-52476190D02*
X147332380Y-52476190D01*
X147475238Y-52571428D01*
X147570476Y-52666666D01*
X147618095Y-52761904D01*
X147427619Y-51809523D02*
X147380000Y-51761904D01*
X147332380Y-51666666D01*
X147332380Y-51428571D01*
X147380000Y-51333333D01*
X147427619Y-51285714D01*
X147522857Y-51238095D01*
X147618095Y-51238095D01*
X147760952Y-51285714D01*
X148332380Y-51857142D01*
X148332380Y-51238095D01*
%TO.C,TP7*%
X159852380Y-20261904D02*
X159852380Y-19690476D01*
X160852380Y-19976190D02*
X159852380Y-19976190D01*
X160852380Y-19357142D02*
X159852380Y-19357142D01*
X159852380Y-18976190D01*
X159900000Y-18880952D01*
X159947619Y-18833333D01*
X160042857Y-18785714D01*
X160185714Y-18785714D01*
X160280952Y-18833333D01*
X160328571Y-18880952D01*
X160376190Y-18976190D01*
X160376190Y-19357142D01*
X159852380Y-18452380D02*
X159852380Y-17785714D01*
X160852380Y-18214285D01*
%TO.C,U2*%
X167738095Y-28052380D02*
X167738095Y-28861904D01*
X167785714Y-28957142D01*
X167833333Y-29004761D01*
X167928571Y-29052380D01*
X168119047Y-29052380D01*
X168214285Y-29004761D01*
X168261904Y-28957142D01*
X168309523Y-28861904D01*
X168309523Y-28052380D01*
X168738095Y-28147619D02*
X168785714Y-28100000D01*
X168880952Y-28052380D01*
X169119047Y-28052380D01*
X169214285Y-28100000D01*
X169261904Y-28147619D01*
X169309523Y-28242857D01*
X169309523Y-28338095D01*
X169261904Y-28480952D01*
X168690476Y-29052380D01*
X169309523Y-29052380D01*
%TO.C,TP12*%
X177804380Y-60200595D02*
X177804380Y-59629166D01*
X178804380Y-59914880D02*
X177804380Y-59914880D01*
X178804380Y-59295833D02*
X177804380Y-59295833D01*
X177804380Y-58914880D01*
X177852000Y-58819642D01*
X177899619Y-58772023D01*
X177994857Y-58724404D01*
X178137714Y-58724404D01*
X178232952Y-58772023D01*
X178280571Y-58819642D01*
X178328190Y-58914880D01*
X178328190Y-59295833D01*
X178804380Y-57772023D02*
X178804380Y-58343452D01*
X178804380Y-58057738D02*
X177804380Y-58057738D01*
X177947238Y-58152976D01*
X178042476Y-58248214D01*
X178090095Y-58343452D01*
X177899619Y-57391071D02*
X177852000Y-57343452D01*
X177804380Y-57248214D01*
X177804380Y-57010119D01*
X177852000Y-56914880D01*
X177899619Y-56867261D01*
X177994857Y-56819642D01*
X178090095Y-56819642D01*
X178232952Y-56867261D01*
X178804380Y-57438690D01*
X178804380Y-56819642D01*
%TO.C,R21*%
X155832380Y-53180357D02*
X155356190Y-53513690D01*
X155832380Y-53751785D02*
X154832380Y-53751785D01*
X154832380Y-53370833D01*
X154880000Y-53275595D01*
X154927619Y-53227976D01*
X155022857Y-53180357D01*
X155165714Y-53180357D01*
X155260952Y-53227976D01*
X155308571Y-53275595D01*
X155356190Y-53370833D01*
X155356190Y-53751785D01*
X154927619Y-52799404D02*
X154880000Y-52751785D01*
X154832380Y-52656547D01*
X154832380Y-52418452D01*
X154880000Y-52323214D01*
X154927619Y-52275595D01*
X155022857Y-52227976D01*
X155118095Y-52227976D01*
X155260952Y-52275595D01*
X155832380Y-52847023D01*
X155832380Y-52227976D01*
X155832380Y-51275595D02*
X155832380Y-51847023D01*
X155832380Y-51561309D02*
X154832380Y-51561309D01*
X154975238Y-51656547D01*
X155070476Y-51751785D01*
X155118095Y-51847023D01*
%TO.C,JP6*%
X177166666Y-36952380D02*
X177166666Y-37666666D01*
X177119047Y-37809523D01*
X177023809Y-37904761D01*
X176880952Y-37952380D01*
X176785714Y-37952380D01*
X177642857Y-37952380D02*
X177642857Y-36952380D01*
X178023809Y-36952380D01*
X178119047Y-37000000D01*
X178166666Y-37047619D01*
X178214285Y-37142857D01*
X178214285Y-37285714D01*
X178166666Y-37380952D01*
X178119047Y-37428571D01*
X178023809Y-37476190D01*
X177642857Y-37476190D01*
X179071428Y-36952380D02*
X178880952Y-36952380D01*
X178785714Y-37000000D01*
X178738095Y-37047619D01*
X178642857Y-37190476D01*
X178595238Y-37380952D01*
X178595238Y-37761904D01*
X178642857Y-37857142D01*
X178690476Y-37904761D01*
X178785714Y-37952380D01*
X178976190Y-37952380D01*
X179071428Y-37904761D01*
X179119047Y-37857142D01*
X179166666Y-37761904D01*
X179166666Y-37523809D01*
X179119047Y-37428571D01*
X179071428Y-37380952D01*
X178976190Y-37333333D01*
X178785714Y-37333333D01*
X178690476Y-37380952D01*
X178642857Y-37428571D01*
X178595238Y-37523809D01*
%TO.C,TP5*%
X147804380Y-59761904D02*
X147804380Y-59190476D01*
X148804380Y-59476190D02*
X147804380Y-59476190D01*
X148804380Y-58857142D02*
X147804380Y-58857142D01*
X147804380Y-58476190D01*
X147852000Y-58380952D01*
X147899619Y-58333333D01*
X147994857Y-58285714D01*
X148137714Y-58285714D01*
X148232952Y-58333333D01*
X148280571Y-58380952D01*
X148328190Y-58476190D01*
X148328190Y-58857142D01*
X147804380Y-57380952D02*
X147804380Y-57857142D01*
X148280571Y-57904761D01*
X148232952Y-57857142D01*
X148185333Y-57761904D01*
X148185333Y-57523809D01*
X148232952Y-57428571D01*
X148280571Y-57380952D01*
X148375809Y-57333333D01*
X148613904Y-57333333D01*
X148709142Y-57380952D01*
X148756761Y-57428571D01*
X148804380Y-57523809D01*
X148804380Y-57761904D01*
X148756761Y-57857142D01*
X148709142Y-57904761D01*
%TO.C,JP2*%
X129166666Y-27452380D02*
X129166666Y-28166666D01*
X129119047Y-28309523D01*
X129023809Y-28404761D01*
X128880952Y-28452380D01*
X128785714Y-28452380D01*
X129642857Y-28452380D02*
X129642857Y-27452380D01*
X130023809Y-27452380D01*
X130119047Y-27500000D01*
X130166666Y-27547619D01*
X130214285Y-27642857D01*
X130214285Y-27785714D01*
X130166666Y-27880952D01*
X130119047Y-27928571D01*
X130023809Y-27976190D01*
X129642857Y-27976190D01*
X130595238Y-27547619D02*
X130642857Y-27500000D01*
X130738095Y-27452380D01*
X130976190Y-27452380D01*
X131071428Y-27500000D01*
X131119047Y-27547619D01*
X131166666Y-27642857D01*
X131166666Y-27738095D01*
X131119047Y-27880952D01*
X130547619Y-28452380D01*
X131166666Y-28452380D01*
%TO.C,U3*%
X153508630Y-29036904D02*
X154318154Y-29036904D01*
X154413392Y-28989285D01*
X154461011Y-28941666D01*
X154508630Y-28846428D01*
X154508630Y-28655952D01*
X154461011Y-28560714D01*
X154413392Y-28513095D01*
X154318154Y-28465476D01*
X153508630Y-28465476D01*
X153508630Y-28084523D02*
X153508630Y-27465476D01*
X153889583Y-27798809D01*
X153889583Y-27655952D01*
X153937202Y-27560714D01*
X153984821Y-27513095D01*
X154080059Y-27465476D01*
X154318154Y-27465476D01*
X154413392Y-27513095D01*
X154461011Y-27560714D01*
X154508630Y-27655952D01*
X154508630Y-27941666D01*
X154461011Y-28036904D01*
X154413392Y-28084523D01*
%TO.C,R35*%
X160357142Y-30452380D02*
X160023809Y-29976190D01*
X159785714Y-30452380D02*
X159785714Y-29452380D01*
X160166666Y-29452380D01*
X160261904Y-29500000D01*
X160309523Y-29547619D01*
X160357142Y-29642857D01*
X160357142Y-29785714D01*
X160309523Y-29880952D01*
X160261904Y-29928571D01*
X160166666Y-29976190D01*
X159785714Y-29976190D01*
X160690476Y-29452380D02*
X161309523Y-29452380D01*
X160976190Y-29833333D01*
X161119047Y-29833333D01*
X161214285Y-29880952D01*
X161261904Y-29928571D01*
X161309523Y-30023809D01*
X161309523Y-30261904D01*
X161261904Y-30357142D01*
X161214285Y-30404761D01*
X161119047Y-30452380D01*
X160833333Y-30452380D01*
X160738095Y-30404761D01*
X160690476Y-30357142D01*
X162214285Y-29452380D02*
X161738095Y-29452380D01*
X161690476Y-29928571D01*
X161738095Y-29880952D01*
X161833333Y-29833333D01*
X162071428Y-29833333D01*
X162166666Y-29880952D01*
X162214285Y-29928571D01*
X162261904Y-30023809D01*
X162261904Y-30261904D01*
X162214285Y-30357142D01*
X162166666Y-30404761D01*
X162071428Y-30452380D01*
X161833333Y-30452380D01*
X161738095Y-30404761D01*
X161690476Y-30357142D01*
%TO.C,R26*%
X163332380Y-45180357D02*
X162856190Y-45513690D01*
X163332380Y-45751785D02*
X162332380Y-45751785D01*
X162332380Y-45370833D01*
X162380000Y-45275595D01*
X162427619Y-45227976D01*
X162522857Y-45180357D01*
X162665714Y-45180357D01*
X162760952Y-45227976D01*
X162808571Y-45275595D01*
X162856190Y-45370833D01*
X162856190Y-45751785D01*
X162427619Y-44799404D02*
X162380000Y-44751785D01*
X162332380Y-44656547D01*
X162332380Y-44418452D01*
X162380000Y-44323214D01*
X162427619Y-44275595D01*
X162522857Y-44227976D01*
X162618095Y-44227976D01*
X162760952Y-44275595D01*
X163332380Y-44847023D01*
X163332380Y-44227976D01*
X162332380Y-43370833D02*
X162332380Y-43561309D01*
X162380000Y-43656547D01*
X162427619Y-43704166D01*
X162570476Y-43799404D01*
X162760952Y-43847023D01*
X163141904Y-43847023D01*
X163237142Y-43799404D01*
X163284761Y-43751785D01*
X163332380Y-43656547D01*
X163332380Y-43466071D01*
X163284761Y-43370833D01*
X163237142Y-43323214D01*
X163141904Y-43275595D01*
X162903809Y-43275595D01*
X162808571Y-43323214D01*
X162760952Y-43370833D01*
X162713333Y-43466071D01*
X162713333Y-43656547D01*
X162760952Y-43751785D01*
X162808571Y-43799404D01*
X162903809Y-43847023D01*
%TO.C,R28*%
X178332380Y-45075357D02*
X177856190Y-45408690D01*
X178332380Y-45646785D02*
X177332380Y-45646785D01*
X177332380Y-45265833D01*
X177380000Y-45170595D01*
X177427619Y-45122976D01*
X177522857Y-45075357D01*
X177665714Y-45075357D01*
X177760952Y-45122976D01*
X177808571Y-45170595D01*
X177856190Y-45265833D01*
X177856190Y-45646785D01*
X177427619Y-44694404D02*
X177380000Y-44646785D01*
X177332380Y-44551547D01*
X177332380Y-44313452D01*
X177380000Y-44218214D01*
X177427619Y-44170595D01*
X177522857Y-44122976D01*
X177618095Y-44122976D01*
X177760952Y-44170595D01*
X178332380Y-44742023D01*
X178332380Y-44122976D01*
X177760952Y-43551547D02*
X177713333Y-43646785D01*
X177665714Y-43694404D01*
X177570476Y-43742023D01*
X177522857Y-43742023D01*
X177427619Y-43694404D01*
X177380000Y-43646785D01*
X177332380Y-43551547D01*
X177332380Y-43361071D01*
X177380000Y-43265833D01*
X177427619Y-43218214D01*
X177522857Y-43170595D01*
X177570476Y-43170595D01*
X177665714Y-43218214D01*
X177713333Y-43265833D01*
X177760952Y-43361071D01*
X177760952Y-43551547D01*
X177808571Y-43646785D01*
X177856190Y-43694404D01*
X177951428Y-43742023D01*
X178141904Y-43742023D01*
X178237142Y-43694404D01*
X178284761Y-43646785D01*
X178332380Y-43551547D01*
X178332380Y-43361071D01*
X178284761Y-43265833D01*
X178237142Y-43218214D01*
X178141904Y-43170595D01*
X177951428Y-43170595D01*
X177856190Y-43218214D01*
X177808571Y-43265833D01*
X177760952Y-43361071D01*
%TO.C,R16*%
X143357142Y-34522380D02*
X143023809Y-34046190D01*
X142785714Y-34522380D02*
X142785714Y-33522380D01*
X143166666Y-33522380D01*
X143261904Y-33570000D01*
X143309523Y-33617619D01*
X143357142Y-33712857D01*
X143357142Y-33855714D01*
X143309523Y-33950952D01*
X143261904Y-33998571D01*
X143166666Y-34046190D01*
X142785714Y-34046190D01*
X144309523Y-34522380D02*
X143738095Y-34522380D01*
X144023809Y-34522380D02*
X144023809Y-33522380D01*
X143928571Y-33665238D01*
X143833333Y-33760476D01*
X143738095Y-33808095D01*
X145166666Y-33522380D02*
X144976190Y-33522380D01*
X144880952Y-33570000D01*
X144833333Y-33617619D01*
X144738095Y-33760476D01*
X144690476Y-33950952D01*
X144690476Y-34331904D01*
X144738095Y-34427142D01*
X144785714Y-34474761D01*
X144880952Y-34522380D01*
X145071428Y-34522380D01*
X145166666Y-34474761D01*
X145214285Y-34427142D01*
X145261904Y-34331904D01*
X145261904Y-34093809D01*
X145214285Y-33998571D01*
X145166666Y-33950952D01*
X145071428Y-33903333D01*
X144880952Y-33903333D01*
X144785714Y-33950952D01*
X144738095Y-33998571D01*
X144690476Y-34093809D01*
%TO.C,C8*%
X137833333Y-28857142D02*
X137785714Y-28904761D01*
X137642857Y-28952380D01*
X137547619Y-28952380D01*
X137404761Y-28904761D01*
X137309523Y-28809523D01*
X137261904Y-28714285D01*
X137214285Y-28523809D01*
X137214285Y-28380952D01*
X137261904Y-28190476D01*
X137309523Y-28095238D01*
X137404761Y-28000000D01*
X137547619Y-27952380D01*
X137642857Y-27952380D01*
X137785714Y-28000000D01*
X137833333Y-28047619D01*
X138404761Y-28380952D02*
X138309523Y-28333333D01*
X138261904Y-28285714D01*
X138214285Y-28190476D01*
X138214285Y-28142857D01*
X138261904Y-28047619D01*
X138309523Y-28000000D01*
X138404761Y-27952380D01*
X138595238Y-27952380D01*
X138690476Y-28000000D01*
X138738095Y-28047619D01*
X138785714Y-28142857D01*
X138785714Y-28190476D01*
X138738095Y-28285714D01*
X138690476Y-28333333D01*
X138595238Y-28380952D01*
X138404761Y-28380952D01*
X138309523Y-28428571D01*
X138261904Y-28476190D01*
X138214285Y-28571428D01*
X138214285Y-28761904D01*
X138261904Y-28857142D01*
X138309523Y-28904761D01*
X138404761Y-28952380D01*
X138595238Y-28952380D01*
X138690476Y-28904761D01*
X138738095Y-28857142D01*
X138785714Y-28761904D01*
X138785714Y-28571428D01*
X138738095Y-28476190D01*
X138690476Y-28428571D01*
X138595238Y-28380952D01*
%TO.C,R8*%
X140333333Y-37452380D02*
X140000000Y-36976190D01*
X139761904Y-37452380D02*
X139761904Y-36452380D01*
X140142857Y-36452380D01*
X140238095Y-36500000D01*
X140285714Y-36547619D01*
X140333333Y-36642857D01*
X140333333Y-36785714D01*
X140285714Y-36880952D01*
X140238095Y-36928571D01*
X140142857Y-36976190D01*
X139761904Y-36976190D01*
X140904761Y-36880952D02*
X140809523Y-36833333D01*
X140761904Y-36785714D01*
X140714285Y-36690476D01*
X140714285Y-36642857D01*
X140761904Y-36547619D01*
X140809523Y-36500000D01*
X140904761Y-36452380D01*
X141095238Y-36452380D01*
X141190476Y-36500000D01*
X141238095Y-36547619D01*
X141285714Y-36642857D01*
X141285714Y-36690476D01*
X141238095Y-36785714D01*
X141190476Y-36833333D01*
X141095238Y-36880952D01*
X140904761Y-36880952D01*
X140809523Y-36928571D01*
X140761904Y-36976190D01*
X140714285Y-37071428D01*
X140714285Y-37261904D01*
X140761904Y-37357142D01*
X140809523Y-37404761D01*
X140904761Y-37452380D01*
X141095238Y-37452380D01*
X141190476Y-37404761D01*
X141238095Y-37357142D01*
X141285714Y-37261904D01*
X141285714Y-37071428D01*
X141238095Y-36976190D01*
X141190476Y-36928571D01*
X141095238Y-36880952D01*
%TO.C,R5*%
X133332380Y-44666666D02*
X132856190Y-45000000D01*
X133332380Y-45238095D02*
X132332380Y-45238095D01*
X132332380Y-44857142D01*
X132380000Y-44761904D01*
X132427619Y-44714285D01*
X132522857Y-44666666D01*
X132665714Y-44666666D01*
X132760952Y-44714285D01*
X132808571Y-44761904D01*
X132856190Y-44857142D01*
X132856190Y-45238095D01*
X132332380Y-43761904D02*
X132332380Y-44238095D01*
X132808571Y-44285714D01*
X132760952Y-44238095D01*
X132713333Y-44142857D01*
X132713333Y-43904761D01*
X132760952Y-43809523D01*
X132808571Y-43761904D01*
X132903809Y-43714285D01*
X133141904Y-43714285D01*
X133237142Y-43761904D01*
X133284761Y-43809523D01*
X133332380Y-43904761D01*
X133332380Y-44142857D01*
X133284761Y-44238095D01*
X133237142Y-44285714D01*
%TO.C,JP7*%
X160166666Y-27452380D02*
X160166666Y-28166666D01*
X160119047Y-28309523D01*
X160023809Y-28404761D01*
X159880952Y-28452380D01*
X159785714Y-28452380D01*
X160642857Y-28452380D02*
X160642857Y-27452380D01*
X161023809Y-27452380D01*
X161119047Y-27500000D01*
X161166666Y-27547619D01*
X161214285Y-27642857D01*
X161214285Y-27785714D01*
X161166666Y-27880952D01*
X161119047Y-27928571D01*
X161023809Y-27976190D01*
X160642857Y-27976190D01*
X161547619Y-27452380D02*
X162214285Y-27452380D01*
X161785714Y-28452380D01*
%TO.C,TP3*%
X133804380Y-26761904D02*
X133804380Y-26190476D01*
X134804380Y-26476190D02*
X133804380Y-26476190D01*
X134804380Y-25857142D02*
X133804380Y-25857142D01*
X133804380Y-25476190D01*
X133852000Y-25380952D01*
X133899619Y-25333333D01*
X133994857Y-25285714D01*
X134137714Y-25285714D01*
X134232952Y-25333333D01*
X134280571Y-25380952D01*
X134328190Y-25476190D01*
X134328190Y-25857142D01*
X133804380Y-24952380D02*
X133804380Y-24333333D01*
X134185333Y-24666666D01*
X134185333Y-24523809D01*
X134232952Y-24428571D01*
X134280571Y-24380952D01*
X134375809Y-24333333D01*
X134613904Y-24333333D01*
X134709142Y-24380952D01*
X134756761Y-24428571D01*
X134804380Y-24523809D01*
X134804380Y-24809523D01*
X134756761Y-24904761D01*
X134709142Y-24952380D01*
%TO.C,TP2*%
X132804380Y-59761904D02*
X132804380Y-59190476D01*
X133804380Y-59476190D02*
X132804380Y-59476190D01*
X133804380Y-58857142D02*
X132804380Y-58857142D01*
X132804380Y-58476190D01*
X132852000Y-58380952D01*
X132899619Y-58333333D01*
X132994857Y-58285714D01*
X133137714Y-58285714D01*
X133232952Y-58333333D01*
X133280571Y-58380952D01*
X133328190Y-58476190D01*
X133328190Y-58857142D01*
X132899619Y-57904761D02*
X132852000Y-57857142D01*
X132804380Y-57761904D01*
X132804380Y-57523809D01*
X132852000Y-57428571D01*
X132899619Y-57380952D01*
X132994857Y-57333333D01*
X133090095Y-57333333D01*
X133232952Y-57380952D01*
X133804380Y-57952380D01*
X133804380Y-57333333D01*
%TO.C,C2*%
X134333333Y-35857142D02*
X134285714Y-35904761D01*
X134142857Y-35952380D01*
X134047619Y-35952380D01*
X133904761Y-35904761D01*
X133809523Y-35809523D01*
X133761904Y-35714285D01*
X133714285Y-35523809D01*
X133714285Y-35380952D01*
X133761904Y-35190476D01*
X133809523Y-35095238D01*
X133904761Y-35000000D01*
X134047619Y-34952380D01*
X134142857Y-34952380D01*
X134285714Y-35000000D01*
X134333333Y-35047619D01*
X134714285Y-35047619D02*
X134761904Y-35000000D01*
X134857142Y-34952380D01*
X135095238Y-34952380D01*
X135190476Y-35000000D01*
X135238095Y-35047619D01*
X135285714Y-35142857D01*
X135285714Y-35238095D01*
X135238095Y-35380952D01*
X134666666Y-35952380D01*
X135285714Y-35952380D01*
%TO.C,R36*%
X177357142Y-31452380D02*
X177023809Y-30976190D01*
X176785714Y-31452380D02*
X176785714Y-30452380D01*
X177166666Y-30452380D01*
X177261904Y-30500000D01*
X177309523Y-30547619D01*
X177357142Y-30642857D01*
X177357142Y-30785714D01*
X177309523Y-30880952D01*
X177261904Y-30928571D01*
X177166666Y-30976190D01*
X176785714Y-30976190D01*
X177690476Y-30452380D02*
X178309523Y-30452380D01*
X177976190Y-30833333D01*
X178119047Y-30833333D01*
X178214285Y-30880952D01*
X178261904Y-30928571D01*
X178309523Y-31023809D01*
X178309523Y-31261904D01*
X178261904Y-31357142D01*
X178214285Y-31404761D01*
X178119047Y-31452380D01*
X177833333Y-31452380D01*
X177738095Y-31404761D01*
X177690476Y-31357142D01*
X179166666Y-30452380D02*
X178976190Y-30452380D01*
X178880952Y-30500000D01*
X178833333Y-30547619D01*
X178738095Y-30690476D01*
X178690476Y-30880952D01*
X178690476Y-31261904D01*
X178738095Y-31357142D01*
X178785714Y-31404761D01*
X178880952Y-31452380D01*
X179071428Y-31452380D01*
X179166666Y-31404761D01*
X179214285Y-31357142D01*
X179261904Y-31261904D01*
X179261904Y-31023809D01*
X179214285Y-30928571D01*
X179166666Y-30880952D01*
X179071428Y-30833333D01*
X178880952Y-30833333D01*
X178785714Y-30880952D01*
X178738095Y-30928571D01*
X178690476Y-31023809D01*
D13*
%TO.C,R42*%
X152027064Y-27035000D02*
X151572936Y-27035000D01*
X152027064Y-25565000D02*
X151572936Y-25565000D01*
%TO.C,R41*%
X151572936Y-23565000D02*
X152027064Y-23565000D01*
X151572936Y-25035000D02*
X152027064Y-25035000D01*
%TO.C,JP9*%
X159900000Y-31900000D02*
X159900000Y-31300000D01*
X159350000Y-32950000D02*
X157400000Y-32950000D01*
X157400000Y-32950000D02*
X157400000Y-27450000D01*
X159600000Y-31600000D02*
X159900000Y-31900000D01*
X159900000Y-31300000D02*
X159600000Y-31600000D01*
X157400000Y-27450000D02*
X159350000Y-27450000D01*
X159350000Y-27450000D02*
X159350000Y-32950000D01*
%TO.C,R32*%
X174262742Y-34977500D02*
X174737258Y-34977500D01*
X174262742Y-36022500D02*
X174737258Y-36022500D01*
%TO.C,C6*%
X140140580Y-22990000D02*
X139859420Y-22990000D01*
X140140580Y-24010000D02*
X139859420Y-24010000D01*
%TO.C,TP11*%
X171550000Y-57050000D02*
X174450000Y-57050000D01*
X171550000Y-59950000D02*
X171550000Y-57050000D01*
X174450000Y-59950000D02*
X171550000Y-59950000D01*
X174450000Y-57050000D02*
X174450000Y-59950000D01*
%TO.C,J5*%
X171115000Y-17670000D02*
X171115000Y-20330000D01*
X176255000Y-17670000D02*
X171115000Y-17670000D01*
X176255000Y-20330000D02*
X171115000Y-20330000D01*
X178855000Y-17670000D02*
X178855000Y-19000000D01*
X176255000Y-17670000D02*
X176255000Y-20330000D01*
X177525000Y-17670000D02*
X178855000Y-17670000D01*
%TO.C,JP3*%
X145400000Y-38500000D02*
X142600000Y-38500000D01*
X145400000Y-36500000D02*
X145400000Y-38500000D01*
X142600000Y-36500000D02*
X145400000Y-36500000D01*
X142600000Y-38500000D02*
X142600000Y-36500000D01*
%TO.C,TP13*%
X168950000Y-27450000D02*
X166050000Y-27450000D01*
X166050000Y-24550000D02*
X168950000Y-24550000D01*
X166050000Y-27450000D02*
X166050000Y-24550000D01*
X168950000Y-24550000D02*
X168950000Y-27450000D01*
%TO.C,TP4*%
X144450000Y-59950000D02*
X141550000Y-59950000D01*
X144450000Y-57050000D02*
X144450000Y-59950000D01*
X141550000Y-57050000D02*
X144450000Y-57050000D01*
X141550000Y-59950000D02*
X141550000Y-57050000D01*
%TO.C,TP9*%
X159450000Y-57050000D02*
X159450000Y-59950000D01*
X156550000Y-57050000D02*
X159450000Y-57050000D01*
X156550000Y-59950000D02*
X156550000Y-57050000D01*
X159450000Y-59950000D02*
X156550000Y-59950000D01*
%TO.C,C10*%
X169010000Y-22359420D02*
X169010000Y-22640580D01*
X167990000Y-22359420D02*
X167990000Y-22640580D01*
%TO.C,R2*%
X144710000Y-54677064D02*
X144710000Y-50322936D01*
X141290000Y-54677064D02*
X141290000Y-50322936D01*
%TO.C,J1*%
X139730000Y-17670000D02*
X134590000Y-17670000D01*
X139730000Y-20330000D02*
X134590000Y-20330000D01*
X134590000Y-17670000D02*
X134590000Y-20330000D01*
X142330000Y-17670000D02*
X142330000Y-19000000D01*
X141000000Y-17670000D02*
X142330000Y-17670000D01*
X139730000Y-17670000D02*
X139730000Y-20330000D01*
%TO.C,J3*%
X148755000Y-17670000D02*
X143615000Y-17670000D01*
X148755000Y-17670000D02*
X148755000Y-20330000D01*
X151355000Y-17670000D02*
X151355000Y-19000000D01*
X148755000Y-20330000D02*
X143615000Y-20330000D01*
X143615000Y-17670000D02*
X143615000Y-20330000D01*
X150025000Y-17670000D02*
X151355000Y-17670000D01*
%TO.C,R3*%
X126290000Y-54677064D02*
X126290000Y-50322936D01*
X129710000Y-54677064D02*
X129710000Y-50322936D01*
%TO.C,R17*%
X144262742Y-33022500D02*
X144737258Y-33022500D01*
X144262742Y-31977500D02*
X144737258Y-31977500D01*
%TO.C,R30*%
X170262742Y-34977500D02*
X170737258Y-34977500D01*
X170262742Y-36022500D02*
X170737258Y-36022500D01*
%TO.C,R18*%
X144737258Y-31522500D02*
X144262742Y-31522500D01*
X144737258Y-30477500D02*
X144262742Y-30477500D01*
%TO.C,R9*%
X133262742Y-30522500D02*
X133737258Y-30522500D01*
X133262742Y-29477500D02*
X133737258Y-29477500D01*
%TO.C,JP1*%
X136100000Y-38500000D02*
X136100000Y-36500000D01*
X138900000Y-38500000D02*
X136100000Y-38500000D01*
X138900000Y-36500000D02*
X138900000Y-38500000D01*
X136100000Y-36500000D02*
X138900000Y-36500000D01*
%TO.C,JP4*%
X145900000Y-30000000D02*
X143100000Y-30000000D01*
X143100000Y-28000000D02*
X145900000Y-28000000D01*
X145900000Y-28000000D02*
X145900000Y-30000000D01*
X143100000Y-30000000D02*
X143100000Y-28000000D01*
%TO.C,R29*%
X167262742Y-38977500D02*
X167737258Y-38977500D01*
X167262742Y-40022500D02*
X167737258Y-40022500D01*
%TO.C,R31*%
X174587742Y-40022500D02*
X175062258Y-40022500D01*
X174587742Y-38977500D02*
X175062258Y-38977500D01*
%TO.C,JP5*%
X167375000Y-38500000D02*
X167375000Y-36500000D01*
X170175000Y-36500000D02*
X170175000Y-38500000D01*
X167375000Y-36500000D02*
X170175000Y-36500000D01*
X170175000Y-38500000D02*
X167375000Y-38500000D01*
%TO.C,R7*%
X133737258Y-30977500D02*
X133262742Y-30977500D01*
X133737258Y-32022500D02*
X133262742Y-32022500D01*
%TO.C,R13*%
X141290000Y-46767064D02*
X141290000Y-42412936D01*
X144710000Y-46767064D02*
X144710000Y-42412936D01*
%TO.C,FB1*%
X125265000Y-27772936D02*
X125265000Y-28227064D01*
X126735000Y-27772936D02*
X126735000Y-28227064D01*
%TO.C,R27*%
X174710000Y-46677064D02*
X174710000Y-42322936D01*
X171290000Y-46677064D02*
X171290000Y-42322936D01*
%TO.C,R38*%
X176022500Y-22737258D02*
X176022500Y-22262742D01*
X174977500Y-22737258D02*
X174977500Y-22262742D01*
%TO.C,J4*%
X169830000Y-17670000D02*
X169830000Y-19000000D01*
X162090000Y-17670000D02*
X162090000Y-20330000D01*
X167230000Y-17670000D02*
X167230000Y-20330000D01*
X167230000Y-17670000D02*
X162090000Y-17670000D01*
X167230000Y-20330000D02*
X162090000Y-20330000D01*
X168500000Y-17670000D02*
X169830000Y-17670000D01*
D14*
%TO.C,J2*%
X124030000Y-18130000D02*
X124030000Y-16900000D01*
X132970000Y-22310000D02*
X132970000Y-20870000D01*
X124030000Y-16900000D02*
X132970000Y-16900000D01*
X124030000Y-22310000D02*
X124030000Y-20870000D01*
X132970000Y-16900000D02*
X132970000Y-18130000D01*
D10*
X132000000Y-25900000D02*
G75*
G03*
X132000000Y-25900000I-100000J0D01*
G01*
D13*
%TO.C,U1*%
X139000000Y-29440000D02*
X135550000Y-29440000D01*
X139000000Y-29440000D02*
X140950000Y-29440000D01*
X139000000Y-34560000D02*
X140950000Y-34560000D01*
X139000000Y-34560000D02*
X137050000Y-34560000D01*
%TO.C,R4*%
X133790000Y-54677064D02*
X133790000Y-50322936D01*
X137210000Y-54677064D02*
X137210000Y-50322936D01*
%TO.C,TP10*%
X166950000Y-57050000D02*
X166950000Y-59950000D01*
X164050000Y-59950000D02*
X164050000Y-57050000D01*
X166950000Y-59950000D02*
X164050000Y-59950000D01*
X164050000Y-57050000D02*
X166950000Y-57050000D01*
%TO.C,R15*%
X143762742Y-40022500D02*
X144237258Y-40022500D01*
X143762742Y-38977500D02*
X144237258Y-38977500D01*
%TO.C,R19*%
X145022500Y-22737258D02*
X145022500Y-22262742D01*
X143977500Y-22737258D02*
X143977500Y-22262742D01*
%TO.C,R23*%
X171290000Y-54677064D02*
X171290000Y-50322936D01*
X174710000Y-54677064D02*
X174710000Y-50322936D01*
%TO.C,JP8*%
X173600000Y-30000000D02*
X173600000Y-28000000D01*
X176400000Y-30000000D02*
X173600000Y-30000000D01*
X176400000Y-28000000D02*
X176400000Y-30000000D01*
X173600000Y-28000000D02*
X176400000Y-28000000D01*
%TO.C,R25*%
X159710000Y-46677064D02*
X159710000Y-42322936D01*
X156290000Y-46677064D02*
X156290000Y-42322936D01*
%TO.C,R11*%
X139762742Y-21477500D02*
X140237258Y-21477500D01*
X139762742Y-22522500D02*
X140237258Y-22522500D01*
%TO.C,TP1*%
X129450000Y-59950000D02*
X126550000Y-59950000D01*
X126550000Y-59950000D02*
X126550000Y-57050000D01*
X126550000Y-57050000D02*
X129450000Y-57050000D01*
X129450000Y-57050000D02*
X129450000Y-59950000D01*
%TO.C,C9*%
X148640580Y-24010000D02*
X148359420Y-24010000D01*
X148640580Y-22990000D02*
X148359420Y-22990000D01*
%TO.C,R37*%
X167522500Y-22737258D02*
X167522500Y-22262742D01*
X166477500Y-22737258D02*
X166477500Y-22262742D01*
%TO.C,R10*%
X135977500Y-22737258D02*
X135977500Y-22262742D01*
X137022500Y-22737258D02*
X137022500Y-22262742D01*
%TO.C,TP8*%
X155900000Y-17550000D02*
X155900000Y-20450000D01*
X153000000Y-17550000D02*
X155900000Y-17550000D01*
X153000000Y-20450000D02*
X153000000Y-17550000D01*
X155900000Y-20450000D02*
X153000000Y-20450000D01*
%TO.C,C5*%
X167640580Y-36010000D02*
X167359420Y-36010000D01*
X167640580Y-34990000D02*
X167359420Y-34990000D01*
%TO.C,R40*%
X179022500Y-22737258D02*
X179022500Y-22262742D01*
X177977500Y-22737258D02*
X177977500Y-22262742D01*
%TO.C,R6*%
X136262742Y-40022500D02*
X136737258Y-40022500D01*
X136262742Y-38977500D02*
X136737258Y-38977500D01*
%TO.C,R24*%
X182210000Y-54639564D02*
X182210000Y-50285436D01*
X178790000Y-54639564D02*
X178790000Y-50285436D01*
%TO.C,R39*%
X170522500Y-22737258D02*
X170522500Y-22262742D01*
X169477500Y-22737258D02*
X169477500Y-22262742D01*
%TO.C,R22*%
X163790000Y-54714564D02*
X163790000Y-50360436D01*
X167210000Y-54714564D02*
X167210000Y-50360436D01*
%TO.C,TP6*%
X145950000Y-27450000D02*
X143050000Y-27450000D01*
X145950000Y-24550000D02*
X145950000Y-27450000D01*
X143050000Y-24550000D02*
X145950000Y-24550000D01*
X143050000Y-27450000D02*
X143050000Y-24550000D01*
%TO.C,R34*%
X174762742Y-31977500D02*
X175237258Y-31977500D01*
X174762742Y-33022500D02*
X175237258Y-33022500D01*
%TO.C,R33*%
X164237258Y-30977500D02*
X163762742Y-30977500D01*
X164237258Y-32022500D02*
X163762742Y-32022500D01*
%TO.C,R14*%
X152210000Y-46677064D02*
X152210000Y-42322936D01*
X148790000Y-46677064D02*
X148790000Y-42322936D01*
%TO.C,TP14*%
X176450000Y-27450000D02*
X173550000Y-27450000D01*
X176450000Y-24550000D02*
X176450000Y-27450000D01*
X173550000Y-24550000D02*
X176450000Y-24550000D01*
X173550000Y-27450000D02*
X173550000Y-24550000D01*
%TO.C,R1*%
X126290000Y-46677064D02*
X126290000Y-42322936D01*
X129710000Y-46677064D02*
X129710000Y-42322936D01*
%TO.C,C1*%
X158460000Y-35297500D02*
X158460000Y-33427500D01*
X158460000Y-33427500D02*
X154550000Y-33427500D01*
X154550000Y-35297500D02*
X158460000Y-35297500D01*
%TO.C,R20*%
X148262742Y-22522500D02*
X148737258Y-22522500D01*
X148262742Y-21477500D02*
X148737258Y-21477500D01*
%TO.C,C7*%
X171140580Y-27990000D02*
X170859420Y-27990000D01*
X171140580Y-29010000D02*
X170859420Y-29010000D01*
%TO.C,C3*%
X150271250Y-28327500D02*
X150271250Y-32237500D01*
X152141250Y-32237500D02*
X152141250Y-28327500D01*
X152141250Y-28327500D02*
X150271250Y-28327500D01*
%TO.C,C11*%
X177510000Y-22359420D02*
X177510000Y-22640580D01*
X176490000Y-22359420D02*
X176490000Y-22640580D01*
%TO.C,C4*%
X158460000Y-35927500D02*
X154550000Y-35927500D01*
X154550000Y-37797500D02*
X158460000Y-37797500D01*
X158460000Y-37797500D02*
X158460000Y-35927500D01*
%TO.C,R12*%
X152210000Y-54677064D02*
X152210000Y-50322936D01*
X148790000Y-54677064D02*
X148790000Y-50322936D01*
%TO.C,TP7*%
X156550000Y-17550000D02*
X159450000Y-17550000D01*
X159450000Y-20450000D02*
X156550000Y-20450000D01*
X159450000Y-17550000D02*
X159450000Y-20450000D01*
X156550000Y-20450000D02*
X156550000Y-17550000D01*
%TO.C,U2*%
X169500000Y-29440000D02*
X166050000Y-29440000D01*
X169500000Y-29440000D02*
X171450000Y-29440000D01*
X169500000Y-34560000D02*
X171450000Y-34560000D01*
X169500000Y-34560000D02*
X167550000Y-34560000D01*
%TO.C,TP12*%
X179050000Y-59912500D02*
X179050000Y-57012500D01*
X179050000Y-57012500D02*
X181950000Y-57012500D01*
X181950000Y-57012500D02*
X181950000Y-59912500D01*
X181950000Y-59912500D02*
X179050000Y-59912500D01*
%TO.C,R21*%
X156290000Y-54714564D02*
X156290000Y-50360436D01*
X159710000Y-54714564D02*
X159710000Y-50360436D01*
%TO.C,JP6*%
X173325000Y-38500000D02*
X173325000Y-36500000D01*
X176125000Y-36500000D02*
X176125000Y-38500000D01*
X173325000Y-36500000D02*
X176125000Y-36500000D01*
X176125000Y-38500000D02*
X173325000Y-38500000D01*
%TO.C,TP5*%
X149050000Y-59950000D02*
X149050000Y-57050000D01*
X151950000Y-57050000D02*
X151950000Y-59950000D01*
X151950000Y-59950000D02*
X149050000Y-59950000D01*
X149050000Y-57050000D02*
X151950000Y-57050000D01*
%TO.C,JP2*%
X131600000Y-27000000D02*
X134400000Y-27000000D01*
X131600000Y-29000000D02*
X131600000Y-27000000D01*
X134400000Y-29000000D02*
X131600000Y-29000000D01*
X134400000Y-27000000D02*
X134400000Y-29000000D01*
%TO.C,U3*%
X152646250Y-31137500D02*
X152646250Y-30487500D01*
X152646250Y-31137500D02*
X152646250Y-32812500D01*
X155766250Y-31137500D02*
X155766250Y-31787500D01*
X155766250Y-31137500D02*
X155766250Y-30487500D01*
%TO.C,R35*%
X163762742Y-30522500D02*
X164237258Y-30522500D01*
X163762742Y-29477500D02*
X164237258Y-29477500D01*
%TO.C,R26*%
X163790000Y-46714564D02*
X163790000Y-42360436D01*
X167210000Y-46714564D02*
X167210000Y-42360436D01*
%TO.C,R28*%
X182210000Y-46609564D02*
X182210000Y-42255436D01*
X178790000Y-46609564D02*
X178790000Y-42255436D01*
%TO.C,R16*%
X143762742Y-36022500D02*
X144237258Y-36022500D01*
X143762742Y-34977500D02*
X144237258Y-34977500D01*
%TO.C,C8*%
X140640580Y-27990000D02*
X140359420Y-27990000D01*
X140640580Y-29010000D02*
X140359420Y-29010000D01*
%TO.C,R8*%
X139762742Y-36022500D02*
X140237258Y-36022500D01*
X139762742Y-34977500D02*
X140237258Y-34977500D01*
%TO.C,R5*%
X137210000Y-46677064D02*
X137210000Y-42322936D01*
X133790000Y-46677064D02*
X133790000Y-42322936D01*
%TO.C,JP7*%
X165400000Y-27000000D02*
X165400000Y-29000000D01*
X162600000Y-27000000D02*
X165400000Y-27000000D01*
X162600000Y-29000000D02*
X162600000Y-27000000D01*
X165400000Y-29000000D02*
X162600000Y-29000000D01*
%TO.C,TP3*%
X137950000Y-24550000D02*
X137950000Y-27450000D01*
X135050000Y-24550000D02*
X137950000Y-24550000D01*
X137950000Y-27450000D02*
X135050000Y-27450000D01*
X135050000Y-27450000D02*
X135050000Y-24550000D01*
%TO.C,TP2*%
X136950000Y-57050000D02*
X136950000Y-59950000D01*
X136950000Y-59950000D02*
X134050000Y-59950000D01*
X134050000Y-59950000D02*
X134050000Y-57050000D01*
X134050000Y-57050000D02*
X136950000Y-57050000D01*
%TO.C,C2*%
X137140580Y-36010000D02*
X136859420Y-36010000D01*
X137140580Y-34990000D02*
X136859420Y-34990000D01*
%TO.C,R36*%
X175237258Y-30477500D02*
X174762742Y-30477500D01*
X175237258Y-31522500D02*
X174762742Y-31522500D01*
%TD*%
M02*
