%TF.GenerationSoftware,KiCad,Pcbnew,(6.0.4)*%
%TF.CreationDate,2023-01-21T01:53:35+00:00*%
%TF.ProjectId,Diff_probe,44696666-5f70-4726-9f62-652e6b696361,rev?*%
%TF.SameCoordinates,Original*%
%TF.FileFunction,Copper,L4,Bot*%
%TF.FilePolarity,Positive*%
%FSLAX46Y46*%
G04 Gerber Fmt 4.6, Leading zero omitted, Abs format (unit mm)*
G04 Created by KiCad (PCBNEW (6.0.4)) date 2023-01-21 01:53:35*
%MOMM*%
%LPD*%
G01*
G04 APERTURE LIST*
%TA.AperFunction,ComponentPad*%
%ADD10R,2.500000X2.500000*%
%TD*%
%TA.AperFunction,ComponentPad*%
%ADD11R,1.700000X1.700000*%
%TD*%
%TA.AperFunction,ComponentPad*%
%ADD12O,1.700000X1.700000*%
%TD*%
%TA.AperFunction,ComponentPad*%
%ADD13O,1.050000X2.100000*%
%TD*%
%TA.AperFunction,ViaPad*%
%ADD14C,0.800000*%
%TD*%
G04 APERTURE END LIST*
D10*
%TO.P,TP11,1,1*%
%TO.N,Net-(R23-Pad1)*%
X173000000Y-58500000D03*
%TD*%
D11*
%TO.P,J5,1,Pin_1*%
%TO.N,GND*%
X177525000Y-19000000D03*
D12*
%TO.P,J5,2,Pin_2*%
%TO.N,Output4*%
X174985000Y-19000000D03*
%TO.P,J5,3,Pin_3*%
%TO.N,+5V*%
X172445000Y-19000000D03*
%TD*%
D10*
%TO.P,TP13,1,1*%
%TO.N,Net-(JP7-Pad2)*%
X167500000Y-26000000D03*
%TD*%
%TO.P,TP4,1,1*%
%TO.N,Net-(R2-Pad1)*%
X143000000Y-58500000D03*
%TD*%
%TO.P,TP9,1,1*%
%TO.N,Net-(R21-Pad1)*%
X158000000Y-58500000D03*
%TD*%
D11*
%TO.P,J1,1,Pin_1*%
%TO.N,GND*%
X141000000Y-19000000D03*
D12*
%TO.P,J1,2,Pin_2*%
%TO.N,Output1*%
X138460000Y-19000000D03*
%TO.P,J1,3,Pin_3*%
%TO.N,+5V*%
X135920000Y-19000000D03*
%TD*%
D11*
%TO.P,J3,1,Pin_1*%
%TO.N,GND*%
X150025000Y-19000000D03*
D12*
%TO.P,J3,2,Pin_2*%
%TO.N,Output2*%
X147485000Y-19000000D03*
%TO.P,J3,3,Pin_3*%
%TO.N,+5V*%
X144945000Y-19000000D03*
%TD*%
D11*
%TO.P,J4,1,Pin_1*%
%TO.N,GND*%
X168500000Y-19000000D03*
D12*
%TO.P,J4,2,Pin_2*%
%TO.N,Output3*%
X165960000Y-19000000D03*
%TO.P,J4,3,Pin_3*%
%TO.N,+5V*%
X163420000Y-19000000D03*
%TD*%
D13*
%TO.P,J2,S1,SHIELD*%
%TO.N,GND*%
X132820000Y-23680000D03*
%TO.P,J2,S2,SHIELD*%
X124180000Y-23680000D03*
%TO.P,J2,S3,SHIELD*%
X132820000Y-19500000D03*
%TO.P,J2,S4,SHIELD*%
X124180000Y-19500000D03*
%TD*%
D10*
%TO.P,TP10,1,1*%
%TO.N,Net-(R22-Pad1)*%
X165500000Y-58500000D03*
%TD*%
%TO.P,TP1,1,1*%
%TO.N,Net-(R3-Pad1)*%
X128000000Y-58500000D03*
%TD*%
%TO.P,TP8,1,1*%
%TO.N,GND*%
X154450000Y-19000000D03*
%TD*%
%TO.P,TP6,1,1*%
%TO.N,Net-(JP4-Pad2)*%
X144500000Y-26000000D03*
%TD*%
%TO.P,TP14,1,1*%
%TO.N,Net-(JP8-Pad2)*%
X175000000Y-26000000D03*
%TD*%
%TO.P,TP7,1,1*%
%TO.N,+5V*%
X158000000Y-19000000D03*
%TD*%
%TO.P,TP12,1,1*%
%TO.N,Net-(R24-Pad1)*%
X180500000Y-58462500D03*
%TD*%
%TO.P,TP5,1,1*%
%TO.N,Net-(R12-Pad1)*%
X150500000Y-58500000D03*
%TD*%
%TO.P,TP3,1,1*%
%TO.N,Net-(JP2-Pad2)*%
X136500000Y-26000000D03*
%TD*%
%TO.P,TP2,1,1*%
%TO.N,Net-(R4-Pad1)*%
X135500000Y-58500000D03*
%TD*%
D14*
%TO.N,GND*%
X151500000Y-26300000D03*
%TO.N,+5V*%
X151525500Y-24800000D03*
%TO.N,+2V5*%
X143275000Y-36725000D03*
X136504845Y-36572675D03*
X157500000Y-34362500D03*
X168050000Y-36450000D03*
X174000000Y-36500000D03*
%TO.N,GND*%
X169275000Y-21725000D03*
X166725000Y-34775000D03*
X177825000Y-21675000D03*
X170225000Y-29275000D03*
X151675000Y-32456250D03*
X139725000Y-29275000D03*
X153256250Y-32075000D03*
X149275000Y-22500000D03*
X136225000Y-34275000D03*
X167927223Y-33481346D03*
%TO.N,+5V*%
X172075000Y-29075000D03*
X141575000Y-29575000D03*
X153081250Y-30200000D03*
X127000000Y-30000000D03*
X151375000Y-29456250D03*
%TD*%
M02*
