M48
; DRILL file {KiCad (6.0.4)} date Sat Jan 21 01:53:39 2023
; FORMAT={-:-/ absolute / metric / decimal}
; #@! TF.CreationDate,2023-01-21T01:53:39+00:00
; #@! TF.GenerationSoftware,Kicad,Pcbnew,(6.0.4)
; #@! TF.FileFunction,Plated,1,4,PTH
FMAT,2
METRIC
; #@! TA.AperFunction,Plated,PTH,ViaDrill
T1C0.400
; #@! TA.AperFunction,Plated,PTH,ComponentDrill
T2C0.650
; #@! TA.AperFunction,Plated,PTH,ComponentDrill
T3C1.000
; #@! TA.AperFunction,Plated,PTH,ComponentDrill
T4C1.200
%
G90
G05
T1
X127.0Y-30.0
X136.225Y-34.275
X136.505Y-36.573
X139.725Y-29.275
X141.575Y-29.575
X143.275Y-36.725
X149.275Y-22.5
X151.375Y-29.456
X151.5Y-26.3
X151.525Y-24.8
X151.675Y-32.456
X153.081Y-30.2
X153.256Y-32.075
X157.5Y-34.362
X166.725Y-34.775
X167.927Y-33.481
X168.05Y-36.45
X169.275Y-21.725
X170.225Y-29.275
X172.075Y-29.075
X174.0Y-36.5
X177.825Y-21.675
T3
X135.92Y-19.0
X138.46Y-19.0
X141.0Y-19.0
X144.945Y-19.0
X147.485Y-19.0
X150.025Y-19.0
X163.42Y-19.0
X165.96Y-19.0
X168.5Y-19.0
X172.445Y-19.0
X174.985Y-19.0
X177.525Y-19.0
T4
X128.0Y-58.5
X135.5Y-58.5
X136.5Y-26.0
X143.0Y-58.5
X144.5Y-26.0
X150.5Y-58.5
X154.45Y-19.0
X158.0Y-19.0
X158.0Y-58.5
X165.5Y-58.5
X167.5Y-26.0
X173.0Y-58.5
X175.0Y-26.0
X180.5Y-58.462
T2
G00X124.18Y-19.8
M15
G01X124.18Y-19.2
M16
G05
G00X124.18Y-24.23
M15
G01X124.18Y-23.13
M16
G05
G00X132.82Y-19.8
M15
G01X132.82Y-19.2
M16
G05
G00X132.82Y-24.23
M15
G01X132.82Y-23.13
M16
G05
T0
M30
