%TF.GenerationSoftware,KiCad,Pcbnew,(6.0.4)*%
%TF.CreationDate,2023-01-21T01:53:35+00:00*%
%TF.ProjectId,Diff_probe,44696666-5f70-4726-9f62-652e6b696361,rev?*%
%TF.SameCoordinates,Original*%
%TF.FileFunction,Copper,L2,Inr*%
%TF.FilePolarity,Positive*%
%FSLAX46Y46*%
G04 Gerber Fmt 4.6, Leading zero omitted, Abs format (unit mm)*
G04 Created by KiCad (PCBNEW (6.0.4)) date 2023-01-21 01:53:35*
%MOMM*%
%LPD*%
G01*
G04 APERTURE LIST*
%TA.AperFunction,ComponentPad*%
%ADD10R,2.500000X2.500000*%
%TD*%
%TA.AperFunction,ComponentPad*%
%ADD11R,1.700000X1.700000*%
%TD*%
%TA.AperFunction,ComponentPad*%
%ADD12O,1.700000X1.700000*%
%TD*%
%TA.AperFunction,ComponentPad*%
%ADD13O,1.050000X2.100000*%
%TD*%
%TA.AperFunction,ViaPad*%
%ADD14C,0.800000*%
%TD*%
G04 APERTURE END LIST*
D10*
%TO.N,Net-(R23-Pad1)*%
%TO.C,TP11*%
X173000000Y-58500000D03*
%TD*%
D11*
%TO.N,GND*%
%TO.C,J5*%
X177525000Y-19000000D03*
D12*
%TO.N,Output4*%
X174985000Y-19000000D03*
%TO.N,+5V*%
X172445000Y-19000000D03*
%TD*%
D10*
%TO.N,Net-(JP7-Pad2)*%
%TO.C,TP13*%
X167500000Y-26000000D03*
%TD*%
%TO.N,Net-(R2-Pad1)*%
%TO.C,TP4*%
X143000000Y-58500000D03*
%TD*%
%TO.N,Net-(R21-Pad1)*%
%TO.C,TP9*%
X158000000Y-58500000D03*
%TD*%
D11*
%TO.N,GND*%
%TO.C,J1*%
X141000000Y-19000000D03*
D12*
%TO.N,Output1*%
X138460000Y-19000000D03*
%TO.N,+5V*%
X135920000Y-19000000D03*
%TD*%
D11*
%TO.N,GND*%
%TO.C,J3*%
X150025000Y-19000000D03*
D12*
%TO.N,Output2*%
X147485000Y-19000000D03*
%TO.N,+5V*%
X144945000Y-19000000D03*
%TD*%
D11*
%TO.N,GND*%
%TO.C,J4*%
X168500000Y-19000000D03*
D12*
%TO.N,Output3*%
X165960000Y-19000000D03*
%TO.N,+5V*%
X163420000Y-19000000D03*
%TD*%
D13*
%TO.N,GND*%
%TO.C,J2*%
X132820000Y-23680000D03*
X124180000Y-23680000D03*
X132820000Y-19500000D03*
X124180000Y-19500000D03*
%TD*%
D10*
%TO.N,Net-(R22-Pad1)*%
%TO.C,TP10*%
X165500000Y-58500000D03*
%TD*%
%TO.N,Net-(R3-Pad1)*%
%TO.C,TP1*%
X128000000Y-58500000D03*
%TD*%
%TO.N,GND*%
%TO.C,TP8*%
X154450000Y-19000000D03*
%TD*%
%TO.N,Net-(JP4-Pad2)*%
%TO.C,TP6*%
X144500000Y-26000000D03*
%TD*%
%TO.N,Net-(JP8-Pad2)*%
%TO.C,TP14*%
X175000000Y-26000000D03*
%TD*%
%TO.N,+5V*%
%TO.C,TP7*%
X158000000Y-19000000D03*
%TD*%
%TO.N,Net-(R24-Pad1)*%
%TO.C,TP12*%
X180500000Y-58462500D03*
%TD*%
%TO.N,Net-(R12-Pad1)*%
%TO.C,TP5*%
X150500000Y-58500000D03*
%TD*%
%TO.N,Net-(JP2-Pad2)*%
%TO.C,TP3*%
X136500000Y-26000000D03*
%TD*%
%TO.N,Net-(R4-Pad1)*%
%TO.C,TP2*%
X135500000Y-58500000D03*
%TD*%
D14*
%TO.N,GND*%
X151500000Y-26300000D03*
%TO.N,+5V*%
X151525500Y-24800000D03*
%TO.N,+2V5*%
X143275000Y-36725000D03*
X136504845Y-36572675D03*
X157500000Y-34362500D03*
X168050000Y-36450000D03*
X174000000Y-36500000D03*
%TO.N,GND*%
X169275000Y-21725000D03*
X166725000Y-34775000D03*
X177825000Y-21675000D03*
X170225000Y-29275000D03*
X151675000Y-32456250D03*
X139725000Y-29275000D03*
X153256250Y-32075000D03*
X149275000Y-22500000D03*
X136225000Y-34275000D03*
X167927223Y-33481346D03*
%TO.N,+5V*%
X172075000Y-29075000D03*
X141575000Y-29575000D03*
X153081250Y-30200000D03*
X127000000Y-30000000D03*
X151375000Y-29456250D03*
%TD*%
%TA.AperFunction,Conductor*%
%TO.N,GND*%
G36*
X135396115Y-17528502D02*
G01*
X135442608Y-17582158D01*
X135452712Y-17652432D01*
X135423218Y-17717012D01*
X135386175Y-17746262D01*
X135193607Y-17846507D01*
X135189474Y-17849610D01*
X135189471Y-17849612D01*
X135019163Y-17977483D01*
X135014965Y-17980635D01*
X134860629Y-18142138D01*
X134734743Y-18326680D01*
X134640688Y-18529305D01*
X134580989Y-18744570D01*
X134557251Y-18966695D01*
X134570110Y-19189715D01*
X134571247Y-19194761D01*
X134571248Y-19194767D01*
X134585606Y-19258475D01*
X134619222Y-19407639D01*
X134703266Y-19614616D01*
X134754942Y-19698944D01*
X134817291Y-19800688D01*
X134819987Y-19805088D01*
X134966250Y-19973938D01*
X135138126Y-20116632D01*
X135331000Y-20229338D01*
X135539692Y-20309030D01*
X135544760Y-20310061D01*
X135544763Y-20310062D01*
X135652017Y-20331883D01*
X135758597Y-20353567D01*
X135763772Y-20353757D01*
X135763774Y-20353757D01*
X135976673Y-20361564D01*
X135976677Y-20361564D01*
X135981837Y-20361753D01*
X135986957Y-20361097D01*
X135986959Y-20361097D01*
X136198288Y-20334025D01*
X136198289Y-20334025D01*
X136203416Y-20333368D01*
X136208366Y-20331883D01*
X136412429Y-20270661D01*
X136412434Y-20270659D01*
X136417384Y-20269174D01*
X136617994Y-20170896D01*
X136799860Y-20041173D01*
X136958096Y-19883489D01*
X137017594Y-19800689D01*
X137088453Y-19702077D01*
X137089776Y-19703028D01*
X137136645Y-19659857D01*
X137206580Y-19647625D01*
X137272026Y-19675144D01*
X137299875Y-19706994D01*
X137359987Y-19805088D01*
X137506250Y-19973938D01*
X137678126Y-20116632D01*
X137871000Y-20229338D01*
X138079692Y-20309030D01*
X138084760Y-20310061D01*
X138084763Y-20310062D01*
X138192017Y-20331883D01*
X138298597Y-20353567D01*
X138303772Y-20353757D01*
X138303774Y-20353757D01*
X138516673Y-20361564D01*
X138516677Y-20361564D01*
X138521837Y-20361753D01*
X138526957Y-20361097D01*
X138526959Y-20361097D01*
X138738288Y-20334025D01*
X138738289Y-20334025D01*
X138743416Y-20333368D01*
X138748366Y-20331883D01*
X138952429Y-20270661D01*
X138952434Y-20270659D01*
X138957384Y-20269174D01*
X139157994Y-20170896D01*
X139339860Y-20041173D01*
X139407331Y-19973938D01*
X139448479Y-19932933D01*
X139510851Y-19899017D01*
X139581658Y-19904205D01*
X139638419Y-19946851D01*
X139655401Y-19977954D01*
X139696676Y-20088054D01*
X139705214Y-20103649D01*
X139781715Y-20205724D01*
X139794276Y-20218285D01*
X139896351Y-20294786D01*
X139911946Y-20303324D01*
X140032394Y-20348478D01*
X140047649Y-20352105D01*
X140098514Y-20357631D01*
X140105328Y-20358000D01*
X140727885Y-20358000D01*
X140743124Y-20353525D01*
X140744329Y-20352135D01*
X140746000Y-20344452D01*
X140746000Y-20339884D01*
X141254000Y-20339884D01*
X141258475Y-20355123D01*
X141259865Y-20356328D01*
X141267548Y-20357999D01*
X141894669Y-20357999D01*
X141901490Y-20357629D01*
X141952352Y-20352105D01*
X141967604Y-20348479D01*
X142088054Y-20303324D01*
X142103649Y-20294786D01*
X142205724Y-20218285D01*
X142218285Y-20205724D01*
X142294786Y-20103649D01*
X142303324Y-20088054D01*
X142348478Y-19967606D01*
X142352105Y-19952351D01*
X142357631Y-19901486D01*
X142358000Y-19894672D01*
X142358000Y-19272115D01*
X142353525Y-19256876D01*
X142352135Y-19255671D01*
X142344452Y-19254000D01*
X141272115Y-19254000D01*
X141256876Y-19258475D01*
X141255671Y-19259865D01*
X141254000Y-19267548D01*
X141254000Y-20339884D01*
X140746000Y-20339884D01*
X140746000Y-18872000D01*
X140766002Y-18803879D01*
X140819658Y-18757386D01*
X140872000Y-18746000D01*
X142339884Y-18746000D01*
X142355123Y-18741525D01*
X142356328Y-18740135D01*
X142357999Y-18732452D01*
X142357999Y-18105331D01*
X142357629Y-18098510D01*
X142352105Y-18047648D01*
X142348479Y-18032396D01*
X142303324Y-17911946D01*
X142294786Y-17896351D01*
X142218285Y-17794276D01*
X142205724Y-17781715D01*
X142143827Y-17735326D01*
X142101312Y-17678467D01*
X142096286Y-17607649D01*
X142130346Y-17545355D01*
X142192677Y-17511365D01*
X142219392Y-17508500D01*
X144352994Y-17508500D01*
X144421115Y-17528502D01*
X144467608Y-17582158D01*
X144477712Y-17652432D01*
X144448218Y-17717012D01*
X144411175Y-17746262D01*
X144218607Y-17846507D01*
X144214474Y-17849610D01*
X144214471Y-17849612D01*
X144044163Y-17977483D01*
X144039965Y-17980635D01*
X143885629Y-18142138D01*
X143759743Y-18326680D01*
X143665688Y-18529305D01*
X143605989Y-18744570D01*
X143582251Y-18966695D01*
X143595110Y-19189715D01*
X143596247Y-19194761D01*
X143596248Y-19194767D01*
X143610606Y-19258475D01*
X143644222Y-19407639D01*
X143728266Y-19614616D01*
X143779942Y-19698944D01*
X143842291Y-19800688D01*
X143844987Y-19805088D01*
X143991250Y-19973938D01*
X144163126Y-20116632D01*
X144356000Y-20229338D01*
X144564692Y-20309030D01*
X144569760Y-20310061D01*
X144569763Y-20310062D01*
X144677017Y-20331883D01*
X144783597Y-20353567D01*
X144788772Y-20353757D01*
X144788774Y-20353757D01*
X145001673Y-20361564D01*
X145001677Y-20361564D01*
X145006837Y-20361753D01*
X145011957Y-20361097D01*
X145011959Y-20361097D01*
X145223288Y-20334025D01*
X145223289Y-20334025D01*
X145228416Y-20333368D01*
X145233366Y-20331883D01*
X145437429Y-20270661D01*
X145437434Y-20270659D01*
X145442384Y-20269174D01*
X145642994Y-20170896D01*
X145824860Y-20041173D01*
X145983096Y-19883489D01*
X146042594Y-19800689D01*
X146113453Y-19702077D01*
X146114776Y-19703028D01*
X146161645Y-19659857D01*
X146231580Y-19647625D01*
X146297026Y-19675144D01*
X146324875Y-19706994D01*
X146384987Y-19805088D01*
X146531250Y-19973938D01*
X146703126Y-20116632D01*
X146896000Y-20229338D01*
X147104692Y-20309030D01*
X147109760Y-20310061D01*
X147109763Y-20310062D01*
X147217017Y-20331883D01*
X147323597Y-20353567D01*
X147328772Y-20353757D01*
X147328774Y-20353757D01*
X147541673Y-20361564D01*
X147541677Y-20361564D01*
X147546837Y-20361753D01*
X147551957Y-20361097D01*
X147551959Y-20361097D01*
X147763288Y-20334025D01*
X147763289Y-20334025D01*
X147768416Y-20333368D01*
X147773366Y-20331883D01*
X147977429Y-20270661D01*
X147977434Y-20270659D01*
X147982384Y-20269174D01*
X148182994Y-20170896D01*
X148364860Y-20041173D01*
X148432331Y-19973938D01*
X148473479Y-19932933D01*
X148535851Y-19899017D01*
X148606658Y-19904205D01*
X148663419Y-19946851D01*
X148680401Y-19977954D01*
X148721676Y-20088054D01*
X148730214Y-20103649D01*
X148806715Y-20205724D01*
X148819276Y-20218285D01*
X148921351Y-20294786D01*
X148936946Y-20303324D01*
X149057394Y-20348478D01*
X149072649Y-20352105D01*
X149123514Y-20357631D01*
X149130328Y-20358000D01*
X149752885Y-20358000D01*
X149768124Y-20353525D01*
X149769329Y-20352135D01*
X149771000Y-20344452D01*
X149771000Y-20339884D01*
X150279000Y-20339884D01*
X150283475Y-20355123D01*
X150284865Y-20356328D01*
X150292548Y-20357999D01*
X150919669Y-20357999D01*
X150926490Y-20357629D01*
X150977352Y-20352105D01*
X150992604Y-20348479D01*
X151113054Y-20303324D01*
X151128649Y-20294786D01*
X151128805Y-20294669D01*
X152692001Y-20294669D01*
X152692371Y-20301490D01*
X152697895Y-20352352D01*
X152701521Y-20367604D01*
X152746676Y-20488054D01*
X152755214Y-20503649D01*
X152831715Y-20605724D01*
X152844276Y-20618285D01*
X152946351Y-20694786D01*
X152961946Y-20703324D01*
X153082394Y-20748478D01*
X153097649Y-20752105D01*
X153148514Y-20757631D01*
X153155328Y-20758000D01*
X154177885Y-20758000D01*
X154193124Y-20753525D01*
X154194329Y-20752135D01*
X154196000Y-20744452D01*
X154196000Y-19272115D01*
X154191525Y-19256876D01*
X154190135Y-19255671D01*
X154182452Y-19254000D01*
X152710116Y-19254000D01*
X152694877Y-19258475D01*
X152693672Y-19259865D01*
X152692001Y-19267548D01*
X152692001Y-20294669D01*
X151128805Y-20294669D01*
X151230724Y-20218285D01*
X151243285Y-20205724D01*
X151319786Y-20103649D01*
X151328324Y-20088054D01*
X151373478Y-19967606D01*
X151377105Y-19952351D01*
X151382631Y-19901486D01*
X151383000Y-19894672D01*
X151383000Y-19272115D01*
X151378525Y-19256876D01*
X151377135Y-19255671D01*
X151369452Y-19254000D01*
X150297115Y-19254000D01*
X150281876Y-19258475D01*
X150280671Y-19259865D01*
X150279000Y-19267548D01*
X150279000Y-20339884D01*
X149771000Y-20339884D01*
X149771000Y-18872000D01*
X149791002Y-18803879D01*
X149844658Y-18757386D01*
X149897000Y-18746000D01*
X151364884Y-18746000D01*
X151380123Y-18741525D01*
X151381328Y-18740135D01*
X151382999Y-18732452D01*
X151382999Y-18105331D01*
X151382629Y-18098510D01*
X151377105Y-18047648D01*
X151373479Y-18032396D01*
X151328324Y-17911946D01*
X151319786Y-17896351D01*
X151243285Y-17794276D01*
X151230724Y-17781715D01*
X151168827Y-17735326D01*
X151126312Y-17678467D01*
X151121286Y-17607649D01*
X151155346Y-17545355D01*
X151217677Y-17511365D01*
X151244392Y-17508500D01*
X152572582Y-17508500D01*
X152640703Y-17528502D01*
X152687196Y-17582158D01*
X152697845Y-17648108D01*
X152692369Y-17698514D01*
X152692000Y-17705328D01*
X152692000Y-18727885D01*
X152696475Y-18743124D01*
X152697865Y-18744329D01*
X152705548Y-18746000D01*
X154578000Y-18746000D01*
X154646121Y-18766002D01*
X154692614Y-18819658D01*
X154704000Y-18872000D01*
X154704000Y-20739884D01*
X154708475Y-20755123D01*
X154709865Y-20756328D01*
X154717548Y-20757999D01*
X155744669Y-20757999D01*
X155751490Y-20757629D01*
X155802352Y-20752105D01*
X155817604Y-20748479D01*
X155938054Y-20703324D01*
X155953649Y-20694786D01*
X156055724Y-20618285D01*
X156068285Y-20605724D01*
X156123862Y-20531568D01*
X156180721Y-20489053D01*
X156251540Y-20484027D01*
X156313833Y-20518087D01*
X156325503Y-20531554D01*
X156386739Y-20613261D01*
X156503295Y-20700615D01*
X156639684Y-20751745D01*
X156701866Y-20758500D01*
X159298134Y-20758500D01*
X159360316Y-20751745D01*
X159496705Y-20700615D01*
X159613261Y-20613261D01*
X159700615Y-20496705D01*
X159751745Y-20360316D01*
X159758500Y-20298134D01*
X159758500Y-17701866D01*
X159752660Y-17648108D01*
X159765188Y-17578225D01*
X159813509Y-17526210D01*
X159877923Y-17508500D01*
X162827994Y-17508500D01*
X162896115Y-17528502D01*
X162942608Y-17582158D01*
X162952712Y-17652432D01*
X162923218Y-17717012D01*
X162886175Y-17746262D01*
X162693607Y-17846507D01*
X162689474Y-17849610D01*
X162689471Y-17849612D01*
X162519163Y-17977483D01*
X162514965Y-17980635D01*
X162360629Y-18142138D01*
X162234743Y-18326680D01*
X162140688Y-18529305D01*
X162080989Y-18744570D01*
X162057251Y-18966695D01*
X162070110Y-19189715D01*
X162071247Y-19194761D01*
X162071248Y-19194767D01*
X162085606Y-19258475D01*
X162119222Y-19407639D01*
X162203266Y-19614616D01*
X162254942Y-19698944D01*
X162317291Y-19800688D01*
X162319987Y-19805088D01*
X162466250Y-19973938D01*
X162638126Y-20116632D01*
X162831000Y-20229338D01*
X163039692Y-20309030D01*
X163044760Y-20310061D01*
X163044763Y-20310062D01*
X163152017Y-20331883D01*
X163258597Y-20353567D01*
X163263772Y-20353757D01*
X163263774Y-20353757D01*
X163476673Y-20361564D01*
X163476677Y-20361564D01*
X163481837Y-20361753D01*
X163486957Y-20361097D01*
X163486959Y-20361097D01*
X163698288Y-20334025D01*
X163698289Y-20334025D01*
X163703416Y-20333368D01*
X163708366Y-20331883D01*
X163912429Y-20270661D01*
X163912434Y-20270659D01*
X163917384Y-20269174D01*
X164117994Y-20170896D01*
X164299860Y-20041173D01*
X164458096Y-19883489D01*
X164517594Y-19800689D01*
X164588453Y-19702077D01*
X164589776Y-19703028D01*
X164636645Y-19659857D01*
X164706580Y-19647625D01*
X164772026Y-19675144D01*
X164799875Y-19706994D01*
X164859987Y-19805088D01*
X165006250Y-19973938D01*
X165178126Y-20116632D01*
X165371000Y-20229338D01*
X165579692Y-20309030D01*
X165584760Y-20310061D01*
X165584763Y-20310062D01*
X165692017Y-20331883D01*
X165798597Y-20353567D01*
X165803772Y-20353757D01*
X165803774Y-20353757D01*
X166016673Y-20361564D01*
X166016677Y-20361564D01*
X166021837Y-20361753D01*
X166026957Y-20361097D01*
X166026959Y-20361097D01*
X166238288Y-20334025D01*
X166238289Y-20334025D01*
X166243416Y-20333368D01*
X166248366Y-20331883D01*
X166452429Y-20270661D01*
X166452434Y-20270659D01*
X166457384Y-20269174D01*
X166657994Y-20170896D01*
X166839860Y-20041173D01*
X166907331Y-19973938D01*
X166948479Y-19932933D01*
X167010851Y-19899017D01*
X167081658Y-19904205D01*
X167138419Y-19946851D01*
X167155401Y-19977954D01*
X167196676Y-20088054D01*
X167205214Y-20103649D01*
X167281715Y-20205724D01*
X167294276Y-20218285D01*
X167396351Y-20294786D01*
X167411946Y-20303324D01*
X167532394Y-20348478D01*
X167547649Y-20352105D01*
X167598514Y-20357631D01*
X167605328Y-20358000D01*
X168227885Y-20358000D01*
X168243124Y-20353525D01*
X168244329Y-20352135D01*
X168246000Y-20344452D01*
X168246000Y-20339884D01*
X168754000Y-20339884D01*
X168758475Y-20355123D01*
X168759865Y-20356328D01*
X168767548Y-20357999D01*
X169394669Y-20357999D01*
X169401490Y-20357629D01*
X169452352Y-20352105D01*
X169467604Y-20348479D01*
X169588054Y-20303324D01*
X169603649Y-20294786D01*
X169705724Y-20218285D01*
X169718285Y-20205724D01*
X169794786Y-20103649D01*
X169803324Y-20088054D01*
X169848478Y-19967606D01*
X169852105Y-19952351D01*
X169857631Y-19901486D01*
X169858000Y-19894672D01*
X169858000Y-19272115D01*
X169853525Y-19256876D01*
X169852135Y-19255671D01*
X169844452Y-19254000D01*
X168772115Y-19254000D01*
X168756876Y-19258475D01*
X168755671Y-19259865D01*
X168754000Y-19267548D01*
X168754000Y-20339884D01*
X168246000Y-20339884D01*
X168246000Y-18872000D01*
X168266002Y-18803879D01*
X168319658Y-18757386D01*
X168372000Y-18746000D01*
X169839884Y-18746000D01*
X169855123Y-18741525D01*
X169856328Y-18740135D01*
X169857999Y-18732452D01*
X169857999Y-18105331D01*
X169857629Y-18098510D01*
X169852105Y-18047648D01*
X169848479Y-18032396D01*
X169803324Y-17911946D01*
X169794786Y-17896351D01*
X169718285Y-17794276D01*
X169705724Y-17781715D01*
X169643827Y-17735326D01*
X169601312Y-17678467D01*
X169596286Y-17607649D01*
X169630346Y-17545355D01*
X169692677Y-17511365D01*
X169719392Y-17508500D01*
X171852994Y-17508500D01*
X171921115Y-17528502D01*
X171967608Y-17582158D01*
X171977712Y-17652432D01*
X171948218Y-17717012D01*
X171911175Y-17746262D01*
X171718607Y-17846507D01*
X171714474Y-17849610D01*
X171714471Y-17849612D01*
X171544163Y-17977483D01*
X171539965Y-17980635D01*
X171385629Y-18142138D01*
X171259743Y-18326680D01*
X171165688Y-18529305D01*
X171105989Y-18744570D01*
X171082251Y-18966695D01*
X171095110Y-19189715D01*
X171096247Y-19194761D01*
X171096248Y-19194767D01*
X171110606Y-19258475D01*
X171144222Y-19407639D01*
X171228266Y-19614616D01*
X171279942Y-19698944D01*
X171342291Y-19800688D01*
X171344987Y-19805088D01*
X171491250Y-19973938D01*
X171663126Y-20116632D01*
X171856000Y-20229338D01*
X172064692Y-20309030D01*
X172069760Y-20310061D01*
X172069763Y-20310062D01*
X172177017Y-20331883D01*
X172283597Y-20353567D01*
X172288772Y-20353757D01*
X172288774Y-20353757D01*
X172501673Y-20361564D01*
X172501677Y-20361564D01*
X172506837Y-20361753D01*
X172511957Y-20361097D01*
X172511959Y-20361097D01*
X172723288Y-20334025D01*
X172723289Y-20334025D01*
X172728416Y-20333368D01*
X172733366Y-20331883D01*
X172937429Y-20270661D01*
X172937434Y-20270659D01*
X172942384Y-20269174D01*
X173142994Y-20170896D01*
X173324860Y-20041173D01*
X173483096Y-19883489D01*
X173542594Y-19800689D01*
X173613453Y-19702077D01*
X173614776Y-19703028D01*
X173661645Y-19659857D01*
X173731580Y-19647625D01*
X173797026Y-19675144D01*
X173824875Y-19706994D01*
X173884987Y-19805088D01*
X174031250Y-19973938D01*
X174203126Y-20116632D01*
X174396000Y-20229338D01*
X174604692Y-20309030D01*
X174609760Y-20310061D01*
X174609763Y-20310062D01*
X174717017Y-20331883D01*
X174823597Y-20353567D01*
X174828772Y-20353757D01*
X174828774Y-20353757D01*
X175041673Y-20361564D01*
X175041677Y-20361564D01*
X175046837Y-20361753D01*
X175051957Y-20361097D01*
X175051959Y-20361097D01*
X175263288Y-20334025D01*
X175263289Y-20334025D01*
X175268416Y-20333368D01*
X175273366Y-20331883D01*
X175477429Y-20270661D01*
X175477434Y-20270659D01*
X175482384Y-20269174D01*
X175682994Y-20170896D01*
X175864860Y-20041173D01*
X175932331Y-19973938D01*
X175973479Y-19932933D01*
X176035851Y-19899017D01*
X176106658Y-19904205D01*
X176163419Y-19946851D01*
X176180401Y-19977954D01*
X176221676Y-20088054D01*
X176230214Y-20103649D01*
X176306715Y-20205724D01*
X176319276Y-20218285D01*
X176421351Y-20294786D01*
X176436946Y-20303324D01*
X176557394Y-20348478D01*
X176572649Y-20352105D01*
X176623514Y-20357631D01*
X176630328Y-20358000D01*
X177252885Y-20358000D01*
X177268124Y-20353525D01*
X177269329Y-20352135D01*
X177271000Y-20344452D01*
X177271000Y-20339884D01*
X177779000Y-20339884D01*
X177783475Y-20355123D01*
X177784865Y-20356328D01*
X177792548Y-20357999D01*
X178419669Y-20357999D01*
X178426490Y-20357629D01*
X178477352Y-20352105D01*
X178492604Y-20348479D01*
X178613054Y-20303324D01*
X178628649Y-20294786D01*
X178730724Y-20218285D01*
X178743285Y-20205724D01*
X178819786Y-20103649D01*
X178828324Y-20088054D01*
X178873478Y-19967606D01*
X178877105Y-19952351D01*
X178882631Y-19901486D01*
X178883000Y-19894672D01*
X178883000Y-19272115D01*
X178878525Y-19256876D01*
X178877135Y-19255671D01*
X178869452Y-19254000D01*
X177797115Y-19254000D01*
X177781876Y-19258475D01*
X177780671Y-19259865D01*
X177779000Y-19267548D01*
X177779000Y-20339884D01*
X177271000Y-20339884D01*
X177271000Y-18872000D01*
X177291002Y-18803879D01*
X177344658Y-18757386D01*
X177397000Y-18746000D01*
X178864884Y-18746000D01*
X178880123Y-18741525D01*
X178881328Y-18740135D01*
X178882999Y-18732452D01*
X178882999Y-18105331D01*
X178882629Y-18098510D01*
X178877105Y-18047648D01*
X178873479Y-18032396D01*
X178828324Y-17911946D01*
X178819786Y-17896351D01*
X178743285Y-17794276D01*
X178730724Y-17781715D01*
X178668827Y-17735326D01*
X178626312Y-17678467D01*
X178621286Y-17607649D01*
X178655346Y-17545355D01*
X178717677Y-17511365D01*
X178744392Y-17508500D01*
X184365500Y-17508500D01*
X184433621Y-17528502D01*
X184480114Y-17582158D01*
X184491500Y-17634500D01*
X184491500Y-35874000D01*
X184471498Y-35942121D01*
X184417842Y-35988614D01*
X184365500Y-36000000D01*
X174828403Y-36000000D01*
X174760282Y-35979998D01*
X174734770Y-35958313D01*
X174611253Y-35821134D01*
X174456752Y-35708882D01*
X174450724Y-35706198D01*
X174450722Y-35706197D01*
X174288319Y-35633891D01*
X174288318Y-35633891D01*
X174282288Y-35631206D01*
X174188887Y-35611353D01*
X174101944Y-35592872D01*
X174101939Y-35592872D01*
X174095487Y-35591500D01*
X173904513Y-35591500D01*
X173898061Y-35592872D01*
X173898056Y-35592872D01*
X173811112Y-35611353D01*
X173717712Y-35631206D01*
X173711682Y-35633891D01*
X173711681Y-35633891D01*
X173549278Y-35706197D01*
X173549276Y-35706198D01*
X173543248Y-35708882D01*
X173388747Y-35821134D01*
X173265232Y-35958312D01*
X173204787Y-35995550D01*
X173171597Y-36000000D01*
X168911983Y-36000000D01*
X168843862Y-35979998D01*
X168802864Y-35937000D01*
X168799514Y-35931197D01*
X168789040Y-35913056D01*
X168710692Y-35826041D01*
X168665675Y-35776045D01*
X168665674Y-35776044D01*
X168661253Y-35771134D01*
X168506752Y-35658882D01*
X168500724Y-35656198D01*
X168500722Y-35656197D01*
X168338319Y-35583891D01*
X168338318Y-35583891D01*
X168332288Y-35581206D01*
X168238887Y-35561353D01*
X168151944Y-35542872D01*
X168151939Y-35542872D01*
X168145487Y-35541500D01*
X167954513Y-35541500D01*
X167948061Y-35542872D01*
X167948056Y-35542872D01*
X167861113Y-35561353D01*
X167767712Y-35581206D01*
X167761682Y-35583891D01*
X167761681Y-35583891D01*
X167599278Y-35656197D01*
X167599276Y-35656198D01*
X167593248Y-35658882D01*
X167438747Y-35771134D01*
X167434326Y-35776044D01*
X167434325Y-35776045D01*
X167389309Y-35826041D01*
X167310960Y-35913056D01*
X167300486Y-35931197D01*
X167297136Y-35937000D01*
X167245754Y-35985993D01*
X167188017Y-36000000D01*
X143863695Y-36000000D01*
X143795574Y-35979998D01*
X143789634Y-35975936D01*
X143737094Y-35937763D01*
X143737093Y-35937762D01*
X143731752Y-35933882D01*
X143725724Y-35931198D01*
X143725722Y-35931197D01*
X143563319Y-35858891D01*
X143563318Y-35858891D01*
X143557288Y-35856206D01*
X143463888Y-35836353D01*
X143376944Y-35817872D01*
X143376939Y-35817872D01*
X143370487Y-35816500D01*
X143179513Y-35816500D01*
X143173061Y-35817872D01*
X143173056Y-35817872D01*
X143086113Y-35836353D01*
X142992712Y-35856206D01*
X142986682Y-35858891D01*
X142986681Y-35858891D01*
X142824278Y-35931197D01*
X142824276Y-35931198D01*
X142818248Y-35933882D01*
X142812907Y-35937762D01*
X142812906Y-35937763D01*
X142760366Y-35975936D01*
X142693499Y-35999794D01*
X142686305Y-36000000D01*
X137267812Y-36000000D01*
X137199691Y-35979998D01*
X137174176Y-35958311D01*
X137120513Y-35898712D01*
X137120511Y-35898710D01*
X137116098Y-35893809D01*
X137011580Y-35817872D01*
X136966939Y-35785438D01*
X136966938Y-35785437D01*
X136961597Y-35781557D01*
X136955569Y-35778873D01*
X136955567Y-35778872D01*
X136793164Y-35706566D01*
X136793163Y-35706566D01*
X136787133Y-35703881D01*
X136693733Y-35684028D01*
X136606789Y-35665547D01*
X136606784Y-35665547D01*
X136600332Y-35664175D01*
X136409358Y-35664175D01*
X136402906Y-35665547D01*
X136402901Y-35665547D01*
X136315957Y-35684028D01*
X136222557Y-35703881D01*
X136216527Y-35706566D01*
X136216526Y-35706566D01*
X136054123Y-35778872D01*
X136054121Y-35778873D01*
X136048093Y-35781557D01*
X136042752Y-35785437D01*
X136042751Y-35785438D01*
X135998110Y-35817872D01*
X135893592Y-35893809D01*
X135889179Y-35898710D01*
X135889177Y-35898712D01*
X135835514Y-35958311D01*
X135775068Y-35995550D01*
X135741878Y-36000000D01*
X124134500Y-36000000D01*
X124066379Y-35979998D01*
X124019886Y-35926342D01*
X124008500Y-35874000D01*
X124008500Y-34362500D01*
X156586496Y-34362500D01*
X156606458Y-34552428D01*
X156665473Y-34734056D01*
X156760960Y-34899444D01*
X156888747Y-35041366D01*
X157043248Y-35153618D01*
X157049276Y-35156302D01*
X157049278Y-35156303D01*
X157211681Y-35228609D01*
X157217712Y-35231294D01*
X157311113Y-35251147D01*
X157398056Y-35269628D01*
X157398061Y-35269628D01*
X157404513Y-35271000D01*
X157595487Y-35271000D01*
X157601939Y-35269628D01*
X157601944Y-35269628D01*
X157688887Y-35251147D01*
X157782288Y-35231294D01*
X157788319Y-35228609D01*
X157950722Y-35156303D01*
X157950724Y-35156302D01*
X157956752Y-35153618D01*
X158111253Y-35041366D01*
X158239040Y-34899444D01*
X158334527Y-34734056D01*
X158393542Y-34552428D01*
X158413504Y-34362500D01*
X158393542Y-34172572D01*
X158334527Y-33990944D01*
X158239040Y-33825556D01*
X158111253Y-33683634D01*
X157956752Y-33571382D01*
X157950724Y-33568698D01*
X157950722Y-33568697D01*
X157788319Y-33496391D01*
X157788318Y-33496391D01*
X157782288Y-33493706D01*
X157688888Y-33473853D01*
X157601944Y-33455372D01*
X157601939Y-33455372D01*
X157595487Y-33454000D01*
X157404513Y-33454000D01*
X157398061Y-33455372D01*
X157398056Y-33455372D01*
X157311113Y-33473853D01*
X157217712Y-33493706D01*
X157211682Y-33496391D01*
X157211681Y-33496391D01*
X157049278Y-33568697D01*
X157049276Y-33568698D01*
X157043248Y-33571382D01*
X156888747Y-33683634D01*
X156760960Y-33825556D01*
X156665473Y-33990944D01*
X156606458Y-34172572D01*
X156586496Y-34362500D01*
X124008500Y-34362500D01*
X124008500Y-30000000D01*
X126086496Y-30000000D01*
X126106458Y-30189928D01*
X126165473Y-30371556D01*
X126168776Y-30377278D01*
X126168777Y-30377279D01*
X126176080Y-30389928D01*
X126260960Y-30536944D01*
X126388747Y-30678866D01*
X126543248Y-30791118D01*
X126549276Y-30793802D01*
X126549278Y-30793803D01*
X126711681Y-30866109D01*
X126717712Y-30868794D01*
X126783365Y-30882749D01*
X126898056Y-30907128D01*
X126898061Y-30907128D01*
X126904513Y-30908500D01*
X127095487Y-30908500D01*
X127101939Y-30907128D01*
X127101944Y-30907128D01*
X127216635Y-30882749D01*
X127282288Y-30868794D01*
X127288319Y-30866109D01*
X127450722Y-30793803D01*
X127450724Y-30793802D01*
X127456752Y-30791118D01*
X127611253Y-30678866D01*
X127739040Y-30536944D01*
X127823920Y-30389928D01*
X127831223Y-30377279D01*
X127831224Y-30377278D01*
X127834527Y-30371556D01*
X127893542Y-30189928D01*
X127913504Y-30000000D01*
X127896134Y-29834729D01*
X127894232Y-29816635D01*
X127894232Y-29816633D01*
X127893542Y-29810072D01*
X127834527Y-29628444D01*
X127827835Y-29616852D01*
X127803671Y-29575000D01*
X140661496Y-29575000D01*
X140681458Y-29764928D01*
X140740473Y-29946556D01*
X140743776Y-29952278D01*
X140743777Y-29952279D01*
X140767539Y-29993435D01*
X140835960Y-30111944D01*
X140963747Y-30253866D01*
X141118248Y-30366118D01*
X141124276Y-30368802D01*
X141124278Y-30368803D01*
X141171726Y-30389928D01*
X141292712Y-30443794D01*
X141386113Y-30463647D01*
X141473056Y-30482128D01*
X141473061Y-30482128D01*
X141479513Y-30483500D01*
X141670487Y-30483500D01*
X141676939Y-30482128D01*
X141676944Y-30482128D01*
X141763887Y-30463647D01*
X141857288Y-30443794D01*
X141978274Y-30389928D01*
X142025722Y-30368803D01*
X142025724Y-30368802D01*
X142031752Y-30366118D01*
X142186253Y-30253866D01*
X142314040Y-30111944D01*
X142382461Y-29993435D01*
X142406223Y-29952279D01*
X142406224Y-29952278D01*
X142409527Y-29946556D01*
X142468542Y-29764928D01*
X142488504Y-29575000D01*
X142476023Y-29456250D01*
X150461496Y-29456250D01*
X150462186Y-29462815D01*
X150480255Y-29634729D01*
X150481458Y-29646178D01*
X150540473Y-29827806D01*
X150635960Y-29993194D01*
X150763747Y-30135116D01*
X150918248Y-30247368D01*
X150924276Y-30250052D01*
X150924278Y-30250053D01*
X150941564Y-30257749D01*
X151092712Y-30325044D01*
X151186112Y-30344897D01*
X151273056Y-30363378D01*
X151273061Y-30363378D01*
X151279513Y-30364750D01*
X151470487Y-30364750D01*
X151476939Y-30363378D01*
X151476944Y-30363378D01*
X151563888Y-30344897D01*
X151657288Y-30325044D01*
X151808436Y-30257749D01*
X151825722Y-30250053D01*
X151825724Y-30250052D01*
X151831752Y-30247368D01*
X151971977Y-30145488D01*
X152038842Y-30121631D01*
X152107994Y-30137711D01*
X152157474Y-30188624D01*
X152171346Y-30234254D01*
X152186379Y-30377279D01*
X152187708Y-30389928D01*
X152246723Y-30571556D01*
X152342210Y-30736944D01*
X152346628Y-30741851D01*
X152346629Y-30741852D01*
X152460928Y-30868794D01*
X152469997Y-30878866D01*
X152624498Y-30991118D01*
X152630526Y-30993802D01*
X152630528Y-30993803D01*
X152792931Y-31066109D01*
X152798962Y-31068794D01*
X152892363Y-31088647D01*
X152979306Y-31107128D01*
X152979311Y-31107128D01*
X152985763Y-31108500D01*
X153176737Y-31108500D01*
X153183189Y-31107128D01*
X153183194Y-31107128D01*
X153270137Y-31088647D01*
X153363538Y-31068794D01*
X153369569Y-31066109D01*
X153531972Y-30993803D01*
X153531974Y-30993802D01*
X153538002Y-30991118D01*
X153692503Y-30878866D01*
X153701572Y-30868794D01*
X153815871Y-30741852D01*
X153815872Y-30741851D01*
X153820290Y-30736944D01*
X153915777Y-30571556D01*
X153974792Y-30389928D01*
X153976122Y-30377279D01*
X153994064Y-30206565D01*
X153994754Y-30200000D01*
X153988207Y-30137711D01*
X153975482Y-30016635D01*
X153975482Y-30016633D01*
X153974792Y-30010072D01*
X153915777Y-29828444D01*
X153820290Y-29663056D01*
X153692503Y-29521134D01*
X153538002Y-29408882D01*
X153531974Y-29406198D01*
X153531972Y-29406197D01*
X153369569Y-29333891D01*
X153369568Y-29333891D01*
X153363538Y-29331206D01*
X153270138Y-29311353D01*
X153183194Y-29292872D01*
X153183189Y-29292872D01*
X153176737Y-29291500D01*
X152985763Y-29291500D01*
X152979311Y-29292872D01*
X152979306Y-29292872D01*
X152892362Y-29311353D01*
X152798962Y-29331206D01*
X152792932Y-29333891D01*
X152792931Y-29333891D01*
X152630528Y-29406197D01*
X152630526Y-29406198D01*
X152624498Y-29408882D01*
X152484273Y-29510762D01*
X152417408Y-29534619D01*
X152348256Y-29518539D01*
X152298776Y-29467626D01*
X152284904Y-29421996D01*
X152269232Y-29272884D01*
X152269231Y-29272881D01*
X152268542Y-29266322D01*
X152209527Y-29084694D01*
X152203930Y-29075000D01*
X171161496Y-29075000D01*
X171181458Y-29264928D01*
X171240473Y-29446556D01*
X171243776Y-29452278D01*
X171243777Y-29452279D01*
X171277542Y-29510761D01*
X171335960Y-29611944D01*
X171340378Y-29616851D01*
X171340379Y-29616852D01*
X171356476Y-29634729D01*
X171463747Y-29753866D01*
X171618248Y-29866118D01*
X171624276Y-29868802D01*
X171624278Y-29868803D01*
X171784799Y-29940271D01*
X171792712Y-29943794D01*
X171886113Y-29963647D01*
X171973056Y-29982128D01*
X171973061Y-29982128D01*
X171979513Y-29983500D01*
X172170487Y-29983500D01*
X172176939Y-29982128D01*
X172176944Y-29982128D01*
X172263887Y-29963647D01*
X172357288Y-29943794D01*
X172365201Y-29940271D01*
X172525722Y-29868803D01*
X172525724Y-29868802D01*
X172531752Y-29866118D01*
X172686253Y-29753866D01*
X172793524Y-29634729D01*
X172809621Y-29616852D01*
X172809622Y-29616851D01*
X172814040Y-29611944D01*
X172872458Y-29510761D01*
X172906223Y-29452279D01*
X172906224Y-29452278D01*
X172909527Y-29446556D01*
X172968542Y-29264928D01*
X172988504Y-29075000D01*
X172968542Y-28885072D01*
X172909527Y-28703444D01*
X172888990Y-28667872D01*
X172817341Y-28543774D01*
X172814040Y-28538056D01*
X172686253Y-28396134D01*
X172531752Y-28283882D01*
X172525724Y-28281198D01*
X172525722Y-28281197D01*
X172363319Y-28208891D01*
X172363318Y-28208891D01*
X172357288Y-28206206D01*
X172263887Y-28186353D01*
X172176944Y-28167872D01*
X172176939Y-28167872D01*
X172170487Y-28166500D01*
X171979513Y-28166500D01*
X171973061Y-28167872D01*
X171973056Y-28167872D01*
X171886113Y-28186353D01*
X171792712Y-28206206D01*
X171786682Y-28208891D01*
X171786681Y-28208891D01*
X171624278Y-28281197D01*
X171624276Y-28281198D01*
X171618248Y-28283882D01*
X171463747Y-28396134D01*
X171335960Y-28538056D01*
X171332659Y-28543774D01*
X171261011Y-28667872D01*
X171240473Y-28703444D01*
X171181458Y-28885072D01*
X171161496Y-29075000D01*
X152203930Y-29075000D01*
X152182601Y-29038056D01*
X152117341Y-28925024D01*
X152114040Y-28919306D01*
X151986253Y-28777384D01*
X151831752Y-28665132D01*
X151825724Y-28662448D01*
X151825722Y-28662447D01*
X151663319Y-28590141D01*
X151663318Y-28590141D01*
X151657288Y-28587456D01*
X151563887Y-28567603D01*
X151476944Y-28549122D01*
X151476939Y-28549122D01*
X151470487Y-28547750D01*
X151279513Y-28547750D01*
X151273061Y-28549122D01*
X151273056Y-28549122D01*
X151186112Y-28567603D01*
X151092712Y-28587456D01*
X151086682Y-28590141D01*
X151086681Y-28590141D01*
X150924278Y-28662447D01*
X150924276Y-28662448D01*
X150918248Y-28665132D01*
X150763747Y-28777384D01*
X150635960Y-28919306D01*
X150632659Y-28925024D01*
X150567400Y-29038056D01*
X150540473Y-29084694D01*
X150481458Y-29266322D01*
X150480768Y-29272883D01*
X150480768Y-29272885D01*
X150466067Y-29412763D01*
X150461496Y-29456250D01*
X142476023Y-29456250D01*
X142472423Y-29421996D01*
X142469232Y-29391635D01*
X142469232Y-29391633D01*
X142468542Y-29385072D01*
X142409527Y-29203444D01*
X142314040Y-29038056D01*
X142186253Y-28896134D01*
X142031752Y-28783882D01*
X142025724Y-28781198D01*
X142025722Y-28781197D01*
X141863319Y-28708891D01*
X141863318Y-28708891D01*
X141857288Y-28706206D01*
X141763888Y-28686353D01*
X141676944Y-28667872D01*
X141676939Y-28667872D01*
X141670487Y-28666500D01*
X141479513Y-28666500D01*
X141473061Y-28667872D01*
X141473056Y-28667872D01*
X141386112Y-28686353D01*
X141292712Y-28706206D01*
X141286682Y-28708891D01*
X141286681Y-28708891D01*
X141124278Y-28781197D01*
X141124276Y-28781198D01*
X141118248Y-28783882D01*
X140963747Y-28896134D01*
X140835960Y-29038056D01*
X140740473Y-29203444D01*
X140681458Y-29385072D01*
X140680768Y-29391633D01*
X140680768Y-29391635D01*
X140677577Y-29421996D01*
X140661496Y-29575000D01*
X127803671Y-29575000D01*
X127771073Y-29518539D01*
X127739040Y-29463056D01*
X127729337Y-29452279D01*
X127615675Y-29326045D01*
X127615674Y-29326044D01*
X127611253Y-29321134D01*
X127456752Y-29208882D01*
X127450724Y-29206198D01*
X127450722Y-29206197D01*
X127288319Y-29133891D01*
X127288318Y-29133891D01*
X127282288Y-29131206D01*
X127188887Y-29111353D01*
X127101944Y-29092872D01*
X127101939Y-29092872D01*
X127095487Y-29091500D01*
X126904513Y-29091500D01*
X126898061Y-29092872D01*
X126898056Y-29092872D01*
X126811113Y-29111353D01*
X126717712Y-29131206D01*
X126711682Y-29133891D01*
X126711681Y-29133891D01*
X126549278Y-29206197D01*
X126549276Y-29206198D01*
X126543248Y-29208882D01*
X126388747Y-29321134D01*
X126384326Y-29326044D01*
X126384325Y-29326045D01*
X126270664Y-29452279D01*
X126260960Y-29463056D01*
X126228927Y-29518539D01*
X126172166Y-29616852D01*
X126165473Y-29628444D01*
X126106458Y-29810072D01*
X126105768Y-29816633D01*
X126105768Y-29816635D01*
X126103866Y-29834729D01*
X126086496Y-30000000D01*
X124008500Y-30000000D01*
X124008500Y-27298134D01*
X134741500Y-27298134D01*
X134748255Y-27360316D01*
X134799385Y-27496705D01*
X134886739Y-27613261D01*
X135003295Y-27700615D01*
X135139684Y-27751745D01*
X135201866Y-27758500D01*
X137798134Y-27758500D01*
X137860316Y-27751745D01*
X137996705Y-27700615D01*
X138113261Y-27613261D01*
X138200615Y-27496705D01*
X138251745Y-27360316D01*
X138258500Y-27298134D01*
X142741500Y-27298134D01*
X142748255Y-27360316D01*
X142799385Y-27496705D01*
X142886739Y-27613261D01*
X143003295Y-27700615D01*
X143139684Y-27751745D01*
X143201866Y-27758500D01*
X145798134Y-27758500D01*
X145860316Y-27751745D01*
X145996705Y-27700615D01*
X146113261Y-27613261D01*
X146200615Y-27496705D01*
X146251745Y-27360316D01*
X146258500Y-27298134D01*
X165741500Y-27298134D01*
X165748255Y-27360316D01*
X165799385Y-27496705D01*
X165886739Y-27613261D01*
X166003295Y-27700615D01*
X166139684Y-27751745D01*
X166201866Y-27758500D01*
X168798134Y-27758500D01*
X168860316Y-27751745D01*
X168996705Y-27700615D01*
X169113261Y-27613261D01*
X169200615Y-27496705D01*
X169251745Y-27360316D01*
X169258500Y-27298134D01*
X173241500Y-27298134D01*
X173248255Y-27360316D01*
X173299385Y-27496705D01*
X173386739Y-27613261D01*
X173503295Y-27700615D01*
X173639684Y-27751745D01*
X173701866Y-27758500D01*
X176298134Y-27758500D01*
X176360316Y-27751745D01*
X176496705Y-27700615D01*
X176613261Y-27613261D01*
X176700615Y-27496705D01*
X176751745Y-27360316D01*
X176758500Y-27298134D01*
X176758500Y-24701866D01*
X176751745Y-24639684D01*
X176700615Y-24503295D01*
X176613261Y-24386739D01*
X176496705Y-24299385D01*
X176360316Y-24248255D01*
X176298134Y-24241500D01*
X173701866Y-24241500D01*
X173639684Y-24248255D01*
X173503295Y-24299385D01*
X173386739Y-24386739D01*
X173299385Y-24503295D01*
X173248255Y-24639684D01*
X173241500Y-24701866D01*
X173241500Y-27298134D01*
X169258500Y-27298134D01*
X169258500Y-24701866D01*
X169251745Y-24639684D01*
X169200615Y-24503295D01*
X169113261Y-24386739D01*
X168996705Y-24299385D01*
X168860316Y-24248255D01*
X168798134Y-24241500D01*
X166201866Y-24241500D01*
X166139684Y-24248255D01*
X166003295Y-24299385D01*
X165886739Y-24386739D01*
X165799385Y-24503295D01*
X165748255Y-24639684D01*
X165741500Y-24701866D01*
X165741500Y-27298134D01*
X146258500Y-27298134D01*
X146258500Y-24800000D01*
X150611996Y-24800000D01*
X150631958Y-24989928D01*
X150690973Y-25171556D01*
X150694276Y-25177278D01*
X150694277Y-25177279D01*
X150708848Y-25202517D01*
X150786460Y-25336944D01*
X150914247Y-25478866D01*
X151068748Y-25591118D01*
X151074776Y-25593802D01*
X151074778Y-25593803D01*
X151237181Y-25666109D01*
X151243212Y-25668794D01*
X151336613Y-25688647D01*
X151423556Y-25707128D01*
X151423561Y-25707128D01*
X151430013Y-25708500D01*
X151620987Y-25708500D01*
X151627439Y-25707128D01*
X151627444Y-25707128D01*
X151714387Y-25688647D01*
X151807788Y-25668794D01*
X151813819Y-25666109D01*
X151976222Y-25593803D01*
X151976224Y-25593802D01*
X151982252Y-25591118D01*
X152136753Y-25478866D01*
X152264540Y-25336944D01*
X152342152Y-25202517D01*
X152356723Y-25177279D01*
X152356724Y-25177278D01*
X152360027Y-25171556D01*
X152419042Y-24989928D01*
X152439004Y-24800000D01*
X152419042Y-24610072D01*
X152360027Y-24428444D01*
X152264540Y-24263056D01*
X152136753Y-24121134D01*
X151982252Y-24008882D01*
X151976224Y-24006198D01*
X151976222Y-24006197D01*
X151813819Y-23933891D01*
X151813818Y-23933891D01*
X151807788Y-23931206D01*
X151714388Y-23911353D01*
X151627444Y-23892872D01*
X151627439Y-23892872D01*
X151620987Y-23891500D01*
X151430013Y-23891500D01*
X151423561Y-23892872D01*
X151423556Y-23892872D01*
X151336612Y-23911353D01*
X151243212Y-23931206D01*
X151237182Y-23933891D01*
X151237181Y-23933891D01*
X151074778Y-24006197D01*
X151074776Y-24006198D01*
X151068748Y-24008882D01*
X150914247Y-24121134D01*
X150786460Y-24263056D01*
X150690973Y-24428444D01*
X150631958Y-24610072D01*
X150611996Y-24800000D01*
X146258500Y-24800000D01*
X146258500Y-24701866D01*
X146251745Y-24639684D01*
X146200615Y-24503295D01*
X146113261Y-24386739D01*
X145996705Y-24299385D01*
X145860316Y-24248255D01*
X145798134Y-24241500D01*
X143201866Y-24241500D01*
X143139684Y-24248255D01*
X143003295Y-24299385D01*
X142886739Y-24386739D01*
X142799385Y-24503295D01*
X142748255Y-24639684D01*
X142741500Y-24701866D01*
X142741500Y-27298134D01*
X138258500Y-27298134D01*
X138258500Y-24701866D01*
X138251745Y-24639684D01*
X138200615Y-24503295D01*
X138113261Y-24386739D01*
X137996705Y-24299385D01*
X137860316Y-24248255D01*
X137798134Y-24241500D01*
X135201866Y-24241500D01*
X135139684Y-24248255D01*
X135003295Y-24299385D01*
X134886739Y-24386739D01*
X134799385Y-24503295D01*
X134748255Y-24639684D01*
X134741500Y-24701866D01*
X134741500Y-27298134D01*
X124008500Y-27298134D01*
X124008500Y-25188986D01*
X124434000Y-25188986D01*
X124437973Y-25202517D01*
X124445768Y-25203637D01*
X124562932Y-25169154D01*
X124574300Y-25164561D01*
X124742911Y-25076414D01*
X124753173Y-25069698D01*
X124901443Y-24950485D01*
X124910213Y-24941897D01*
X125032499Y-24796162D01*
X125039437Y-24786031D01*
X125131094Y-24619308D01*
X125135924Y-24608038D01*
X125193452Y-24426685D01*
X125196002Y-24414691D01*
X125212607Y-24266650D01*
X125213000Y-24259626D01*
X125213000Y-24098230D01*
X125233002Y-24030109D01*
X125286658Y-23983616D01*
X125356932Y-23973512D01*
X125366468Y-23975261D01*
X125513740Y-24008180D01*
X125519463Y-24008500D01*
X125656596Y-24008500D01*
X125677796Y-24006197D01*
X125695056Y-24004322D01*
X125795437Y-23993417D01*
X125972223Y-23933922D01*
X126132109Y-23837853D01*
X126267636Y-23709692D01*
X126271471Y-23704049D01*
X126368646Y-23561060D01*
X126368647Y-23561058D01*
X126372480Y-23555418D01*
X126405071Y-23473937D01*
X126439215Y-23388570D01*
X126439216Y-23388568D01*
X126441751Y-23382229D01*
X126472216Y-23198205D01*
X126467521Y-23108615D01*
X126467163Y-23101795D01*
X130527784Y-23101795D01*
X130528141Y-23108611D01*
X130528141Y-23108615D01*
X130532837Y-23198205D01*
X130537547Y-23288067D01*
X130587080Y-23467898D01*
X130674075Y-23632898D01*
X130678480Y-23638111D01*
X130678483Y-23638115D01*
X130790064Y-23770153D01*
X130790068Y-23770157D01*
X130794471Y-23775367D01*
X130799895Y-23779514D01*
X130799896Y-23779515D01*
X130937231Y-23884516D01*
X130937235Y-23884519D01*
X130942652Y-23888660D01*
X131111704Y-23967490D01*
X131293740Y-24008180D01*
X131299463Y-24008500D01*
X131436596Y-24008500D01*
X131457796Y-24006197D01*
X131475056Y-24004322D01*
X131575437Y-23993417D01*
X131620811Y-23978147D01*
X131691754Y-23975377D01*
X131752932Y-24011401D01*
X131784923Y-24074781D01*
X131787000Y-24097566D01*
X131787000Y-24252890D01*
X131787300Y-24259035D01*
X131801170Y-24400481D01*
X131803553Y-24412519D01*
X131858542Y-24594651D01*
X131863217Y-24605993D01*
X131952535Y-24773977D01*
X131959322Y-24784193D01*
X132079572Y-24931634D01*
X132088216Y-24940338D01*
X132234809Y-25061610D01*
X132244980Y-25068470D01*
X132412342Y-25158962D01*
X132423647Y-25163714D01*
X132548692Y-25202422D01*
X132562795Y-25202628D01*
X132566000Y-25195873D01*
X132566000Y-25188986D01*
X133074000Y-25188986D01*
X133077973Y-25202517D01*
X133085768Y-25203637D01*
X133202932Y-25169154D01*
X133214300Y-25164561D01*
X133382911Y-25076414D01*
X133393173Y-25069698D01*
X133541443Y-24950485D01*
X133550213Y-24941897D01*
X133672499Y-24796162D01*
X133679437Y-24786031D01*
X133771094Y-24619308D01*
X133775924Y-24608038D01*
X133833452Y-24426685D01*
X133836002Y-24414691D01*
X133852607Y-24266650D01*
X133853000Y-24259626D01*
X133853000Y-23952115D01*
X133848525Y-23936876D01*
X133847135Y-23935671D01*
X133839452Y-23934000D01*
X133092115Y-23934000D01*
X133076876Y-23938475D01*
X133075671Y-23939865D01*
X133074000Y-23947548D01*
X133074000Y-25188986D01*
X132566000Y-25188986D01*
X132566000Y-23407885D01*
X133074000Y-23407885D01*
X133078475Y-23423124D01*
X133079865Y-23424329D01*
X133087548Y-23426000D01*
X133834885Y-23426000D01*
X133850124Y-23421525D01*
X133851329Y-23420135D01*
X133853000Y-23412452D01*
X133853000Y-23107110D01*
X133852700Y-23100965D01*
X133838830Y-22959519D01*
X133836447Y-22947481D01*
X133781458Y-22765349D01*
X133776783Y-22754007D01*
X133687465Y-22586023D01*
X133680678Y-22575807D01*
X133560428Y-22428366D01*
X133551784Y-22419662D01*
X133405191Y-22298390D01*
X133395020Y-22291530D01*
X133227658Y-22201038D01*
X133216353Y-22196286D01*
X133091308Y-22157578D01*
X133077205Y-22157372D01*
X133074000Y-22164127D01*
X133074000Y-23407885D01*
X132566000Y-23407885D01*
X132566000Y-22171014D01*
X132562027Y-22157483D01*
X132554232Y-22156363D01*
X132437068Y-22190846D01*
X132425700Y-22195439D01*
X132257089Y-22283586D01*
X132246827Y-22290302D01*
X132098556Y-22409516D01*
X132089790Y-22418099D01*
X132071984Y-22439320D01*
X132012874Y-22478647D01*
X131941887Y-22479773D01*
X131898933Y-22458425D01*
X131859617Y-22428366D01*
X131837348Y-22411340D01*
X131668296Y-22332510D01*
X131486260Y-22291820D01*
X131480537Y-22291500D01*
X131343404Y-22291500D01*
X131204563Y-22306583D01*
X131027777Y-22366078D01*
X130867891Y-22462147D01*
X130732364Y-22590308D01*
X130728529Y-22595951D01*
X130683721Y-22661885D01*
X130627520Y-22744582D01*
X130624988Y-22750911D01*
X130624987Y-22750914D01*
X130560785Y-22911430D01*
X130558249Y-22917771D01*
X130527784Y-23101795D01*
X126467163Y-23101795D01*
X126462810Y-23018746D01*
X126462453Y-23011933D01*
X126412920Y-22832102D01*
X126325925Y-22667102D01*
X126321520Y-22661889D01*
X126321517Y-22661885D01*
X126209936Y-22529847D01*
X126209932Y-22529843D01*
X126205529Y-22524633D01*
X126145382Y-22478647D01*
X126062769Y-22415484D01*
X126062765Y-22415481D01*
X126057348Y-22411340D01*
X125888296Y-22332510D01*
X125706260Y-22291820D01*
X125700537Y-22291500D01*
X125563404Y-22291500D01*
X125424563Y-22306583D01*
X125247777Y-22366078D01*
X125087891Y-22462147D01*
X125086316Y-22459525D01*
X125032482Y-22480001D01*
X124963012Y-22465359D01*
X124925039Y-22434019D01*
X124920434Y-22428372D01*
X124911784Y-22419662D01*
X124765191Y-22298390D01*
X124755020Y-22291530D01*
X124587658Y-22201038D01*
X124576353Y-22196286D01*
X124451308Y-22157578D01*
X124437205Y-22157372D01*
X124434000Y-22164127D01*
X124434000Y-25188986D01*
X124008500Y-25188986D01*
X124008500Y-21008986D01*
X124434000Y-21008986D01*
X124437973Y-21022517D01*
X124445768Y-21023637D01*
X124562932Y-20989154D01*
X124574300Y-20984561D01*
X124742911Y-20896414D01*
X124753173Y-20889698D01*
X124901443Y-20770485D01*
X124910213Y-20761897D01*
X125032499Y-20616162D01*
X125039437Y-20606031D01*
X125131094Y-20439308D01*
X125135924Y-20428038D01*
X125193452Y-20246685D01*
X125196002Y-20234691D01*
X125212607Y-20086650D01*
X125213000Y-20079626D01*
X125213000Y-20072890D01*
X131787000Y-20072890D01*
X131787300Y-20079035D01*
X131801170Y-20220481D01*
X131803553Y-20232519D01*
X131858542Y-20414651D01*
X131863217Y-20425993D01*
X131952535Y-20593977D01*
X131959322Y-20604193D01*
X132079572Y-20751634D01*
X132088216Y-20760338D01*
X132234809Y-20881610D01*
X132244980Y-20888470D01*
X132412342Y-20978962D01*
X132423647Y-20983714D01*
X132548692Y-21022422D01*
X132562795Y-21022628D01*
X132566000Y-21015873D01*
X132566000Y-21008986D01*
X133074000Y-21008986D01*
X133077973Y-21022517D01*
X133085768Y-21023637D01*
X133202932Y-20989154D01*
X133214300Y-20984561D01*
X133382911Y-20896414D01*
X133393173Y-20889698D01*
X133541443Y-20770485D01*
X133550213Y-20761897D01*
X133672499Y-20616162D01*
X133679437Y-20606031D01*
X133771094Y-20439308D01*
X133775924Y-20428038D01*
X133833452Y-20246685D01*
X133836002Y-20234691D01*
X133852607Y-20086650D01*
X133853000Y-20079626D01*
X133853000Y-19772115D01*
X133848525Y-19756876D01*
X133847135Y-19755671D01*
X133839452Y-19754000D01*
X133092115Y-19754000D01*
X133076876Y-19758475D01*
X133075671Y-19759865D01*
X133074000Y-19767548D01*
X133074000Y-21008986D01*
X132566000Y-21008986D01*
X132566000Y-19772115D01*
X132561525Y-19756876D01*
X132560135Y-19755671D01*
X132552452Y-19754000D01*
X131805115Y-19754000D01*
X131789876Y-19758475D01*
X131788671Y-19759865D01*
X131787000Y-19767548D01*
X131787000Y-20072890D01*
X125213000Y-20072890D01*
X125213000Y-19772115D01*
X125208525Y-19756876D01*
X125207135Y-19755671D01*
X125199452Y-19754000D01*
X124452115Y-19754000D01*
X124436876Y-19758475D01*
X124435671Y-19759865D01*
X124434000Y-19767548D01*
X124434000Y-21008986D01*
X124008500Y-21008986D01*
X124008500Y-19227885D01*
X124434000Y-19227885D01*
X124438475Y-19243124D01*
X124439865Y-19244329D01*
X124447548Y-19246000D01*
X125194885Y-19246000D01*
X125210124Y-19241525D01*
X125211329Y-19240135D01*
X125213000Y-19232452D01*
X125213000Y-19227885D01*
X131787000Y-19227885D01*
X131791475Y-19243124D01*
X131792865Y-19244329D01*
X131800548Y-19246000D01*
X132547885Y-19246000D01*
X132563124Y-19241525D01*
X132564329Y-19240135D01*
X132566000Y-19232452D01*
X132566000Y-19227885D01*
X133074000Y-19227885D01*
X133078475Y-19243124D01*
X133079865Y-19244329D01*
X133087548Y-19246000D01*
X133834885Y-19246000D01*
X133850124Y-19241525D01*
X133851329Y-19240135D01*
X133853000Y-19232452D01*
X133853000Y-18927110D01*
X133852700Y-18920965D01*
X133838830Y-18779519D01*
X133836447Y-18767481D01*
X133781458Y-18585349D01*
X133776783Y-18574007D01*
X133687465Y-18406023D01*
X133680678Y-18395807D01*
X133560428Y-18248366D01*
X133551784Y-18239662D01*
X133405191Y-18118390D01*
X133395020Y-18111530D01*
X133227658Y-18021038D01*
X133216353Y-18016286D01*
X133091308Y-17977578D01*
X133077205Y-17977372D01*
X133074000Y-17984127D01*
X133074000Y-19227885D01*
X132566000Y-19227885D01*
X132566000Y-17991014D01*
X132562027Y-17977483D01*
X132554232Y-17976363D01*
X132437068Y-18010846D01*
X132425700Y-18015439D01*
X132257089Y-18103586D01*
X132246827Y-18110302D01*
X132098557Y-18229515D01*
X132089787Y-18238103D01*
X131967501Y-18383838D01*
X131960563Y-18393969D01*
X131868906Y-18560692D01*
X131864076Y-18571962D01*
X131806548Y-18753315D01*
X131803998Y-18765309D01*
X131787393Y-18913350D01*
X131787000Y-18920374D01*
X131787000Y-19227885D01*
X125213000Y-19227885D01*
X125213000Y-18927110D01*
X125212700Y-18920965D01*
X125198830Y-18779519D01*
X125196447Y-18767481D01*
X125141458Y-18585349D01*
X125136783Y-18574007D01*
X125047465Y-18406023D01*
X125040678Y-18395807D01*
X124920428Y-18248366D01*
X124911784Y-18239662D01*
X124765191Y-18118390D01*
X124755020Y-18111530D01*
X124587658Y-18021038D01*
X124576353Y-18016286D01*
X124451308Y-17977578D01*
X124437205Y-17977372D01*
X124434000Y-17984127D01*
X124434000Y-19227885D01*
X124008500Y-19227885D01*
X124008500Y-17634500D01*
X124028502Y-17566379D01*
X124082158Y-17519886D01*
X124134500Y-17508500D01*
X135327994Y-17508500D01*
X135396115Y-17528502D01*
G37*
%TD.AperFunction*%
%TD*%
M02*
