%TF.GenerationSoftware,KiCad,Pcbnew,(6.0.4)*%
%TF.CreationDate,2023-01-21T01:53:35+00:00*%
%TF.ProjectId,Diff_probe,44696666-5f70-4726-9f62-652e6b696361,rev?*%
%TF.SameCoordinates,Original*%
%TF.FileFunction,Copper,L1,Top*%
%TF.FilePolarity,Positive*%
%FSLAX46Y46*%
G04 Gerber Fmt 4.6, Leading zero omitted, Abs format (unit mm)*
G04 Created by KiCad (PCBNEW (6.0.4)) date 2023-01-21 01:53:35*
%MOMM*%
%LPD*%
G01*
G04 APERTURE LIST*
G04 Aperture macros list*
%AMRoundRect*
0 Rectangle with rounded corners*
0 $1 Rounding radius*
0 $2 $3 $4 $5 $6 $7 $8 $9 X,Y pos of 4 corners*
0 Add a 4 corners polygon primitive as box body*
4,1,4,$2,$3,$4,$5,$6,$7,$8,$9,$2,$3,0*
0 Add four circle primitives for the rounded corners*
1,1,$1+$1,$2,$3*
1,1,$1+$1,$4,$5*
1,1,$1+$1,$6,$7*
1,1,$1+$1,$8,$9*
0 Add four rect primitives between the rounded corners*
20,1,$1+$1,$2,$3,$4,$5,0*
20,1,$1+$1,$4,$5,$6,$7,0*
20,1,$1+$1,$6,$7,$8,$9,0*
20,1,$1+$1,$8,$9,$2,$3,0*%
%AMFreePoly0*
4,1,6,1.000000,0.000000,0.500000,-0.750000,-0.500000,-0.750000,-0.500000,0.750000,0.500000,0.750000,1.000000,0.000000,1.000000,0.000000,$1*%
%AMFreePoly1*
4,1,7,0.700000,0.000000,1.200000,-0.750000,-1.200000,-0.750000,-0.700000,0.000000,-1.200000,0.750000,1.200000,0.750000,0.700000,0.000000,0.700000,0.000000,$1*%
%AMFreePoly2*
4,1,6,0.500000,-0.750000,-0.650000,-0.750000,-0.150000,0.000000,-0.650000,0.750000,0.500000,0.750000,0.500000,-0.750000,0.500000,-0.750000,$1*%
G04 Aperture macros list end*
%TA.AperFunction,SMDPad,CuDef*%
%ADD10RoundRect,0.250000X0.262500X0.450000X-0.262500X0.450000X-0.262500X-0.450000X0.262500X-0.450000X0*%
%TD*%
%TA.AperFunction,SMDPad,CuDef*%
%ADD11RoundRect,0.250000X-0.262500X-0.450000X0.262500X-0.450000X0.262500X0.450000X-0.262500X0.450000X0*%
%TD*%
%TA.AperFunction,SMDPad,CuDef*%
%ADD12FreePoly0,90.000000*%
%TD*%
%TA.AperFunction,SMDPad,CuDef*%
%ADD13FreePoly1,90.000000*%
%TD*%
%TA.AperFunction,SMDPad,CuDef*%
%ADD14FreePoly0,270.000000*%
%TD*%
%TA.AperFunction,SMDPad,CuDef*%
%ADD15RoundRect,0.200000X-0.200000X-0.275000X0.200000X-0.275000X0.200000X0.275000X-0.200000X0.275000X0*%
%TD*%
%TA.AperFunction,SMDPad,CuDef*%
%ADD16RoundRect,0.225000X0.225000X0.250000X-0.225000X0.250000X-0.225000X-0.250000X0.225000X-0.250000X0*%
%TD*%
%TA.AperFunction,ComponentPad*%
%ADD17R,2.500000X2.500000*%
%TD*%
%TA.AperFunction,ComponentPad*%
%ADD18R,1.700000X1.700000*%
%TD*%
%TA.AperFunction,ComponentPad*%
%ADD19O,1.700000X1.700000*%
%TD*%
%TA.AperFunction,SMDPad,CuDef*%
%ADD20FreePoly0,0.000000*%
%TD*%
%TA.AperFunction,SMDPad,CuDef*%
%ADD21FreePoly2,0.000000*%
%TD*%
%TA.AperFunction,SMDPad,CuDef*%
%ADD22RoundRect,0.225000X-0.250000X0.225000X-0.250000X-0.225000X0.250000X-0.225000X0.250000X0.225000X0*%
%TD*%
%TA.AperFunction,SMDPad,CuDef*%
%ADD23RoundRect,0.250000X1.425000X-0.362500X1.425000X0.362500X-1.425000X0.362500X-1.425000X-0.362500X0*%
%TD*%
%TA.AperFunction,SMDPad,CuDef*%
%ADD24RoundRect,0.200000X0.200000X0.275000X-0.200000X0.275000X-0.200000X-0.275000X0.200000X-0.275000X0*%
%TD*%
%TA.AperFunction,SMDPad,CuDef*%
%ADD25FreePoly0,180.000000*%
%TD*%
%TA.AperFunction,SMDPad,CuDef*%
%ADD26FreePoly2,180.000000*%
%TD*%
%TA.AperFunction,SMDPad,CuDef*%
%ADD27RoundRect,0.250000X-0.450000X0.262500X-0.450000X-0.262500X0.450000X-0.262500X0.450000X0.262500X0*%
%TD*%
%TA.AperFunction,SMDPad,CuDef*%
%ADD28RoundRect,0.200000X0.275000X-0.200000X0.275000X0.200000X-0.275000X0.200000X-0.275000X-0.200000X0*%
%TD*%
%TA.AperFunction,SMDPad,CuDef*%
%ADD29R,0.600000X1.450000*%
%TD*%
%TA.AperFunction,SMDPad,CuDef*%
%ADD30R,0.300000X1.450000*%
%TD*%
%TA.AperFunction,ComponentPad*%
%ADD31O,1.050000X2.100000*%
%TD*%
%TA.AperFunction,SMDPad,CuDef*%
%ADD32RoundRect,0.150000X-0.725000X-0.150000X0.725000X-0.150000X0.725000X0.150000X-0.725000X0.150000X0*%
%TD*%
%TA.AperFunction,SMDPad,CuDef*%
%ADD33RoundRect,0.250000X0.450000X0.425000X-0.450000X0.425000X-0.450000X-0.425000X0.450000X-0.425000X0*%
%TD*%
%TA.AperFunction,SMDPad,CuDef*%
%ADD34RoundRect,0.250000X-0.425000X0.450000X-0.425000X-0.450000X0.425000X-0.450000X0.425000X0.450000X0*%
%TD*%
%TA.AperFunction,SMDPad,CuDef*%
%ADD35RoundRect,0.150000X0.150000X-0.587500X0.150000X0.587500X-0.150000X0.587500X-0.150000X-0.587500X0*%
%TD*%
%TA.AperFunction,ViaPad*%
%ADD36C,0.800000*%
%TD*%
%TA.AperFunction,Conductor*%
%ADD37C,0.250000*%
%TD*%
%TA.AperFunction,Conductor*%
%ADD38C,0.500000*%
%TD*%
G04 APERTURE END LIST*
D10*
%TO.P,R42,1*%
%TO.N,Net-(R41-Pad2)*%
X152712500Y-26300000D03*
%TO.P,R42,2*%
%TO.N,GND*%
X150887500Y-26300000D03*
%TD*%
D11*
%TO.P,R41,1*%
%TO.N,+5V*%
X150887500Y-24300000D03*
%TO.P,R41,2*%
%TO.N,Net-(R41-Pad2)*%
X152712500Y-24300000D03*
%TD*%
D12*
%TO.P,JP9,1,A*%
%TO.N,Net-(U3-Pad2)*%
X158400000Y-32200000D03*
D13*
%TO.P,JP9,2,C*%
%TO.N,+2V5*%
X158400000Y-30200000D03*
D14*
%TO.P,JP9,3,B*%
%TO.N,Net-(R41-Pad2)*%
X158400000Y-28200000D03*
%TD*%
D15*
%TO.P,R32,1*%
%TO.N,+2V5*%
X173675000Y-35500000D03*
%TO.P,R32,2*%
%TO.N,Net-(JP6-Pad2)*%
X175325000Y-35500000D03*
%TD*%
D16*
%TO.P,C6,1*%
%TO.N,GND*%
X140775000Y-23500000D03*
%TO.P,C6,2*%
%TO.N,Output1*%
X139225000Y-23500000D03*
%TD*%
D17*
%TO.P,TP11,1,1*%
%TO.N,Net-(R23-Pad1)*%
X173000000Y-58500000D03*
%TD*%
D18*
%TO.P,J5,1,Pin_1*%
%TO.N,GND*%
X177525000Y-19000000D03*
D19*
%TO.P,J5,2,Pin_2*%
%TO.N,Output4*%
X174985000Y-19000000D03*
%TO.P,J5,3,Pin_3*%
%TO.N,+5V*%
X172445000Y-19000000D03*
%TD*%
D20*
%TO.P,JP3,1,A*%
%TO.N,+2V5*%
X143275000Y-37500000D03*
D21*
%TO.P,JP3,2,B*%
%TO.N,Net-(JP3-Pad2)*%
X144725000Y-37500000D03*
%TD*%
D17*
%TO.P,TP13,1,1*%
%TO.N,Net-(JP7-Pad2)*%
X167500000Y-26000000D03*
%TD*%
%TO.P,TP4,1,1*%
%TO.N,Net-(R2-Pad1)*%
X143000000Y-58500000D03*
%TD*%
%TO.P,TP9,1,1*%
%TO.N,Net-(R21-Pad1)*%
X158000000Y-58500000D03*
%TD*%
D22*
%TO.P,C10,1*%
%TO.N,GND*%
X168500000Y-21725000D03*
%TO.P,C10,2*%
%TO.N,Output3*%
X168500000Y-23275000D03*
%TD*%
D23*
%TO.P,R2,1*%
%TO.N,Net-(R2-Pad1)*%
X143000000Y-55462500D03*
%TO.P,R2,2*%
%TO.N,Net-(R13-Pad1)*%
X143000000Y-49537500D03*
%TD*%
D18*
%TO.P,J1,1,Pin_1*%
%TO.N,GND*%
X141000000Y-19000000D03*
D19*
%TO.P,J1,2,Pin_2*%
%TO.N,Output1*%
X138460000Y-19000000D03*
%TO.P,J1,3,Pin_3*%
%TO.N,+5V*%
X135920000Y-19000000D03*
%TD*%
D18*
%TO.P,J3,1,Pin_1*%
%TO.N,GND*%
X150025000Y-19000000D03*
D19*
%TO.P,J3,2,Pin_2*%
%TO.N,Output2*%
X147485000Y-19000000D03*
%TO.P,J3,3,Pin_3*%
%TO.N,+5V*%
X144945000Y-19000000D03*
%TD*%
D23*
%TO.P,R3,1*%
%TO.N,Net-(R3-Pad1)*%
X128000000Y-55462500D03*
%TO.P,R3,2*%
%TO.N,Net-(R1-Pad1)*%
X128000000Y-49537500D03*
%TD*%
D15*
%TO.P,R17,1*%
%TO.N,Net-(R14-Pad2)*%
X143675000Y-32500000D03*
%TO.P,R17,2*%
%TO.N,Net-(JP4-Pad1)*%
X145325000Y-32500000D03*
%TD*%
%TO.P,R30,1*%
%TO.N,+2V5*%
X169675000Y-35500000D03*
%TO.P,R30,2*%
%TO.N,Net-(JP5-Pad2)*%
X171325000Y-35500000D03*
%TD*%
D24*
%TO.P,R18,1*%
%TO.N,Net-(JP4-Pad1)*%
X145325000Y-31000000D03*
%TO.P,R18,2*%
%TO.N,Net-(JP4-Pad2)*%
X143675000Y-31000000D03*
%TD*%
D15*
%TO.P,R9,1*%
%TO.N,Net-(JP2-Pad1)*%
X132675000Y-30000000D03*
%TO.P,R9,2*%
%TO.N,Net-(JP2-Pad2)*%
X134325000Y-30000000D03*
%TD*%
D20*
%TO.P,JP1,1,A*%
%TO.N,+2V5*%
X136775000Y-37500000D03*
D21*
%TO.P,JP1,2,B*%
%TO.N,Net-(JP1-Pad2)*%
X138225000Y-37500000D03*
%TD*%
D25*
%TO.P,JP4,1,A*%
%TO.N,Net-(JP4-Pad1)*%
X145225000Y-29000000D03*
D26*
%TO.P,JP4,2,B*%
%TO.N,Net-(JP4-Pad2)*%
X143775000Y-29000000D03*
%TD*%
D15*
%TO.P,R29,1*%
%TO.N,Net-(R25-Pad2)*%
X166675000Y-39500000D03*
%TO.P,R29,2*%
%TO.N,Net-(JP5-Pad2)*%
X168325000Y-39500000D03*
%TD*%
%TO.P,R31,1*%
%TO.N,Net-(R27-Pad2)*%
X174000000Y-39500000D03*
%TO.P,R31,2*%
%TO.N,Net-(JP6-Pad2)*%
X175650000Y-39500000D03*
%TD*%
D20*
%TO.P,JP5,1,A*%
%TO.N,+2V5*%
X168050000Y-37500000D03*
D21*
%TO.P,JP5,2,B*%
%TO.N,Net-(JP5-Pad2)*%
X169500000Y-37500000D03*
%TD*%
D24*
%TO.P,R7,1*%
%TO.N,Net-(R5-Pad2)*%
X134325000Y-31500000D03*
%TO.P,R7,2*%
%TO.N,Net-(JP2-Pad1)*%
X132675000Y-31500000D03*
%TD*%
D23*
%TO.P,R13,1*%
%TO.N,Net-(R13-Pad1)*%
X143000000Y-47552500D03*
%TO.P,R13,2*%
%TO.N,Net-(R13-Pad2)*%
X143000000Y-41627500D03*
%TD*%
D27*
%TO.P,FB1,1*%
%TO.N,Net-(FB1-Pad1)*%
X126000000Y-27087500D03*
%TO.P,FB1,2*%
%TO.N,+5V*%
X126000000Y-28912500D03*
%TD*%
D23*
%TO.P,R27,1*%
%TO.N,Net-(R23-Pad2)*%
X173000000Y-47462500D03*
%TO.P,R27,2*%
%TO.N,Net-(R27-Pad2)*%
X173000000Y-41537500D03*
%TD*%
D28*
%TO.P,R38,1*%
%TO.N,Net-(JP8-Pad2)*%
X175500000Y-23325000D03*
%TO.P,R38,2*%
%TO.N,Output4*%
X175500000Y-21675000D03*
%TD*%
D18*
%TO.P,J4,1,Pin_1*%
%TO.N,GND*%
X168500000Y-19000000D03*
D19*
%TO.P,J4,2,Pin_2*%
%TO.N,Output3*%
X165960000Y-19000000D03*
%TO.P,J4,3,Pin_3*%
%TO.N,+5V*%
X163420000Y-19000000D03*
%TD*%
D29*
%TO.P,J2,A1B12,GND*%
%TO.N,GND*%
X131750000Y-24595000D03*
%TO.P,J2,A4B9,VBUS*%
%TO.N,Net-(FB1-Pad1)*%
X130950000Y-24595000D03*
D30*
%TO.P,J2,A5,CC1*%
%TO.N,unconnected-(J2-PadA5)*%
X129750000Y-24595000D03*
%TO.P,J2,A6,DP1*%
%TO.N,unconnected-(J2-PadA6)*%
X128750000Y-24595000D03*
%TO.P,J2,A7,DN1*%
%TO.N,unconnected-(J2-PadA7)*%
X128250000Y-24595000D03*
%TO.P,J2,A8,SBU1*%
%TO.N,unconnected-(J2-PadA8)*%
X127250000Y-24595000D03*
D29*
%TO.P,J2,B1A12,GND*%
%TO.N,GND*%
X125250000Y-24595000D03*
%TO.P,J2,B4A9,VBUS*%
%TO.N,Net-(FB1-Pad1)*%
X126050000Y-24595000D03*
D30*
%TO.P,J2,B5,CC2*%
%TO.N,unconnected-(J2-PadB5)*%
X126750000Y-24595000D03*
%TO.P,J2,B6,DP2*%
%TO.N,unconnected-(J2-PadB6)*%
X127750000Y-24595000D03*
%TO.P,J2,B7,DN2*%
%TO.N,unconnected-(J2-PadB7)*%
X129250000Y-24595000D03*
%TO.P,J2,B8,SBU2*%
%TO.N,unconnected-(J2-PadB8)*%
X130250000Y-24595000D03*
D31*
%TO.P,J2,S1,SHIELD*%
%TO.N,GND*%
X132820000Y-23680000D03*
%TO.P,J2,S2,SHIELD*%
X124180000Y-23680000D03*
%TO.P,J2,S3,SHIELD*%
X132820000Y-19500000D03*
%TO.P,J2,S4,SHIELD*%
X124180000Y-19500000D03*
%TD*%
D32*
%TO.P,U1,1*%
%TO.N,Net-(JP2-Pad2)*%
X136425000Y-30095000D03*
%TO.P,U1,2,-*%
%TO.N,Net-(R5-Pad2)*%
X136425000Y-31365000D03*
%TO.P,U1,3,+*%
%TO.N,Net-(R1-Pad2)*%
X136425000Y-32635000D03*
%TO.P,U1,4,V-*%
%TO.N,GND*%
X136425000Y-33905000D03*
%TO.P,U1,5,+*%
%TO.N,Net-(R13-Pad2)*%
X141575000Y-33905000D03*
%TO.P,U1,6,-*%
%TO.N,Net-(R14-Pad2)*%
X141575000Y-32635000D03*
%TO.P,U1,7*%
%TO.N,Net-(JP4-Pad2)*%
X141575000Y-31365000D03*
%TO.P,U1,8,V+*%
%TO.N,+5V*%
X141575000Y-30095000D03*
%TD*%
D23*
%TO.P,R4,1*%
%TO.N,Net-(R4-Pad1)*%
X135500000Y-55462500D03*
%TO.P,R4,2*%
%TO.N,Net-(R4-Pad2)*%
X135500000Y-49537500D03*
%TD*%
D17*
%TO.P,TP10,1,1*%
%TO.N,Net-(R22-Pad1)*%
X165500000Y-58500000D03*
%TD*%
D15*
%TO.P,R15,1*%
%TO.N,Net-(R13-Pad2)*%
X143175000Y-39500000D03*
%TO.P,R15,2*%
%TO.N,Net-(JP3-Pad2)*%
X144825000Y-39500000D03*
%TD*%
D28*
%TO.P,R19,1*%
%TO.N,Net-(JP4-Pad2)*%
X144500000Y-23325000D03*
%TO.P,R19,2*%
%TO.N,Output2*%
X144500000Y-21675000D03*
%TD*%
D23*
%TO.P,R23,1*%
%TO.N,Net-(R23-Pad1)*%
X173000000Y-55462500D03*
%TO.P,R23,2*%
%TO.N,Net-(R23-Pad2)*%
X173000000Y-49537500D03*
%TD*%
D25*
%TO.P,JP8,1,A*%
%TO.N,Net-(JP8-Pad1)*%
X175725000Y-29000000D03*
D26*
%TO.P,JP8,2,B*%
%TO.N,Net-(JP8-Pad2)*%
X174275000Y-29000000D03*
%TD*%
D23*
%TO.P,R25,1*%
%TO.N,Net-(R21-Pad2)*%
X158000000Y-47462500D03*
%TO.P,R25,2*%
%TO.N,Net-(R25-Pad2)*%
X158000000Y-41537500D03*
%TD*%
D15*
%TO.P,R11,1*%
%TO.N,Output1*%
X139175000Y-22000000D03*
%TO.P,R11,2*%
%TO.N,GND*%
X140825000Y-22000000D03*
%TD*%
D17*
%TO.P,TP1,1,1*%
%TO.N,Net-(R3-Pad1)*%
X128000000Y-58500000D03*
%TD*%
D16*
%TO.P,C9,1*%
%TO.N,GND*%
X149275000Y-23500000D03*
%TO.P,C9,2*%
%TO.N,Output2*%
X147725000Y-23500000D03*
%TD*%
D28*
%TO.P,R37,1*%
%TO.N,Net-(JP7-Pad2)*%
X167000000Y-23325000D03*
%TO.P,R37,2*%
%TO.N,Output3*%
X167000000Y-21675000D03*
%TD*%
%TO.P,R10,1*%
%TO.N,Net-(JP2-Pad2)*%
X136500000Y-23325000D03*
%TO.P,R10,2*%
%TO.N,Output1*%
X136500000Y-21675000D03*
%TD*%
D17*
%TO.P,TP8,1,1*%
%TO.N,GND*%
X154450000Y-19000000D03*
%TD*%
D16*
%TO.P,C5,1*%
%TO.N,+2V5*%
X168275000Y-35500000D03*
%TO.P,C5,2*%
%TO.N,GND*%
X166725000Y-35500000D03*
%TD*%
D28*
%TO.P,R40,1*%
%TO.N,Output4*%
X178500000Y-23325000D03*
%TO.P,R40,2*%
%TO.N,GND*%
X178500000Y-21675000D03*
%TD*%
D15*
%TO.P,R6,1*%
%TO.N,Net-(R1-Pad2)*%
X135675000Y-39500000D03*
%TO.P,R6,2*%
%TO.N,Net-(JP1-Pad2)*%
X137325000Y-39500000D03*
%TD*%
D23*
%TO.P,R24,1*%
%TO.N,Net-(R24-Pad1)*%
X180500000Y-55425000D03*
%TO.P,R24,2*%
%TO.N,Net-(R24-Pad2)*%
X180500000Y-49500000D03*
%TD*%
D28*
%TO.P,R39,1*%
%TO.N,Output3*%
X170000000Y-23325000D03*
%TO.P,R39,2*%
%TO.N,GND*%
X170000000Y-21675000D03*
%TD*%
D23*
%TO.P,R22,1*%
%TO.N,Net-(R22-Pad1)*%
X165500000Y-55500000D03*
%TO.P,R22,2*%
%TO.N,Net-(R22-Pad2)*%
X165500000Y-49575000D03*
%TD*%
D17*
%TO.P,TP6,1,1*%
%TO.N,Net-(JP4-Pad2)*%
X144500000Y-26000000D03*
%TD*%
D15*
%TO.P,R34,1*%
%TO.N,Net-(R28-Pad2)*%
X174175000Y-32500000D03*
%TO.P,R34,2*%
%TO.N,Net-(JP8-Pad1)*%
X175825000Y-32500000D03*
%TD*%
D24*
%TO.P,R33,1*%
%TO.N,Net-(R26-Pad2)*%
X164825000Y-31500000D03*
%TO.P,R33,2*%
%TO.N,Net-(JP7-Pad1)*%
X163175000Y-31500000D03*
%TD*%
D23*
%TO.P,R14,1*%
%TO.N,Net-(R12-Pad2)*%
X150500000Y-47462500D03*
%TO.P,R14,2*%
%TO.N,Net-(R14-Pad2)*%
X150500000Y-41537500D03*
%TD*%
D17*
%TO.P,TP14,1,1*%
%TO.N,Net-(JP8-Pad2)*%
X175000000Y-26000000D03*
%TD*%
D23*
%TO.P,R1,1*%
%TO.N,Net-(R1-Pad1)*%
X128000000Y-47462500D03*
%TO.P,R1,2*%
%TO.N,Net-(R1-Pad2)*%
X128000000Y-41537500D03*
%TD*%
D33*
%TO.P,C1,1*%
%TO.N,+2V5*%
X157500000Y-34362500D03*
%TO.P,C1,2*%
%TO.N,GND*%
X154800000Y-34362500D03*
%TD*%
D15*
%TO.P,R20,1*%
%TO.N,Output2*%
X147675000Y-22000000D03*
%TO.P,R20,2*%
%TO.N,GND*%
X149325000Y-22000000D03*
%TD*%
D16*
%TO.P,C7,1*%
%TO.N,+5V*%
X171775000Y-28500000D03*
%TO.P,C7,2*%
%TO.N,GND*%
X170225000Y-28500000D03*
%TD*%
D34*
%TO.P,C3,1*%
%TO.N,+5V*%
X151206250Y-29287500D03*
%TO.P,C3,2*%
%TO.N,GND*%
X151206250Y-31987500D03*
%TD*%
D22*
%TO.P,C11,1*%
%TO.N,GND*%
X177000000Y-21725000D03*
%TO.P,C11,2*%
%TO.N,Output4*%
X177000000Y-23275000D03*
%TD*%
D33*
%TO.P,C4,1*%
%TO.N,+2V5*%
X157500000Y-36862500D03*
%TO.P,C4,2*%
%TO.N,GND*%
X154800000Y-36862500D03*
%TD*%
D23*
%TO.P,R12,1*%
%TO.N,Net-(R12-Pad1)*%
X150500000Y-55462500D03*
%TO.P,R12,2*%
%TO.N,Net-(R12-Pad2)*%
X150500000Y-49537500D03*
%TD*%
D17*
%TO.P,TP7,1,1*%
%TO.N,+5V*%
X158000000Y-19000000D03*
%TD*%
D32*
%TO.P,U2,1*%
%TO.N,Net-(JP7-Pad2)*%
X166925000Y-30095000D03*
%TO.P,U2,2,-*%
%TO.N,Net-(R26-Pad2)*%
X166925000Y-31365000D03*
%TO.P,U2,3,+*%
%TO.N,Net-(R25-Pad2)*%
X166925000Y-32635000D03*
%TO.P,U2,4,V-*%
%TO.N,GND*%
X166925000Y-33905000D03*
%TO.P,U2,5,+*%
%TO.N,Net-(R27-Pad2)*%
X172075000Y-33905000D03*
%TO.P,U2,6,-*%
%TO.N,Net-(R28-Pad2)*%
X172075000Y-32635000D03*
%TO.P,U2,7*%
%TO.N,Net-(JP8-Pad2)*%
X172075000Y-31365000D03*
%TO.P,U2,8,V+*%
%TO.N,+5V*%
X172075000Y-30095000D03*
%TD*%
D17*
%TO.P,TP12,1,1*%
%TO.N,Net-(R24-Pad1)*%
X180500000Y-58462500D03*
%TD*%
D23*
%TO.P,R21,1*%
%TO.N,Net-(R21-Pad1)*%
X158000000Y-55500000D03*
%TO.P,R21,2*%
%TO.N,Net-(R21-Pad2)*%
X158000000Y-49575000D03*
%TD*%
D20*
%TO.P,JP6,1,A*%
%TO.N,+2V5*%
X174000000Y-37500000D03*
D21*
%TO.P,JP6,2,B*%
%TO.N,Net-(JP6-Pad2)*%
X175450000Y-37500000D03*
%TD*%
D17*
%TO.P,TP5,1,1*%
%TO.N,Net-(R12-Pad1)*%
X150500000Y-58500000D03*
%TD*%
D20*
%TO.P,JP2,1,A*%
%TO.N,Net-(JP2-Pad1)*%
X132275000Y-28000000D03*
D21*
%TO.P,JP2,2,B*%
%TO.N,Net-(JP2-Pad2)*%
X133725000Y-28000000D03*
%TD*%
D35*
%TO.P,U3,1,GND*%
%TO.N,GND*%
X153256250Y-32075000D03*
%TO.P,U3,2,VO*%
%TO.N,Net-(U3-Pad2)*%
X155156250Y-32075000D03*
%TO.P,U3,3,VI*%
%TO.N,+5V*%
X154206250Y-30200000D03*
%TD*%
D15*
%TO.P,R35,1*%
%TO.N,Net-(JP7-Pad1)*%
X163175000Y-30000000D03*
%TO.P,R35,2*%
%TO.N,Net-(JP7-Pad2)*%
X164825000Y-30000000D03*
%TD*%
D23*
%TO.P,R26,1*%
%TO.N,Net-(R22-Pad2)*%
X165500000Y-47500000D03*
%TO.P,R26,2*%
%TO.N,Net-(R26-Pad2)*%
X165500000Y-41575000D03*
%TD*%
%TO.P,R28,1*%
%TO.N,Net-(R24-Pad2)*%
X180500000Y-47395000D03*
%TO.P,R28,2*%
%TO.N,Net-(R28-Pad2)*%
X180500000Y-41470000D03*
%TD*%
D15*
%TO.P,R16,1*%
%TO.N,+2V5*%
X143175000Y-35500000D03*
%TO.P,R16,2*%
%TO.N,Net-(JP3-Pad2)*%
X144825000Y-35500000D03*
%TD*%
D16*
%TO.P,C8,1*%
%TO.N,+5V*%
X141275000Y-28500000D03*
%TO.P,C8,2*%
%TO.N,GND*%
X139725000Y-28500000D03*
%TD*%
D15*
%TO.P,R8,1*%
%TO.N,+2V5*%
X139175000Y-35500000D03*
%TO.P,R8,2*%
%TO.N,Net-(JP1-Pad2)*%
X140825000Y-35500000D03*
%TD*%
D23*
%TO.P,R5,1*%
%TO.N,Net-(R4-Pad2)*%
X135500000Y-47462500D03*
%TO.P,R5,2*%
%TO.N,Net-(R5-Pad2)*%
X135500000Y-41537500D03*
%TD*%
D20*
%TO.P,JP7,1,A*%
%TO.N,Net-(JP7-Pad1)*%
X163275000Y-28000000D03*
D21*
%TO.P,JP7,2,B*%
%TO.N,Net-(JP7-Pad2)*%
X164725000Y-28000000D03*
%TD*%
D17*
%TO.P,TP3,1,1*%
%TO.N,Net-(JP2-Pad2)*%
X136500000Y-26000000D03*
%TD*%
%TO.P,TP2,1,1*%
%TO.N,Net-(R4-Pad1)*%
X135500000Y-58500000D03*
%TD*%
D16*
%TO.P,C2,1*%
%TO.N,+2V5*%
X137775000Y-35500000D03*
%TO.P,C2,2*%
%TO.N,GND*%
X136225000Y-35500000D03*
%TD*%
D24*
%TO.P,R36,1*%
%TO.N,Net-(JP8-Pad1)*%
X175825000Y-31000000D03*
%TO.P,R36,2*%
%TO.N,Net-(JP8-Pad2)*%
X174175000Y-31000000D03*
%TD*%
D36*
%TO.N,GND*%
X151500000Y-26300000D03*
%TO.N,+5V*%
X151525500Y-24800000D03*
%TO.N,+2V5*%
X143275000Y-36725000D03*
X136504845Y-36572675D03*
X157500000Y-34362500D03*
X168050000Y-36450000D03*
X174000000Y-36500000D03*
%TO.N,GND*%
X169275000Y-21725000D03*
X166725000Y-34775000D03*
X177825000Y-21675000D03*
X170225000Y-29275000D03*
X151675000Y-32456250D03*
X139725000Y-29275000D03*
X153256250Y-32075000D03*
X149275000Y-22500000D03*
X136225000Y-34275000D03*
X167927223Y-33481346D03*
%TO.N,+5V*%
X172075000Y-29075000D03*
X141575000Y-29575000D03*
X153081250Y-30200000D03*
X127000000Y-30000000D03*
X151375000Y-29456250D03*
%TD*%
D37*
%TO.N,+2V5*%
X158337500Y-34362500D02*
X157500000Y-34362500D01*
X159474520Y-31565580D02*
X159474520Y-33225480D01*
X158784420Y-30875480D02*
X159474520Y-31565580D01*
X159474520Y-33225480D02*
X158337500Y-34362500D01*
X158400000Y-30875480D02*
X158784420Y-30875480D01*
X158400000Y-30200000D02*
X158400000Y-30875480D01*
%TO.N,Net-(R41-Pad2)*%
X156500000Y-26300000D02*
X158400000Y-28200000D01*
%TO.N,Net-(U3-Pad2)*%
X155156250Y-32075000D02*
X158275000Y-32075000D01*
X158275000Y-32075000D02*
X158400000Y-32200000D01*
%TO.N,Net-(R41-Pad2)*%
X152525000Y-26300000D02*
X156500000Y-26300000D01*
%TO.N,GND*%
X150875000Y-26300000D02*
X151500000Y-26300000D01*
%TO.N,Net-(R41-Pad2)*%
X152525000Y-24800000D02*
X152525000Y-26300000D01*
%TO.N,+5V*%
X150875000Y-24800000D02*
X151525500Y-24800000D01*
D38*
%TO.N,GND*%
X152056250Y-32075000D02*
X151675000Y-32456250D01*
X153256250Y-32075000D02*
X152056250Y-32075000D01*
X153256250Y-32818750D02*
X153256250Y-32075000D01*
X154800000Y-34362500D02*
X153256250Y-32818750D01*
%TO.N,+2V5*%
X139175000Y-35500000D02*
X137775000Y-35500000D01*
X136504845Y-36572675D02*
X136702325Y-36572675D01*
X157500000Y-36862500D02*
X157500000Y-34362500D01*
X174000000Y-35825000D02*
X173675000Y-35500000D01*
X168050000Y-35725000D02*
X168275000Y-35500000D01*
X143275000Y-35600000D02*
X143275000Y-36725000D01*
X136775000Y-36842830D02*
X136775000Y-37500000D01*
X143175000Y-35500000D02*
X143275000Y-35600000D01*
X136504845Y-36572675D02*
X136775000Y-36842830D01*
X174000000Y-37500000D02*
X174000000Y-35825000D01*
X169675000Y-35500000D02*
X168275000Y-35500000D01*
X143275000Y-37500000D02*
X143275000Y-36725000D01*
X136702325Y-36572675D02*
X137775000Y-35500000D01*
X168050000Y-37500000D02*
X168050000Y-35725000D01*
%TO.N,GND*%
X131905000Y-24595000D02*
X132820000Y-23680000D01*
X136425000Y-33905000D02*
X136425000Y-34075000D01*
X149275000Y-23500000D02*
X149275000Y-22050000D01*
X168500000Y-21725000D02*
X169950000Y-21725000D01*
X139725000Y-29275000D02*
X139725000Y-31057849D01*
X132820000Y-23155000D02*
X131965479Y-22300479D01*
X139725000Y-31057849D02*
X136877849Y-33905000D01*
X140775000Y-22050000D02*
X140825000Y-22000000D01*
X149325000Y-19700000D02*
X150025000Y-19000000D01*
X177050000Y-21675000D02*
X177000000Y-21725000D01*
X166725000Y-34105000D02*
X166925000Y-33905000D01*
X136425000Y-34075000D02*
X136225000Y-34275000D01*
X166925000Y-33905000D02*
X167503569Y-33905000D01*
X178500000Y-21675000D02*
X177050000Y-21675000D01*
X170225000Y-31057849D02*
X167377849Y-33905000D01*
X149325000Y-22000000D02*
X149325000Y-19700000D01*
X177000000Y-19525000D02*
X177525000Y-19000000D01*
X140825000Y-22000000D02*
X140825000Y-19175000D01*
X136877849Y-33905000D02*
X136425000Y-33905000D01*
X136225000Y-35500000D02*
X136225000Y-34275000D01*
X125199521Y-22300479D02*
X124180000Y-23320000D01*
X140775000Y-23500000D02*
X140775000Y-22050000D01*
X170225000Y-28500000D02*
X170225000Y-29275000D01*
X170225000Y-29275000D02*
X170225000Y-31057849D01*
X169950000Y-21725000D02*
X170000000Y-21675000D01*
X124180000Y-23320000D02*
X124180000Y-23680000D01*
X139725000Y-28500000D02*
X139725000Y-29275000D01*
X177000000Y-21725000D02*
X177000000Y-19525000D01*
X125095000Y-24595000D02*
X124180000Y-23680000D01*
X167503569Y-33905000D02*
X167927223Y-33481346D01*
X167377849Y-33905000D02*
X166925000Y-33905000D01*
X154800000Y-36862500D02*
X154800000Y-34362500D01*
X168500000Y-21725000D02*
X168500000Y-19000000D01*
X131965479Y-22300479D02*
X125199521Y-22300479D01*
X166725000Y-35500000D02*
X166725000Y-34105000D01*
X140825000Y-19175000D02*
X141000000Y-19000000D01*
X149275000Y-22050000D02*
X149325000Y-22000000D01*
X151206250Y-31987500D02*
X151675000Y-32456250D01*
X125250000Y-24595000D02*
X125095000Y-24595000D01*
X131750000Y-24595000D02*
X131905000Y-24595000D01*
%TO.N,+5V*%
X153081250Y-30200000D02*
X152118750Y-30200000D01*
X152118750Y-30200000D02*
X151375000Y-29456250D01*
X151375000Y-29456250D02*
X151206250Y-29287500D01*
X172075000Y-30095000D02*
X172075000Y-28800000D01*
X126850000Y-29850000D02*
X127000000Y-30000000D01*
X126000000Y-28912500D02*
X126850000Y-29762500D01*
X172075000Y-28800000D02*
X171775000Y-28500000D01*
X141575000Y-28800000D02*
X141275000Y-28500000D01*
X126850000Y-29762500D02*
X126850000Y-29850000D01*
X154206250Y-30200000D02*
X153081250Y-30200000D01*
X141575000Y-30095000D02*
X141575000Y-28800000D01*
%TO.N,Output1*%
X139175000Y-22000000D02*
X138275000Y-22000000D01*
X138275000Y-22000000D02*
X137950000Y-21675000D01*
X137950000Y-21675000D02*
X136500000Y-21675000D01*
X139175000Y-23450000D02*
X139175000Y-22000000D01*
X139225000Y-23500000D02*
X139175000Y-23450000D01*
X136500000Y-21675000D02*
X136500000Y-20960000D01*
X136500000Y-20960000D02*
X138460000Y-19000000D01*
%TO.N,Net-(R1-Pad1)*%
X128000000Y-49537500D02*
X128000000Y-47462500D01*
%TO.N,Net-(R1-Pad2)*%
X129062020Y-42599520D02*
X128000000Y-41537500D01*
X135675000Y-39500000D02*
X135100480Y-39500000D01*
X135100480Y-39500000D02*
X135100480Y-33506671D01*
X137214750Y-42599520D02*
X129062020Y-42599520D01*
X135675000Y-39500000D02*
X136650480Y-40475480D01*
X136650480Y-40475480D02*
X137214750Y-40475480D01*
X135972151Y-32635000D02*
X136425000Y-32635000D01*
X137214750Y-40475480D02*
X137624520Y-40885250D01*
X137624520Y-42189750D02*
X137214750Y-42599520D01*
X137624520Y-40885250D02*
X137624520Y-42189750D01*
X135100480Y-33506671D02*
X135972151Y-32635000D01*
%TO.N,Net-(R3-Pad1)*%
X128000000Y-55462500D02*
X128000000Y-58500000D01*
%TO.N,Net-(R4-Pad1)*%
X135500000Y-55462500D02*
X136000000Y-55962500D01*
X136000000Y-55962500D02*
X136000000Y-57500000D01*
%TO.N,Net-(R4-Pad2)*%
X135500000Y-49537500D02*
X135500000Y-47462500D01*
%TO.N,Net-(R5-Pad2)*%
X134325000Y-40362500D02*
X134325000Y-31500000D01*
X135500000Y-41537500D02*
X134325000Y-40362500D01*
X134460000Y-31365000D02*
X134325000Y-31500000D01*
X136425000Y-31365000D02*
X134460000Y-31365000D01*
%TO.N,Net-(JP1-Pad2)*%
X140825000Y-35500000D02*
X138825000Y-37500000D01*
X137325000Y-39500000D02*
X138225000Y-38600000D01*
X138225000Y-38600000D02*
X138225000Y-37500000D01*
X138825000Y-37500000D02*
X138225000Y-37500000D01*
%TO.N,Net-(JP2-Pad1)*%
X132275000Y-29275000D02*
X132275000Y-28000000D01*
X132675000Y-30000000D02*
X132675000Y-29675000D01*
X132675000Y-29675000D02*
X132275000Y-29275000D01*
X132675000Y-31500000D02*
X132675000Y-30000000D01*
%TO.N,Net-(JP2-Pad2)*%
X134420000Y-30095000D02*
X134325000Y-30000000D01*
X136425000Y-26075000D02*
X136500000Y-26000000D01*
X136500000Y-26000000D02*
X136500000Y-23325000D01*
X133725000Y-29400000D02*
X134325000Y-30000000D01*
X136425000Y-30095000D02*
X136425000Y-26075000D01*
X133725000Y-28000000D02*
X133725000Y-29400000D01*
X136425000Y-30095000D02*
X134420000Y-30095000D01*
%TO.N,Net-(FB1-Pad1)*%
X126050000Y-24595000D02*
X126050000Y-25669022D01*
X126050000Y-27037500D02*
X126050000Y-24595000D01*
X126050000Y-25669022D02*
X126150489Y-25769511D01*
X130730489Y-25769511D02*
X130950000Y-25550000D01*
X126150489Y-25769511D02*
X130730489Y-25769511D01*
X126000000Y-27087500D02*
X126050000Y-27037500D01*
X130950000Y-25550000D02*
X130950000Y-24595000D01*
%TO.N,Net-(JP3-Pad2)*%
X144725000Y-37500000D02*
X144725000Y-35600000D01*
X144725000Y-35600000D02*
X144825000Y-35500000D01*
X144825000Y-39500000D02*
X144825000Y-37600000D01*
X144825000Y-37600000D02*
X144725000Y-37500000D01*
%TO.N,Net-(JP4-Pad1)*%
X145325000Y-29100000D02*
X145225000Y-29000000D01*
X145325000Y-31000000D02*
X145325000Y-29100000D01*
X145325000Y-32500000D02*
X145325000Y-31000000D01*
%TO.N,Net-(JP4-Pad2)*%
X143775000Y-29225000D02*
X143775000Y-26725000D01*
X143775000Y-29000000D02*
X143775000Y-29225000D01*
X144500000Y-26000000D02*
X144500000Y-23325000D01*
X143775000Y-30900000D02*
X143675000Y-31000000D01*
X143775000Y-26725000D02*
X144500000Y-26000000D01*
X143775000Y-29225000D02*
X143775000Y-30900000D01*
X143310000Y-31365000D02*
X141575000Y-31365000D01*
X143675000Y-31000000D02*
X143310000Y-31365000D01*
%TO.N,Net-(R2-Pad1)*%
X143500000Y-58500000D02*
X143500000Y-55462500D01*
%TO.N,Net-(R13-Pad1)*%
X143500000Y-49537500D02*
X143500000Y-47552500D01*
%TO.N,Net-(R12-Pad1)*%
X150500000Y-58500000D02*
X150500000Y-55462500D01*
%TO.N,Net-(R12-Pad2)*%
X150500000Y-49537500D02*
X150500000Y-47462500D01*
%TO.N,Net-(R13-Pad2)*%
X143500000Y-41627500D02*
X145231780Y-41627500D01*
X147000000Y-39859280D02*
X147000000Y-35000000D01*
X143500000Y-39825000D02*
X143175000Y-39500000D01*
X141869520Y-34199520D02*
X141575000Y-33905000D01*
X145231780Y-41627500D02*
X147000000Y-39859280D01*
X143500000Y-41627500D02*
X143500000Y-39825000D01*
X147000000Y-35000000D02*
X146199520Y-34199520D01*
X146199520Y-34199520D02*
X141869520Y-34199520D01*
%TO.N,Net-(R14-Pad2)*%
X148565480Y-40565480D02*
X147699520Y-39699520D01*
X147699519Y-34710249D02*
X146489270Y-33500000D01*
X146489270Y-33500000D02*
X144431441Y-33500000D01*
X143675000Y-32500000D02*
X143540000Y-32635000D01*
X144431441Y-33500000D02*
X143566441Y-32635000D01*
X143540000Y-32635000D02*
X141575000Y-32635000D01*
X143566441Y-32635000D02*
X141575000Y-32635000D01*
X150500000Y-41537500D02*
X149527980Y-40565480D01*
X147699520Y-39699520D02*
X147699519Y-34710249D01*
X149527980Y-40565480D02*
X148565480Y-40565480D01*
%TO.N,Output2*%
X147350000Y-21675000D02*
X147675000Y-22000000D01*
X147725000Y-23500000D02*
X147725000Y-22050000D01*
X147675000Y-19190000D02*
X147485000Y-19000000D01*
X144500000Y-21675000D02*
X147350000Y-21675000D01*
X147675000Y-22000000D02*
X147675000Y-19190000D01*
X147725000Y-22050000D02*
X147675000Y-22000000D01*
%TO.N,Output3*%
X168550000Y-23325000D02*
X168500000Y-23275000D01*
X167000000Y-21675000D02*
X167000000Y-20040000D01*
X167000000Y-21675000D02*
X167000000Y-21775000D01*
X170000000Y-23325000D02*
X168550000Y-23325000D01*
X167000000Y-20040000D02*
X165960000Y-19000000D01*
X167000000Y-21775000D02*
X168500000Y-23275000D01*
%TO.N,Output4*%
X177000000Y-23275000D02*
X178450000Y-23275000D01*
X177000000Y-23175000D02*
X175500000Y-21675000D01*
X177000000Y-23275000D02*
X177000000Y-23175000D01*
X175500000Y-21675000D02*
X175500000Y-19515000D01*
X175500000Y-19515000D02*
X174985000Y-19000000D01*
X178450000Y-23275000D02*
X178500000Y-23325000D01*
%TO.N,Net-(JP5-Pad2)*%
X169500000Y-38325000D02*
X169500000Y-37500000D01*
X169500000Y-37500000D02*
X169500000Y-37325000D01*
X168325000Y-39500000D02*
X169500000Y-38325000D01*
X169500000Y-37325000D02*
X171325000Y-35500000D01*
%TO.N,Net-(JP6-Pad2)*%
X175650000Y-39500000D02*
X175650000Y-37700000D01*
X175450000Y-35625000D02*
X175325000Y-35500000D01*
X175450000Y-37500000D02*
X175450000Y-35625000D01*
X175650000Y-37700000D02*
X175450000Y-37500000D01*
%TO.N,Net-(JP7-Pad1)*%
X163175000Y-31500000D02*
X163175000Y-30000000D01*
X163175000Y-28100000D02*
X163275000Y-28000000D01*
X163175000Y-30000000D02*
X163175000Y-28100000D01*
%TO.N,Net-(JP7-Pad2)*%
X164825000Y-30000000D02*
X164825000Y-28100000D01*
X167500000Y-23825000D02*
X167000000Y-23325000D01*
X166925000Y-26575000D02*
X167500000Y-26000000D01*
X164825000Y-28100000D02*
X164725000Y-28000000D01*
X164920000Y-30095000D02*
X164825000Y-30000000D01*
X167500000Y-26000000D02*
X167500000Y-23825000D01*
X166925000Y-30095000D02*
X164920000Y-30095000D01*
X166925000Y-30095000D02*
X166925000Y-26575000D01*
%TO.N,Net-(JP8-Pad1)*%
X175825000Y-29100000D02*
X175725000Y-29000000D01*
X175825000Y-31000000D02*
X175825000Y-29100000D01*
X175825000Y-32500000D02*
X175825000Y-31000000D01*
%TO.N,Net-(JP8-Pad2)*%
X175000000Y-26000000D02*
X175000000Y-23825000D01*
X174175000Y-31000000D02*
X174175000Y-29100000D01*
X175000000Y-23825000D02*
X175500000Y-23325000D01*
X174275000Y-29000000D02*
X174275000Y-26725000D01*
X174175000Y-29100000D02*
X174275000Y-29000000D01*
X174275000Y-26725000D02*
X175000000Y-26000000D01*
X172440000Y-31000000D02*
X172075000Y-31365000D01*
X174175000Y-31000000D02*
X172440000Y-31000000D01*
%TO.N,Net-(R21-Pad1)*%
X158000000Y-58500000D02*
X158000000Y-55500000D01*
%TO.N,Net-(R21-Pad2)*%
X158000000Y-49575000D02*
X158000000Y-47462500D01*
%TO.N,Net-(R22-Pad1)*%
X165500000Y-58500000D02*
X165500000Y-55500000D01*
%TO.N,Net-(R22-Pad2)*%
X165500000Y-49575000D02*
X165500000Y-47500000D01*
%TO.N,Net-(R23-Pad1)*%
X173000000Y-58500000D02*
X173000000Y-55462500D01*
%TO.N,Net-(R23-Pad2)*%
X173000000Y-49537500D02*
X173000000Y-47462500D01*
%TO.N,Net-(R24-Pad1)*%
X180500000Y-58462500D02*
X180500000Y-55425000D01*
%TO.N,Net-(R24-Pad2)*%
X180500000Y-49500000D02*
X180500000Y-47395000D01*
%TO.N,Net-(R25-Pad2)*%
X165600480Y-33506671D02*
X166472151Y-32635000D01*
X167624520Y-40922750D02*
X167624520Y-42227250D01*
X167214750Y-40512980D02*
X167624520Y-40922750D01*
X165600480Y-36012980D02*
X165600480Y-33506671D01*
X166675000Y-37087500D02*
X165600480Y-36012980D01*
X166472151Y-32635000D02*
X166925000Y-32635000D01*
X166675000Y-39500000D02*
X166675000Y-37087500D01*
X167624520Y-42227250D02*
X167214750Y-42637020D01*
X166675000Y-40512980D02*
X167214750Y-40512980D01*
X166675000Y-39500000D02*
X166675000Y-40512980D01*
X167214750Y-42637020D02*
X159099520Y-42637020D01*
X159099520Y-42637020D02*
X158000000Y-41537500D01*
%TO.N,Net-(R26-Pad2)*%
X165975480Y-38805961D02*
X165975480Y-37377250D01*
X164825000Y-36226770D02*
X164825000Y-31500000D01*
X166123875Y-40951125D02*
X165825480Y-40652730D01*
X164825000Y-31500000D02*
X164960000Y-31365000D01*
X165975480Y-37377250D02*
X164825000Y-36226770D01*
X165825480Y-40652730D02*
X165825480Y-38955961D01*
X165825480Y-38955961D02*
X165975480Y-38805961D01*
X164960000Y-31365000D02*
X166925000Y-31365000D01*
X165500000Y-41575000D02*
X166123875Y-40951125D01*
%TO.N,Net-(R27-Pad2)*%
X175006059Y-41537500D02*
X176499520Y-40044039D01*
X173000000Y-41537500D02*
X175006059Y-41537500D01*
X176000000Y-34500000D02*
X172670000Y-34500000D01*
X174000000Y-40537500D02*
X174000000Y-39825000D01*
X173000000Y-41537500D02*
X174000000Y-40537500D01*
X172670000Y-34500000D02*
X172075000Y-33905000D01*
X176499520Y-34999520D02*
X176000000Y-34500000D01*
X176499520Y-40044039D02*
X176499520Y-34999520D01*
%TO.N,Net-(R28-Pad2)*%
X178470000Y-41470000D02*
X177199039Y-40199039D01*
X177199039Y-40199039D02*
X177199039Y-34709769D01*
X177199039Y-34709769D02*
X176289750Y-33800480D01*
X174040000Y-32635000D02*
X172075000Y-32635000D01*
X175475480Y-33800480D02*
X174175000Y-32500000D01*
X176289750Y-33800480D02*
X175475480Y-33800480D01*
X174175000Y-32500000D02*
X174040000Y-32635000D01*
X180500000Y-41470000D02*
X178470000Y-41470000D01*
%TD*%
M02*
